<svg id="Layer_2" data-name="Layer 2" xmlns="http://www.w3.org/2000/svg" viewBox="0 0 602.14 1153.46"><defs><style>.cls-1{fill:#76bc21;}.cls-2{fill:#d8dfe1;}.cls-3{fill:#e53e51;}.cls-4{fill:#fecb8b;}.cls-5{fill:#ffb259;}.cls-6{fill:#f9dfb9;}.cls-7{fill:#989400;}.cls-8{fill:#d1efbd;}</style></defs><path class="cls-1" d="M1588.61,504.87c-18.36-8.89-38.92-11.08-58.53-15.92-4.56-1.12-9.09-2.4-13.55-3.88-.66-.22-1.32-.46-2-.69-1.24-.57-3.35-1.52-4.41-2.12-.15-.08-.29-.17-.43-.26l-.81-1.18q6.12-6.13,12.4-12.09,5.25-4.92,10.75-9.55c.51-.43,1.42-1.15,2.29-1.83,1.07-.77,2.16-1.53,3.25-2.27,6.23-4.58,11-9.3,13.1-17a29.19,29.19,0,0,0,.86-4.7c.78-1.15,1.54-2.31,2.27-3.5,6.68-10.89,4.45-25.63-4.46-34.53-10.08-10.09-30.57-12.14-40.3,0-1.74,2.15-3.53,4.26-5.35,6.34-1,1.11-2,2.2-3,3.27-5.67,2.9-10.11,8.39-12.64,14.45l-2.56,2.44a27.62,27.62,0,0,0-26.89-6.83q-3.7,1.08-7.4,2.25l.39-1c6.14-16.38,8.91-33.2,7.3-50.35a80.19,80.19,0,0,0,12.88-12.14,30.3,30.3,0,0,0,10.09-16.57c0,.13,0,.26-.05.38.06-.36.15-.71.22-1.07a53.88,53.88,0,0,0,2.63-9.44c2.78-15.27-4-30.67-19.9-35.06-15.56-4.28-30.19,5.17-35.06,19.9q-.9,2.69-1.62,5.4l-.21.35c-.74.8-1.52,1.57-2.33,2.31s-1.79,1.34-2.44,1.76c-1.73,1.12-3.52,2.13-5.32,3.12-3.94,2.16-8,4-12.13,5.87-19.54,8.77-39.1,18.13-45.66,40.49-4.41,15-2.34,31.52,8.78,43.07a34.61,34.61,0,0,0,18.49,9.75c-.68,1.63-1.37,3.26-2,4.89-2.42,5.91-4.65,11.9-6.53,18a28.26,28.26,0,0,0,2.88,22c3.35,5.72,10.14,12.08,17,13.09a103.71,103.71,0,0,0,28.23.4c-4.48,4.13-9.06,8.15-13.8,12-9.83,7.92-10.41,24.37-4.46,34.53,7.61,13,25.89,18.6,39,10.23a116.28,116.28,0,0,0,21.16-17.4,26,26,0,0,0,2.52,2.4,67.71,67.71,0,0,0,14.39,9.59,164.58,164.58,0,0,0,31.64,10.82c7.41,1.79,14.88,3.3,22.34,4.88a30.88,30.88,0,0,0,16,5.56c6.15,1.26,12.15,2.77,18.56,3,12.59.54,24.23-9.09,27.48-20.92C1604.89,525.47,1600,510.38,1588.61,504.87Z" transform="translate(-1019.91 -276.88)"/><path class="cls-2" d="M1510.51,953.61c-4.2-54.64-7.06-109.09-7.46-163.91-.42-56.74.65-113.47.66-170.21a28.76,28.76,0,0,0-28.5-28.5H1475a24.25,24.25,0,0,0-12.35-14.12c-1-.51-2.08-1-3.13-1.49-5.56-13.42-19.74-18.92-33.84-16.38q-5,.88-9.92,1.66A29.42,29.42,0,0,0,1398.78,547c-26.71-8.3-56.45,1.3-81,12.94-5.17-4.7-12.09-7.35-19.6-8a118,118,0,0,0-43.09,4.66,28.69,28.69,0,0,0-11.53-12.77c-7.27-4.26-14-4-22-2.88a168.23,168.23,0,0,0-18.35,3.66c-5.27-6.85-13.27-11.54-22.08-10.67-16.67,1.64-33.32,2.84-49.89,5.38a148.73,148.73,0,0,0-48.51,16.51c-10.94,6-16.17,19.58-13.26,31.45a83.53,83.53,0,0,0-6,8.78,28.25,28.25,0,0,0-3.87,13.57A42.12,42.12,0,0,0,1039.81,623c-13.64,16.8-17.72,36.84-19.29,58-1.82,24.81.39,51.41,7.27,75.33,2.59,9,6.14,18.39,11.58,26.1a62.35,62.35,0,0,0,11.49,12.58,270,270,0,0,0,14.78,64c-3.19,27.18-3.09,55-2.81,81.84.26,24.51.13,48.94-.22,73.45-.39,27.9-2.59,55.75-2.09,83.67.47,26.19,3.08,53.38,12.18,78.1a36.63,36.63,0,0,0,6.85,11.83q.17,20.31,1.13,40.6c0,.25,0,.5.06.75-.23,1.2-.47,2.39-.69,3.59-2.7,14.43-6,29.87-4.64,44.63,1.13,11.91,4,22.45,13.38,30.75,12.15,10.77,26.73,16.3,42.89,13.43a120.9,120.9,0,0,0-3.39,25.51,65.58,65.58,0,0,0,6.94,31.06,29,29,0,0,0,13.57,18.91,25.32,25.32,0,0,0,2.66,1.32,69.63,69.63,0,0,0,6.34,4.68c8.29,5.4,21.27,5.2,29.91-.42l.9.29a27.51,27.51,0,0,0,18.71-1.37,31.33,31.33,0,0,0,10.49,10.5c8.51,5,17.32,4.74,25.34,1.23a41.26,41.26,0,0,0,15.85,4.84c10.7,1,20.15-5.47,28-11.72,11.08-8.81,19.54-22.18,25.67-34.8.14-.28.27-.56.41-.85a28.62,28.62,0,0,0,3.73-4.93q2.55-4.29,5.33-8.41c.7-1,1.42-2,2.15-3a111.67,111.67,0,0,1,12.45-12.91c.83-.73,1.67-1.43,2.52-2.13,1.67-1.22,3.38-2.39,5.11-3.52a149.73,149.73,0,0,1,14.15-8c15.06-7.68,30.8-13.76,46-21.13a48,48,0,0,0,16.72,4.3c7.26.52,15.15-3.34,20.15-8.35,5.75-5.74,7.58-12.32,8.35-20.15,1-9.72,1.67-19.47,2.8-29.17a148.7,148.7,0,0,1,4.71-21.12c1-2,2-4,3-6,12.47-14.67,20-33.34,26.37-51.22,7.36-20.76,12.56-42.32,16.82-63.9a570,570,0,0,0,9.12-63C1515.1,1016.73,1512.92,984.94,1510.51,953.61Zm-181.87,325.63a145.46,145.46,0,0,0-15.43,9.12,28.17,28.17,0,0,0-7.43-3.28,29.52,29.52,0,0,0-27.12,6.68,28.61,28.61,0,0,0-19.46-7.7c-8.21,0-14,3.4-20.16,8.35-3.27,2.64-6.5,5.34-9.71,8.06-.55-.35-1.11-.69-1.68-1a28.77,28.77,0,0,0-20.88-26.39,28.13,28.13,0,0,0-7.39-1,33.94,33.94,0,0,0-3.17-3.49c-7.44-7.14-15.84-9.46-25.74-10.78a32.19,32.19,0,0,0-3.68-.27,28.45,28.45,0,0,0-20-20.44,27.79,27.79,0,0,0-9.44-.89l1.29-6.46a133.44,133.44,0,0,0,5-31.12c0-.87.08-1.73.09-2.59,0-.11,0-.22,0-.33h0v-.13a27.76,27.76,0,0,0-7.16-18.75q0-9.63.21-19.27c15.84-39.35,22-84.61,4.4-123.47a229.92,229.92,0,0,0,6.09-27.14,24.42,24.42,0,0,0,12.12-7.24c24.51-28.19,33.49-65,34.47-101.72a239.12,239.12,0,0,0,11.42-24.77c11.53-28.15,18.21-58.46,22.1-88.55a262.14,262.14,0,0,0,1.35-52.09c-1-13.45-2.62-27.15-7.35-39.62,13.8-7,26.22-18.15,32.47-32a45.83,45.83,0,0,0,3.25-9.42c18.24-.43,36.67-3.84,54.25-8.29a332.53,332.53,0,0,0,58-21q1.62-.75,3.24-1.53h1.32a26.35,26.35,0,0,0,9,8.49c19.59,11.18,43,11.56,63.87,4.3-.17,61.25-1.31,122.5-.32,183.75.53,32.24,1.65,64.49,4,96.66s5.57,64.08,6.11,96.26a395.08,395.08,0,0,1-2.78,54.93,567.35,567.35,0,0,1-15.42,74q-2.64,9.33-5.77,18.52c-1,3.1-2.18,6.17-3.34,9.23-.43,1.12-.88,2.22-1.32,3.33-.21.48-.44,1-.66,1.44a30.49,30.49,0,0,0-18.56,19.44c-5.71,17.11-11.3,34.25-18,51a20.88,20.88,0,0,0-1.46,8.48C1369.74,1261.61,1348.6,1269.06,1328.64,1279.24Z" transform="translate(-1019.91 -276.88)"/><path class="cls-3" d="M1413.58,482.5c.59-13.16-2.89-26.24-11.66-36.7-14.21-16.93-39.45-16.16-58.3-8.78a23.57,23.57,0,0,0-12.42-3.55c-6.54,0-12.3,1.83-18.38,3.86-10.21,3.4-17.62,12-17.62,23.14,0,5.3.5,10.38,3.27,15.12a24.35,24.35,0,0,0,5,6c-2.75,16.84-5.18,33.8-5.28,50.87a23.11,23.11,0,0,0,.69,5.7c-1.77,7-3.77,14-5.83,20.92-5.14,17.2,9.86,30.68,24.85,30a22.26,22.26,0,0,0,10.67-.5,58.64,58.64,0,0,0,25-14.62,25.11,25.11,0,0,0,16.78-2.8c26.57-14.63,44-45,44.52-75.16A62.23,62.23,0,0,0,1413.58,482.5Z" transform="translate(-1019.91 -276.88)"/><path class="cls-3" d="M1247.3,436.75c-7.26-5.23-16-4.23-23.09-.2-10.53-2.95-21.7-2.89-32.29,1.55q-3.42,1.44-6.67,3.18c-8.38.25-15.73,2.78-23.17,8.86-13.58,11.12-11.72,32.39-8.28,47.41.13.58.28,1.16.42,1.75a19.61,19.61,0,0,0-3,12.18,201,201,0,0,0,15.36,61.71c7.77,18.33,22.7,37.94,43.44,41.83a52.11,52.11,0,0,0,19.65-.12,24.32,24.32,0,0,0,29.28-10.3,115.93,115.93,0,0,0,5.5-10.54,67.13,67.13,0,0,0,7.93-11.4c10.63-19.29,13.63-42.78,12.28-64.5C1282.71,487.66,1273.1,455.32,1247.3,436.75Z" transform="translate(-1019.91 -276.88)"/><path class="cls-4" d="M1503,789.15c-1.46-15.78-4.44-29-10.74-43.45-10.45-24-33.35-40-57.81-47.31-36.67-10.94-76.36-3.43-113.5,1.87-14.68,1.82-29.41,2.75-44.14,3.74a36.31,36.31,0,0,0-11.41-10.58c-7.62-4.47-19.17-7-27.74-3.63a47.66,47.66,0,0,1-6.57,2,114.15,114.15,0,0,1-19.46-.76c-17.64-2.64-35.12-6.28-52.92-7.93-19-1.76-40.74.53-56.88,11.6-10.3,7.07-19.41,16.18-24.62,27.7-2.88,6.36-5.51,12.59-7,19.37-1.78,8-2.45,16.13-3.2,24.23-2.36,25.41.91,51.08,4.3,76.26-20.22,57.28,4.09,119.18,13,177.44a185.33,185.33,0,0,1,.16,41.65c-4.78,32.56-11.57,64.7-6.66,97.68,1.78,11.92,7.74,23.6,12.66,34.38,3.58,7.84,7.48,15.53,11,23.39.25.65.5,1.32.73,2-4.49,12.82-.65,28.45,8.59,38.26,34.76,36.89,92.17,36.13,138.81,32.71,19.87-1.45,39.75-4,59.69-4.16,22.4-.19,44.73-1.16,66.77-5.63a120.69,120.69,0,0,0,54.68-26.66c15.72-13.37,25.69-33.46,31.32-53,7.27-25.2,7.31-52.29,8.33-78.3,1.23-31.31,2.1-62.64,4.11-93.91,1.18-18.41,2.82-36.78,5.18-55.07q1.08-7.89,2.14-15.8l-1.29,9.57c6.58-48.66,19.44-96.24,22.69-145.4A205.58,205.58,0,0,0,1503,789.15Zm-358.77-34.48c-1.48,1.51-2.9,3.1-4.25,4.73.33-1.38.7-2.74,1.12-4.09l0-.1c.65-.17,1.29-.34,1.94-.48ZM1153.43,998c0,.12-.07.24-.1.36a2.17,2.17,0,0,1,0-.25Z" transform="translate(-1019.91 -276.88)"/><path class="cls-5" d="M1446.68,1188.37c-1.49-10.83-9.22-22.55-17.52-29.4a98.65,98.65,0,0,0-38.87-19.48,150.43,150.43,0,0,0-16.92-3.3,130.74,130.74,0,0,0,4.8-21.17c3.37-23.81,3.85-47.49-6.89-69.65-3.91-8.08-13.11-14.24-21.51-16.55a33.23,33.23,0,0,0-7.44-1.19c6.55-8.92,12.24-18.5,14.58-29.53,2-9.68,1.48-19-3.63-27.74s-12.41-13.16-21.51-16.55c-23.09-8.58-48.42-15.21-73.24-13.23a125.39,125.39,0,0,0-25.55,4.66q1.76-6.16,4.06-12.17,2.65-5.76,5.75-11.3c5.64.87,11.3,1.42,16.84,1.76,35.29,2.13,82.3-9,100.11-43,14.92-28.49,6.08-67.49-17.16-89a57,57,0,0,0,19.91-8.21c12.66-8.42,20.74-19.49,26.13-33.54,4.64-12.08,3.81-25.46,1.29-37.87-2.44-12-13.69-22-25.14-25.14a36.06,36.06,0,0,0-29.91,5.13,36.42,36.42,0,0,0-23,13.6,54,54,0,0,0-16.43,9.5,33.41,33.41,0,0,0-6.11,7.1q-5.37,1.14-10.81,2c-29.56,3.46-59.47,2.92-88.9,7.7-15.62,2.54-26.35,20-26.43,34.72-.1,21.12-3.79,42-6,63-2.53,24.1-2.69,49.14,4.29,72.58a36.25,36.25,0,0,0,5.92,11.64,144,144,0,0,0-7.32,28.5c-3.78,26-2.52,54.54,14,76.47,5.92,7.84,11.66,13.83,21.52,16.54,13.31,3.67,24.84-.86,35-9.25l.28-.23a112.85,112.85,0,0,1,16.25-9.82,89,89,0,0,1,11.43-3.23c-16.17,15-33.19,29.29-46.9,46.68-12.67,16.07-23.15,33.25-26.18,53.34-.51.23-1,.47-1.51.73-10.73,5.52-19.66,13.32-25.14,23.21l-.75-.21a179.75,179.75,0,0,0-45.94-6.91c-23.61-.2-40.67,23.1-34.72,45.57a254.26,254.26,0,0,0,16.71,46.31c7.27,15,18.15,26.76,31.23,36.77,10.72,8.21,24.56,13.22,37.88,15.06,9.54,1.32,18.71,2.34,28.33,2a252.8,252.8,0,0,0,28.91-3.07,188.79,188.79,0,0,1,41.9.7c27.21,4,54.46,9.74,82,6.82,24.1-2.56,48.45-8.26,68.5-22.66,10.67-7.66,19.43-15.63,26.45-26.89a60.55,60.55,0,0,0,6.72-15.67C1448.82,1204.92,1448,1197.92,1446.68,1188.37ZM1231.85,807.49c.34-2.73.67-5.45,1-8.18,3.53-.21,7.07-.4,10.61-.59Q1237.54,802.94,1231.85,807.49ZM1304.17,1207c-15.15-2.2-30.22-4.84-45.45-6.53a182.15,182.15,0,0,0-31.38-.7,36.29,36.29,0,0,0,6.59-6.63,63,63,0,0,0,32,.53,140.23,140.23,0,0,0,14.43,4.43c11.87,3,24.2,4.41,36.34,5.73,11.74,1.27,23.59,1.5,35.38,2.27q-3.64.9-7.33,1.56A190.53,190.53,0,0,1,1304.17,1207Z" transform="translate(-1019.91 -276.88)"/><path class="cls-6" d="M1200.48,1035a34.84,34.84,0,0,0,.41-20A35.36,35.36,0,0,0,1186,994.65a34.64,34.64,0,0,0-3.75-9.29c-10.06-17.18-32.11-22.47-49.25-12.92-10.61,5.91-17.08,15.2-25.29,23.63a36,36,0,0,0,17.84,60.61,36.07,36.07,0,0,0,6.16,8.31q6.18,6.26,11.71,13.06c10.89,14.77,20,30.7,30.67,45.66,5.61,7.91,11.87,13.89,21.51,16.54a36.22,36.22,0,0,0,27.74-3.63c15.81-9.26,24.29-33.22,12.92-49.25C1224,1070.06,1213.21,1051.82,1200.48,1035Z" transform="translate(-1019.91 -276.88)"/><path class="cls-6" d="M1412.2,826.51c0-.92.06-1.84.11-2.76a66.32,66.32,0,0,1,1.93-6.92,33.4,33.4,0,0,1,10.39-13.42c13.29-9.22,20.77-24.17,16.29-40.48a36.4,36.4,0,0,0-34.72-26.43c-13.06-.13-25.94-2.86-39-3a34.4,34.4,0,0,0-16.14,3.87c-18-3.94-38.2,7.06-42.58,25.56-5,21-2.79,41.9,7.45,61,6.48,12.05,16.92,21.92,29,28.76-10.93,4.47-19.33,15.14-21.9,26.66-2.93-.1-5.87-.22-8.82-.42-.14,0-.29,0-.43-.09-12.62-2.83-25.72-.2-35,9.26-1.4,1.42-2.7,2.92-4,4.47A203,203,0,0,0,1261,911.45,260.44,260.44,0,0,0,1243.22,945c-6.09,13.63-12,27.64-15.46,42.23a110.76,110.76,0,0,0-3.09,22.62c-.24,9.89,2.33,18.06,6.43,26.83,4.82,10.28,19.7,19.08,31.09,17.83a78.59,78.59,0,0,1,15.18-.11c18,3.12,35.42,8.86,53.83,9.11,17.74.24,32-13,35.29-29.63,10.93,6.79,24.89,7.93,36.88.71,36.18-21.78,41.23-67.62,33.53-105.4-3.89-19.07-12.84-36.25-24.83-51.37a69.69,69.69,0,0,0-22.27-18.38A35.74,35.74,0,0,0,1412.2,826.51Zm-46.88,130c-12.51-1.35-25.46.93-37.69,3.34a30.2,30.2,0,0,0-17.08,10.38c3.24-6.65,6.76-13.18,10.64-19.46,3,.1,6,.22,9,.42l.43.08c13,2.93,26.32-.71,35.2-9.5.85,3.06,1.55,6.15,2.13,9.27.16,1.94.27,3.87.32,5.81Z" transform="translate(-1019.91 -276.88)"/><path class="cls-6" d="M1436.78,644.78c-17.89-5.39-35-1.51-51.48,5.7-9.71,4.24-18.26,10.46-27.27,15.93-16.74,10.17-23,32.11-12.91,49.26,9.78,16.7,32.47,23.11,49.25,12.91,7.58-4.6,14.85-9.73,22.74-13.76l1.28-.41c18.57,5.12,38.49-7,43.53-25.34C1467.22,669.8,1455.55,650.44,1436.78,644.78Z" transform="translate(-1019.91 -276.88)"/><path class="cls-6" d="M1151.18,733.5c7.6,0,15.24,0,22.83.55a24.81,24.81,0,0,1,2.91.85l-1.81-.76.34,0c6.85,2.35,13.59,3.17,21.3,1.05a36,36,0,0,0,25.14-44.28c-2.25-8.2-8.47-17.88-16.54-21.52-4.67-2.1-9-4.21-13.93-5.17a154.2,154.2,0,0,0-18.56-2.28c-7.21-.51-14.46-.46-21.68-.46a36,36,0,0,0,0,72Zm23.45.43-1.17-.49,1.44.53Z" transform="translate(-1019.91 -276.88)"/><path class="cls-7" d="M1170.76,989c23.55-6.67,43.82-21.24,62.26-36.85a254.07,254.07,0,0,0,41.78-45.26c9.1-12.63,2.21-31.7-10.23-39a28.63,28.63,0,0,0-22-2.87,26.14,26.14,0,0,0-5.67,2.28,25.53,25.53,0,0,0-12.33.72c-15.5,4.79-29.76,12.47-43.92,20.24a206,206,0,0,0,2-25.77,28.45,28.45,0,0,0-9.64-21.27c4.52-8.27,9.46-16.32,14.64-24.2,2.32-3.53,4.72-7,7.17-10.46,1.12-1.58,2.27-3.16,3.42-4.72,1.53-2.08,6.9-9,.06-.2,6.45-8.32,10.3-17.12,7.33-27.89a28.9,28.9,0,0,0-27.48-21.09h-6c-14.78,0-25.87,11.12-28.11,25-.84,1.48-1.71,3-2.5,4.46a33.45,33.45,0,0,0-1.88,4.37A323.84,323.84,0,0,0,1117.31,825c-6.16,12.61-11.71,25.83-15.3,39.42a107.21,107.21,0,0,0-2.32,44.68c1.07,6.91,7.34,13.67,13.1,17a28.52,28.52,0,0,0,4.34,2c-.15,1.12-.31,2.23-.45,3.35-1.39,10.86,7.54,22.39,18.07,26.77C1132.79,976.77,1151,994.6,1170.76,989Z" transform="translate(-1019.91 -276.88)"/><path class="cls-7" d="M1361.68,1179q-.72-2.4-1.54-4.68c-.53-1.65-1.73-4.85-2.09-6-2.21-7-5-11.33-9.7-16.9-6.88-8.18-18.13-9.88-27.92-7-3.24.36-6.47,1-9.69,1.64l-.55,0a29.48,29.48,0,0,0-18.76,7.25c-6.62-.44-13.25-1.35-19.84-2a104.34,104.34,0,0,0-43.32,4.87c-10.51,3.57-20.47,8.46-30.33,13.51-15.36,4.74-30.3,10.7-45.34,16.36-12,4.52-20.92,13.92-20.92,27.48,0,14.35,13,30.07,28.5,28.5,10.4-1.06,20.34-2.79,30.16-6.33a250,250,0,0,0,28.85-12.94l.17-.08a186.27,186.27,0,0,1,20.24-4.58,68,68,0,0,1,9.36-.28l.33.07h0c12.41,5.89,27.36,2.77,35.65-8.23,2.86.29,5.72.55,8.59.72a80.78,80.78,0,0,0,22.25-1.69,30.69,30.69,0,0,0,26,5.32C1356.52,1210,1366.1,1193.86,1361.68,1179Zm-113.87,38.19.63.32C1243.57,1215.64,1245.87,1216.11,1247.81,1217.16Z" transform="translate(-1019.91 -276.88)"/><path class="cls-8" d="M1396.4,363.48c2.21,9.89,7.75,18.17,14.77,25.32,2.72,2.77,7-1.48,4.25-4.24-6.35-6.46-11.24-13.75-13.23-22.68-.85-3.77-6.63-2.17-5.79,1.6Z" transform="translate(-1019.91 -276.88)"/><path class="cls-8" d="M1414.7,352.19c2.19,4.37,4.62,8.7,9.08,11.08,3.41,1.82,6.44-3.36,3-5.18s-5.21-5.49-6.93-8.92-6.9-.43-5.18,3Z" transform="translate(-1019.91 -276.88)"/><path class="cls-8" d="M1434.29,334.68c.19,3.41,2.6,5.83,4.88,8.12,2.74,2.74,7-1.5,4.25-4.24-.76-.76-1.52-1.52-2.22-2.33a6.82,6.82,0,0,1-.72-1.06c-.08-.14-.2-.74-.19-.49a3,3,0,0,0-6,0Z" transform="translate(-1019.91 -276.88)"/><path class="cls-8" d="M1452.81,499.27c10.13-5.74,22-5.91,33.28-7.7,3.81-.6,2.19-6.39-1.59-5.78-11.85,1.88-24,2.24-34.72,8.3-3.36,1.91-.34,7.09,3,5.18Z" transform="translate(-1019.91 -276.88)"/><path class="cls-8" d="M1474.81,463.27c6.21-3.93,13.19-5.48,20.48-5.59,3.87-.06,3.88-6.06,0-6-8.29.13-16.44,1.94-23.51,6.41-3.26,2.06-.25,7.26,3,5.18Z" transform="translate(-1019.91 -276.88)"/><path class="cls-8" d="M1454.7,432.19c3.69,7.2,8.8,12.93,14.47,18.61,2.74,2.74,7-1.5,4.25-4.24-5.34-5.34-10.07-10.63-13.54-17.39-1.76-3.45-6.94-.41-5.18,3Z" transform="translate(-1019.91 -276.88)"/><path class="cls-8" d="M1503.29,419.68q.49,0-.06,0a5.06,5.06,0,0,1,.85.22,7.48,7.48,0,0,1,1.53.79,8.93,8.93,0,0,1,3.09,3.53c1.81,3.43,7,.39,5.18-3-2-3.83-6.08-7.33-10.59-7.49-3.87-.14-3.85,5.86,0,6Z" transform="translate(-1019.91 -276.88)"/><path class="cls-8" d="M1517.29,483.68a10.13,10.13,0,0,0,3.85-1.08c.45-.21.89-.44,1.33-.66s.44-.22.29-.11c0,0,1-.17.53-.15a3,3,0,0,0,3-3,3,3,0,0,0-3-3,10.13,10.13,0,0,0-3.84,1.08c-.45.21-.89.44-1.34.66s-.43.22-.28.11c0,0-1,.17-.54.15a3,3,0,0,0-3,3,3,3,0,0,0,3,3Z" transform="translate(-1019.91 -276.88)"/><path d="M1547.48,611.82c4.39-11.17,4.4-23.51,2-35.27-.54-2.71-1.26-5.38-2-8-1.09-3.7-6.88-2.12-5.79,1.6,4.1,13.92,5.36,29-1.08,42.45-5.71,11.88-16.46,20.16-27.87,26.18a144.21,144.21,0,0,1-28,11,14.18,14.18,0,0,0-4.74-5.27c-3.21-2.19-6.21,3-3,5.18a8.13,8.13,0,0,1,1.81,1.68c-19.86,4.94-40.76,6.92-60.53,8.53-15.64,1.26-31.32,2-47,2.7-9,.42-17.88,1.06-26.81,1.72a2.87,2.87,0,0,0-3.18.24c-9.9.73-19.79,1.48-29.7,2-2.53.13-5.07.22-7.61.33-.1-.13-.21-.25-.32-.38-1.48-1.75-3.56-1-4.5.58-28.09,1-56.22.67-84.3-.34-16.08-.57-32.14-1.41-48.2-2.39-12.08-.74-24.3-1.1-36.32-2.55-12.68-1.52-25.23-5.38-37.2-9.72-14.12-5.11-27.89-11.7-40.17-20.37-9.5-6.71-19.19-15.79-21.73-27.6-3-14,8.68-26,18.78-33.78,3-2.32,0-7.54-3-5.18-11.76,9-23.66,21.62-22,37.63a31.11,31.11,0,0,0,1.64,7.15c-1.6-1-3.85-.65-4.18,1.66-3.53,24.27.38,49.46,2.44,73.7,2.62,30.8,2.17,61.84,4,92.7,1.89,32.34,6.49,64.53,9.32,96.8,2.87,32.74,5.1,65.53,6.95,98.33,3.7,65.85,4.8,131.76,5.75,197.69q.35,24.73.77,49.48c.23,13.52.91,27.06.5,40.58-.75,24.43-3.92,49.07-.71,73.45,1.28,9.77,3.92,19.36,9,27.87,4.74,8,11.78,14.28,19.21,19.65,17.07,12.36,37.94,19.47,58.05,25.06,23.91,6.65,48.47,10.37,72.95,14.18,31.63,4.91,63.48,8.73,95.51,9.28a381.2,381.2,0,0,0,116.51-16.68c29.86-9.09,67.17-24.3,78.56-56.26,1.3-3.66-4.49-5.21-5.78-1.6-6.07,17-21.31,28.47-36.61,36.8-18.14,9.88-38.26,16-58.26,20.82a454,454,0,0,1-54.32,9.45c-31.11,3.59-63.21,1.25-94.22-2.2-30-3.33-60.4-7.71-90-14-20.44-4.37-40.87-9.95-59.87-18.78-18.24-8.48-35.33-20.57-41.85-40.41-7.46-22.73-4.15-48.88-2.87-72.31,1.54-28.16.1-56.41-.32-84.59-.5-32.89-.9-65.79-1.59-98.67q-2.07-98.89-9.76-197.52-3-38.09-7.21-76c-2.84-25.69-4.48-51.28-5.33-77.11-.75-22.74-1.43-45.39-3.45-68.06-1.74-19.52-4.41-40-1.65-59.56,4.23,8.7,11.88,15.84,19.44,21.59,13.38,10.19,29.14,17.32,44.87,23a203.69,203.69,0,0,0,23.51,7.09c-5,8.42-.6,20,6.5,27.15-5.2-2.15-11.92-.42-16.92,1.38-3.61,1.31-2,7.1,1.59,5.79,4.16-1.51,8.82-2.79,13.21-1.56,4.18,1.16,3.29,5.85,2.08,9.15l-1.25.15a3.55,3.55,0,0,1,0-.78,16,16,0,0,0-.33-5.69c-1-3.72-6.83-2.14-5.79,1.59,1,3.5-1.38,8.07,2.89,10.13,2.08,1,6.13,1.11,8.13-.06,2.48-1.45,3-6.51,3.36-9.09a9.83,9.83,0,0,0-1.56-6.76,18.41,18.41,0,0,0,2.51,1.26c3.58,1.48,5.12-4.33,1.59-5.78-8.09-3.34-16.43-17.78-9.46-25.54a114.75,114.75,0,0,0,11.8,1.55c55.45,4.35,111.37,6.91,167,4.78,8.21,9.49,17,18.44,27.41,25.52,11.59,7.86,25,11.91,38.94,12.81,3.86.25,3.84-5.75,0-6-24.68-1.6-42.8-15.32-58.62-32.66q7-.32,14-.74c6.15-.38,12.29-.82,18.43-1.26,7.78,13.18,20.94,22.16,30.2,34.21,2.32,3,7.54.05,5.18-3-8.61-11.21-20.74-19.92-28.6-31.68,9.37-.69,18.74-1.34,28.14-1.78,16-.75,31.94-1.56,47.87-3,18.53-1.64,37.8-3.81,56.26-8.42,0,6.3-4.51,14.05-7.5,17.79-2.39,3,1.83,7.26,4.25,4.24,4.68-5.86,9.61-15.38,9-23.55a152.9,152.9,0,0,0,31-12.26c11.36-6.1,21.66-14.74,27.85-26.21.52-1,1-1.94,1.44-2.93-.11,63-11.13,125.26-17.54,187.8-3.29,32.09-4.06,64.29-6.36,96.44-2.33,32.68-5.79,65.27-9.6,97.8s-8,65.12-11.94,97.69c-3.9,32.37-6.27,64.67-7.34,97.26-.54,16.49-.9,33-1.41,49.47-.36,12.13-.56,23.94.49,36,1.94,22.52,6.92,47.81-1.06,69.67a35,35,0,0,1-2.72,5.57c-1.94,3.36,3.25,6.37,5.18,3,11.11-19.21,7.78-44.34,5.8-65.39-1-11.17-2.35-22.36-2.21-33.59.2-15.67,1-31.36,1.41-47,.89-32.57,2-65.16,5.79-97.54,3.78-32.54,8-65,11.91-97.55s7.59-65.17,10.33-97.86c2.71-32.26,3.38-64.64,6.12-96.89,5.33-62.73,16.92-124.86,18.89-187.89.18-5.68.25-11.36.26-17C1552.56,611.06,1549.16,610.34,1547.48,611.82Z" transform="translate(-1019.91 -276.88)"/><path d="M1457.08,1254.73c-48.95,28.19-106.24,33.72-161.7,33-27.28-.36-54.44-3.21-81.69-3.85-28.45-.67-58.49,3.86-84.35-10.93-21.68-12.4-31.5-38.36-52.92-51.27a88.55,88.55,0,0,1-3.13-.41c-4,0-4,6,0,6,0,0,.09-.13.21-.33,20.41,12.35,30.87,35.93,50.38,49.61,22.79,16,53.27,13.58,79.61,13.3,27.3-.3,54.63,2.9,81.93,3.67s54.95.21,82.14-3.55c32.41-4.49,64.08-13.64,92.55-30C1463.46,1258,1460.44,1252.79,1457.08,1254.73Z" transform="translate(-1019.91 -276.88)"/><path d="M1070.4,951.82c2.2,32.88,3.44,65.82,4.14,98.77.68,32.63,1.5,65.33-.71,97.91-1.68,24.64-3.07,52.8,13.84,72.9,2.49,3,6.71-1.3,4.24-4.24-15.69-18.65-13.6-45.94-12.08-68.66,1.91-28.67,1.39-57.33.93-86.06-.53-32.94-1.66-65.88-3.62-98.77-1.73-29.19-5.24-58.28-5.42-87.54-.18-28.88,1.22-57.75.24-86.63-.91-26.58-3.68-54-14-78.75-1.47-3.51-7.28-2-5.78,1.6,9.75,23.35,12.56,48.87,13.66,73.95,1.18,26.83.06,53.7-.1,80.54C1065.55,895.32,1068.49,923.44,1070.4,951.82Z" transform="translate(-1019.91 -276.88)"/><path d="M1477.75,1105.74c4.45-64.33,11.67-128.42,16.9-192.68s5.63-130,23.07-192.44c1-3.74-4.75-5.32-5.79-1.6-15.55,55.71-17.62,114.3-21.61,171.67-4.4,63.29-11.68,126.35-16.67,189.59-2.49,31.47-5.33,63.1-4.42,94.69.37,12.71.57,25.45-.59,38.14-1.09,12-3.66,24.59-11,34.43-2.31,3.1,2.9,6.09,5.18,3,13-17.41,12.85-42.42,12.66-63.13-.1-11-1.08-22-.58-32.94C1475.65,1138.23,1476.63,1122,1477.75,1105.74Z" transform="translate(-1019.91 -276.88)"/><path d="M1133.59,1321.4a2.25,2.25,0,0,0,1.85-1.32l1.38-.31c8.23,2.61,16.65,4.68,24.94,6.6a3,3,0,0,0,2.31-5.49,200.83,200.83,0,0,0-20.41-10.71,3.16,3.16,0,0,0-1.8-4.47c-6.37-1.62-12.67-3.45-19-5.29-12.81-6.41-24.89-13.88-34.29-25.37-2.45-3-6.67,1.28-4.24,4.25a81.55,81.55,0,0,0,16.06,14.81c-2.73-.6-5.15,3-2.83,5,.39.34.79.65,1.18,1-2-.75-3.89-1.55-5.8-2.38-3.47-1.52-6.55,3.46-3,5.18h0l.1,0a155.49,155.49,0,0,0,14.57,6,3,3,0,0,0-2,5.13c-1.51-.09-3-.15-4.51-.17-2.14,0-3.92,2.62-2.59,4.51a40.46,40.46,0,0,0,11.61,10.85c-3.84-.69-7.68-1.38-11.53-2-3.11-.53-5.61,3.9-2.31,5.48.63.3,1.26.6,1.9.88a3.56,3.56,0,0,0,.33,1.35,19.66,19.66,0,0,0,6.24,7.55c-.4-.13-.79-.27-1.2-.38-3.78-1-5.18,4.48-1.6,5.79.75.27,1.5.5,2.25.7a61.88,61.88,0,0,1,7,2.94,86.94,86.94,0,0,1-9.34-1.16c-3.78-.7-5.47,5-1.66,5.78,4.3.87,8.48,1.72,12.72,2.63-3.1,1.15-6.17,2.29-9.41,3.17-3.4.91-2.46,5.66.83,5.89a32.64,32.64,0,0,1,8,2.07c-3,3.9-5.88,8.19-6,13.12-.12,3.87,5.88,3.86,6,0,.15-4.71,4.68-9.34,7.39-12.76a3,3,0,0,0-2.12-5.12,18.3,18.3,0,0,1-2.95-.57c3.42-1.25,6.84-2.51,10.36-3.46a3.09,3.09,0,0,0,1.67-4.62,2.84,2.84,0,0,0-1-4.18c-.94-.47-1.87-1-2.81-1.45.72.1,1.43.2,2.15.32,3.77.67,5.31-4.55,1.59-5.78-6.05-2-13.83-3.85-19-8.25l1.23,0a51.77,51.77,0,0,0,19.39.76c2.56-.37,2.91-4.4.71-5.48-7.39-3.65-15.16-6.76-21.14-12.3,5.45.37,10.9.95,16.34,1.09A41.54,41.54,0,0,0,1133.59,1321.4Zm3.19-7.9c-1.07-.34-2.13-.7-3.19-1.08l.78,0Zm-21.1-9,4.66,1.37c-1-.14-2-.3-3-.47C1116.81,1305.15,1116.24,1304.86,1115.68,1304.55Z" transform="translate(-1019.91 -276.88)"/><path d="M1436.3,1312.31l-6.46,1.62c-1.66.37-3.33.72-5,1,1.6-.6,3.2-1.2,4.78-1.83a3.11,3.11,0,0,0,2.07-3.21q2.28-.86,4.55-1.75a3,3,0,0,0-1.84-5.78l-1.05.2,2.52-1,.37,0,0-.11a3,3,0,0,0-1.69-5.68c-1.47.23-3,.42-4.43.59,2.93-1.71,1.52-6.88-1.92-5.55h.12s-.31.07-.4.1c-1.44.55-3,1-4.42,1.53a3.11,3.11,0,0,0,0-1c3-1.67,1.44-6.93-2-5.58a78.64,78.64,0,0,1-10.72,3.39,72.47,72.47,0,0,0-12.45,1.57c-3.33.76-2.56,5.94.8,5.89a57.72,57.72,0,0,0,7.61-.62c-.48.31-1,.62-1.43.94l-2,.41c-3.38.67-2.52,5.89.8,5.89q3.76,0,7.54,0c-1.12.27-2.25.52-3.38.76-2.82.59-2.93,5.28,0,5.79.75.13,1.5.23,2.25.32l-2.25.51c-2.43.55-2.62,3.1-1.46,4.64-1.72.65-3.44,1.3-5.15,2a3.31,3.31,0,0,0-1.89,4.19l-3.07.77c-3.52.88-2.38,5.55.79,5.9a67.8,67.8,0,0,0,10.46.18,4.36,4.36,0,0,1-1.32.37h-.25v.09h0c0,1.24-2.07,6.57,1.72,5.82s7.34-1.37,11-2c-4.08,1.76-8.32,3.16-12.5,4.56-3.18,1.06-2.66,5.84.81,5.9,3.92.07,7.81.46,11.69.59-1.62,1.23-3.24,2.45-4.92,3.61-2.37,1.64-1.63,5.47,1.52,5.47h8a33.31,33.31,0,0,1-7.86,6.18c-3,1.63-.94,6.4,2.31,5.51a56.24,56.24,0,0,1,9.34-1.4c-3.26,4-6.5,8-10.61,11.3-2.14,1.7-.28,5.13,2.12,5.12a79.76,79.76,0,0,0,8.19-.35,12.21,12.21,0,0,1-3.09,3,3,3,0,0,0-.6,4.71c2.12,2.41,2.41,4.73,2.43,7.8,0,3.87,6,3.87,6,0a17.58,17.58,0,0,0-2.28-9.43c2.4-2.5,4-5.67,6.36-8.3,1.94-2.14.09-5.9-2.92-5a34.79,34.79,0,0,1-6.28,1.2c3.73-4.13,7-8.69,10.85-12.72,2.51-2.61-.63-6-3.63-4.72a22.05,22.05,0,0,1-6.4,1.61c1.7-1.71,3.35-3.51,5.07-5.29a3.12,3.12,0,0,0-2.12-5.25h-5.73c1.84-1.41,3.68-2.82,5.59-4.14a3,3,0,0,0-2.31-5.45,31.58,31.58,0,0,1-5.89.62,48.17,48.17,0,0,0,13.77-8.81,2.73,2.73,0,0,0,0-4.08l.32-.11c3-1,2.72-6.35-.8-5.89l-.66.09c1-.26,2.08-.53,3.11-.81C1441.62,1317.06,1440.05,1311.37,1436.3,1312.31Z" transform="translate(-1019.91 -276.88)"/><path d="M1375.05,1188.27c-1.54-.53-3.08-1-4.63-1.55a3.11,3.11,0,0,0-.66-1c-6.48-6.47-12.65-13-15.77-21.83a3.15,3.15,0,0,0-4.38-1.74c-7.19-6.59-16.44-10.62-25.11-14.93a3,3,0,0,0-4.11,4.1q1.29,2.57,2.56,5.13c-20.23-1.91-39.72-12.57-60.3-7.88-2.32.53-2.76,3.42-1.33,5a35.61,35.61,0,0,1,4.07,6.15l-4,1.46a2.82,2.82,0,0,0-2.87-2.66c-2.06,0-4.14.1-6-.84l-.78-.55c-1.82-1.31-3.6-.13-4.19,1.53h-23.79c-1.78,0-3.24,1.7-4.73,2.5-4.59,2.46-10.71,2.59-15.75,3.12-5.6.59-11.24,1-16.7,2.51-3.41.9-2.56,5.64.72,5.87a21.57,21.57,0,0,1,5.31,1.15c-10.63,1.59-21.9.42-32.57,2.86-10,2.28-16.43,10.83-27.28,9.82h-.46c-3.22.14-3.18,5.15,0,5.91v.09l.79,0a27.33,27.33,0,0,1,3.22.63c-1.77,3.42-3.36,7.17-6.68,8.62-2.29,1-1.77,5.12.72,5.49a640.66,640.66,0,0,0,90.53,6.56c17.74.11,35.57-.6,53.12-3.34a123.79,123.79,0,0,0,19.33-4.33c-9.7,7.15-20.94,12.58-31.94,17.21-28.27,11.89-62.34,21-93,14.31-15.27-3.36-28.11-12.08-34.65-26.55-1.6-3.52-6.77-.47-5.19,3,12.64,28,44.86,33.4,72.44,31,30.54-2.65,61.77-13.15,88-29,3.6-2.18,11.07-6.71,16.63-12.13a162.65,162.65,0,0,0,27.64.82c14.58-.76,29.85-3.54,42.52-11.12A3,3,0,0,0,1375.05,1188.27Zm-47.11-25.53a3,3,0,0,0,2.59-4.51l-.91-1.83c7.17,3.57,14.16,7.56,19.36,13.73a2.51,2.51,0,0,0,1.67,1,60.26,60.26,0,0,0,8.48,12.12c-26.55-7.7-54.12-12-81.73-11.49-4-1.8-7.85-3.72-11.67-5.81,1.68-.58,3.38-1.15,5.13-1.63a3,3,0,0,0,1.32-5,41.22,41.22,0,0,1-3.64-5.65C1288.43,1151.19,1308.08,1162.44,1327.94,1162.74Zm-22.42,26.65a2.5,2.5,0,0,1,.75,2.24,6.22,6.22,0,0,1-.63,2,32.4,32.4,0,0,1-5.77,3.51c-1.24-.21-2.48-.45-3.71-.7.62-.37,1.24-.74,1.87-1.08a3,3,0,0,0,.61-4.71,101.23,101.23,0,0,0-12.21-8.63C1292.75,1184.6,1299.14,1187,1305.52,1189.39Zm-71.18,18.35a638.9,638.9,0,0,1-96.56-5.43c1.86-2.92,3.06-6.39,5.4-9a2.89,2.89,0,0,0,.76-2.25c1-.36,1.89-.76,2.87-1.23,4.62-2.23,8.57-5.7,13.6-7.08,13.92-3.82,28.76-.4,42.58-5.2a3,3,0,0,0,0-5.79c-1-.36-1.94-.75-2.89-1.14,6.48-.67,13-1.12,19.2-3.22a18.05,18.05,0,0,0,5.23-2.61c1.56-1.17,6.7-.08,8.84-.08h16a3,3,0,0,0,.9,4.27c2.31,1.42,4.68,2.77,7.07,4.08l-2.25.25c-3.79.46-3.83,6.46,0,6q6-.72,12-1.1c8.33,4.32,16.66,8.67,24.11,14.28-1.49.94-3,1.89-4.52,2.73a3,3,0,0,0,.71,5.48l1.7.42c-1.44.41-2.84.78-4.15,1.11C1268.54,1206.39,1251.25,1207.33,1234.34,1207.74Zm97.4-8.79a148.76,148.76,0,0,1-21.52-.4,17.27,17.27,0,0,0,1.15-2.09,22.7,22.7,0,0,0,3.21-3.58c3.41,1.35,6.82,2.74,10.19,4.2,3.52,1.52,6.58-3.66,3-5.2s-6.93-2.91-10.42-4.29c.07-.2.16-.39.22-.59.76-2.24-1.58-4.22-3.69-3.69l-4.63,1.16c-5.73-2.18-11.48-4.32-17.17-6.56,25.26,1.08,50.3,6.1,74.44,13.85C1355.7,1196.6,1343.5,1198.33,1331.74,1199Z" transform="translate(-1019.91 -276.88)"/><path d="M1312.43,1218.59c-2.72-.48-8.36-1.56-10-4.13-2.09-3.25-7.28-.24-5.18,3,2.52,3.92,8.07,5.53,12.32,6.61a33.2,33.2,0,0,0,8.27,1,2.65,2.65,0,0,0,1.82.48,28.18,28.18,0,0,0,10-3c.49-.22,1-.46,1.47-.71a3,3,0,0,0,.71-.52c.87-.36,1.74-.73,2.6-1.13,1.74-.83,1.76-2.81.9-4.2.61-1.77-.06-4.34-2-4.34h-8.65c-3.19,0-3.88,3.74-1.57,5.41a6.38,6.38,0,0,0,1.34.71c-1,.34-1.9.67-2.86,1A28.56,28.56,0,0,1,1312.43,1218.59Z" transform="translate(-1019.91 -276.88)"/><path d="M1296.38,874.56c20.94-9.38,42.78-17.83,66.09-17.31a85.13,85.13,0,0,1,16.59,2.18c4.83,1.07,9.39,3.17,14.2,4.19,6.32,1.35,12.57,3,18.75,4.87,6.5,2,13.13,4.13,19,7.69,1.61,1,3.51,2.14,3.08,4.23-.52,2.47-3,4.33-5,5.67-5.5,3.8-12.23,5.82-18.64,7.43-5.34,1.34-11.65,2.83-17.2,2-3.78-.54-5.41,5.24-1.59,5.79,6.4.91,13.09-.37,19.34-1.79,7.58-1.71,15.42-4.34,21.86-8.79A22.83,22.83,0,0,0,1437,887c-1.36,12.17-1.78,24.48-2.55,36.7-1.14,18.11-2.52,36.24-5.06,54.22-2.36,16.7-5.52,33.83-12.18,49.41-4.67,10.92-12,22.58-24.52,25a17.27,17.27,0,0,1-1.9.22c-3.83.31-3.86,6.31,0,6,29.37-2.41,37.77-41.86,42.11-65,6.21-33.17,6.85-66.93,9.54-100.47.26-3.19.56-6.37,1-9.54.28-2.17-1.53-3.1-3.24-2.8a7.39,7.39,0,0,0-.49-3.88c-2.37-5.69-10-8.33-15.21-10.43a177,177,0,0,0-24.28-7.38c-7.8-1.9-15.4-4.55-23.26-6.14a3.1,3.1,0,0,0-.55-2.92c-8-10.16-10.66-23.62-13.34-36s-5.1-24.89-11-36.18c-1.79-3.43-7-.39-5.18,3,11.62,22.25,8.9,50.18,23.52,71-27.1-3-52.68,6.6-77,17.51C1289.83,871,1292.88,876.13,1296.38,874.56Z" transform="translate(-1019.91 -276.88)"/><path d="M1233.74,1010.12c.36-.78.79-1.54,1.21-2.3,1-1.78,2-3.52,3-5.33,1.75-3.44-3.42-6.48-5.18-3s-5,7.34-5.37,11.43c-.31,3.86,5.7,3.83,6,0C1233.31,1011.59,1233.63,1010.34,1233.74,1010.12Z" transform="translate(-1019.91 -276.88)"/><path d="M1262.26,1013c2.74-2.73-1.51-7-4.25-4.24-.88.89-2.12,2.07-3.32,3.41a64.81,64.81,0,0,0-1.59-7c-.93-3.76-6.72-2.16-5.78,1.59.28,1.11.54,2.22.79,3.34.18.83.36,1.67.53,2.52l.18,1c0-.09,0,.46,0,.57a2.87,2.87,0,0,0,2.48,2.85c-1,2.35-.72,4.66,2.31,6.36,3.2,1.79,6.07-2.76,3.5-4.85.17-.26.38-.53.52-.71A59.73,59.73,0,0,1,1262.26,1013Z" transform="translate(-1019.91 -276.88)"/><path d="M1267,1021.46l.21-.2c2.66-2.8-1.57-7.07-4.24-4.27-2.36,2.48-2.54,5.69-2.54,8.69,0,4,6,4,6,0,0,0,0-1.1,0-1.67l0-.72s.06-.5.07-.63a5.55,5.55,0,0,0,.16-.66c.06-.13.13-.25.2-.37Z" transform="translate(-1019.91 -276.88)"/><path d="M1278.29,1028.68v-5c0-3-6-3-6,0v5C1272.29,1032.68,1278.29,1032.68,1278.29,1028.68Z" transform="translate(-1019.91 -276.88)"/><path d="M1292.28,1043.83c1.61,3.51,6.78.46,5.18-3-1.79-3.89-.87-8.76-3.78-12.18-2.51-2.95-6.73,1.31-4.24,4.24.59.7.82,3.53,1,4.74A24.87,24.87,0,0,0,1292.28,1043.83Z" transform="translate(-1019.91 -276.88)"/><path d="M1309.28,926c-2.36,2.48-2.53,5.67-2.53,8.67,0,4,6,4,6,0,0,0,0-1.08,0-1.65l0-.72s.06-.48.06-.62a5.8,5.8,0,0,0,.17-.66,3.24,3.24,0,0,1,.2-.36,1.2,1.2,0,0,0,.1-.19,2,2,0,0,0,.21-.19C1316.19,927.49,1312,923.21,1309.28,926Z" transform="translate(-1019.91 -276.88)"/><path d="M1315.9,937.66a11,11,0,0,0-2.13,3.75,10.86,10.86,0,0,1-1.18,2.86c-2.6,2.85,1.63,7.11,4.24,4.24a10.74,10.74,0,0,0,2.13-3.75,11.36,11.36,0,0,1,1.18-2.86C1322.74,939.05,1318.51,934.79,1315.9,937.66Z" transform="translate(-1019.91 -276.88)"/><path d="M1316.67,961.28c-.09,4.39-1.8,8.33-3.2,12.43-1.25,3.68,4.55,5.24,5.79,1.6,1.58-4.66,3.3-9,3.41-14C1322.76,957.41,1316.76,957.42,1316.67,961.28Z" transform="translate(-1019.91 -276.88)"/><path d="M1331.29,974.51V971.2a3,3,0,1,0-6,0v3.31a3,3,0,1,0,6,0Z" transform="translate(-1019.91 -276.88)"/><path d="M1338.33,972.39a3,3,0,0,0-4.24,4.24,1.82,1.82,0,0,0,.26.25,1.57,1.57,0,0,0,.15.25,1.59,1.59,0,0,0,.15.27l.12.39c0,.16,0,.24,0,.26l0,.32c0,.37,0,.73,0,1.1,0,2.88,3.32,3.61,5,2.21a2.93,2.93,0,0,0,.82,1.57,3,3,0,0,0,4.24,0,9.63,9.63,0,0,0,2.53-7.09c0-3.87-6-3.87-6,0,0,.28,0,.55,0,.83,0,.09,0,.55-.07.72s-.29.86-.13.52a2.28,2.28,0,0,1-.42.63A9.39,9.39,0,0,0,1338.33,972.39Z" transform="translate(-1019.91 -276.88)"/><path d="M1353.94,984.9a3,3,0,0,0,4.24,0c2-2,4-4.11,4.19-7.08a3,3,0,0,0-6,0h0c0-.57-.12.13,0,0-.08.14-.15.29-.24.42-.21.29-.25.36-.12.22a25.4,25.4,0,0,1-2.06,2.21A3,3,0,0,0,1353.94,984.9Zm2.43-7.11v0Z" transform="translate(-1019.91 -276.88)"/><path d="M1087.2,1047.42a3,3,0,0,0,.47,3.63c5.34,5.93,13.09,7.24,20.67,6.79-1.79,1-2.53,3.91-.22,5.26,20,11.68,32.64,31.94,46.12,50.07,10.71,14.41,24.37,32.35,43,36.32,15.52,3.31,32.61-2.2,46.73-8.28a162,162,0,0,0,47.6-31.09c10.49-10,21.42-23.76,21.45-38.9a77.66,77.66,0,0,0,9.54,3.93c10.27,3.27,21.52,1.26,30.63-4.26,16.15-9.78,21.89-29.53,24.78-47,3.15-19.06,2.65-38.76,7.2-57.57,4.74-19.55,17-47.26-2.59-62.52-8-6.23-18.71-8-28.55-9-11.08-1.13-22.34-.68-33.43.23a113.52,113.52,0,0,0-31.49,7.12c-3.57,1.38-2,7.18,1.59,5.78,11.88-4.6,24.46-6.66,37.12-7.41,11.6-.68,23.45-.65,34.89,1.54,11.16,2.14,21.84,7.52,24.32,19.54,2.41,11.68-3.14,25-6,36.15-4.88,19.09-5.51,38.58-7.93,58-2.29,18.42-6.78,40.11-23.89,50.48-21.08,12.77-38.78-7-59.42-9.2-24.13-2.53-48.36,15.06-71.74,2.57-13.73-7.33-8.51-24.62-4.57-36.27,4.86-14.36,12.27-28.55,13.25-43.91.25-3.86-5.75-3.84-6,0-1.07,16.71-10.17,32.28-14.88,48.1-4.08,13.7-4.74,29.19,9.17,37.26,13.67,7.93,28.08,5.65,42.57,2.57a3,3,0,0,0,2.68,4.38s3.59,0,8.57.08a61.65,61.65,0,0,0,12.8,2c6.76,4.53,14.88,6.06,23.13,6.15a3,3,0,0,0,1-.18c-3.28,10.42-12,19.84-19.26,26.75a153.28,153.28,0,0,1-49,30.81c-13.71,5.4-31.73,10.75-45.81,3.8-19.59-9.65-31.83-30.69-44.39-47.6-10.15-13.67-21.26-27-36.15-35.71a3.6,3.6,0,0,0-.57-.26c1.25-.13,2.49-.3,3.7-.49,13.32-2.17,26.1-8.32,37.87-14.68a259,259,0,0,0,37.15-24.65c8.64-6.81,17.72-14.34,23.81-23.62,2.13-3.25-3.07-6.25-5.18-3-5.25,8-13.12,14.47-20.45,20.47a253.91,253.91,0,0,1-34.36,23.43c-11.34,6.49-23.35,12.27-36.09,15.4-7.46,1.83-17,3-23.41-2.09,13.17-21.81,27.2-43.06,45.31-61.05,5.25,5,13.8,7.66,20.43,7.77,14.83.26,29.23-8.38,41-16.51,13.37-9.26,25.45-20.32,37-31.69,25.38-24.92,56-58.73,50.46-97.25-.32-2.24-3.61-2.85-5-1.32-13.37,14.67-32.49,23-50.63,30.52a8.9,8.9,0,0,0-.59-2.73,3.07,3.07,0,0,0-3.69-2.1c-14.22,3.13-26.39,12.16-37.16,22.05.39-1.16.78-2.32,1.16-3.47.78-2.34-2.29-5-4.41-3.39a81.92,81.92,0,0,0-13.5,12.93c-.07-.69-.14-1.38-.17-2.07a3.07,3.07,0,0,0-.7-1.86c2.81-9.94,5.22-20,7.52-30,5.07-22,9.57-44.13,14.58-66.15-.25,3.58-.1,7.35-.31,10.66-.4,6.27-.9,12.53-1.6,18.77-1.38,12.18-3.69,25.06-10.2,35.64-2,3.31,3.16,6.32,5.18,3,12.78-20.79,11.76-48,13.55-71.49,0-.48,1.62-1.69,2.07-2.27a42.29,42.29,0,0,0,2.71-4,29.33,29.33,0,0,0,3.22-8.73c1.36-6.12.81-12.55,1-18.76.41-14.09,12-24.59,12.61-38.52.11-2.39-2.59-3.57-4.51-2.59s-3.59,1.94-5.33,3c0-1.77,0-3.55-.08-5.35-.08-1.5-1.31-3.17-3-3-21.8,2.18-31.25,22.89-44.92,37.15a20.52,20.52,0,0,1-1.7-6c-.23-3.34-4.87-4.14-5.89-.8-4.21,13.86-9.76,28.17-19,39.55a2.58,2.58,0,0,0-3.86,1.08c-3.42,6.84-6.85,13.68-10,20.65a21.23,21.23,0,0,1-.94-4.25c-.27-2.77-4-4.36-5.59-1.52-5.1,9.38-6.42,19.5-7.66,29.8a44.87,44.87,0,0,1-5-9.23c-.92-2.47-5.25-3.23-5.78,0-8.16,49.78-4.38,100,16.84,146.25,1,2.13,3.25,1.86,4.54.54l.12.34a3.05,3.05,0,0,0,4.4,1.79c3.62-1.71,7.2-3,10.38-5.37a30,30,0,0,0-1.7,4.49,13.51,13.51,0,0,0,.62,9.55C1116,1001.5,1101.14,1024.22,1087.2,1047.42Zm195.34-190.31c.73,24.18-14.89,47.39-29.81,65-11.81,14-25.51,26.89-39.38,38.77-14.13,12.11-31.87,26.27-51.12,28.08-6.7.63-14-1.18-19-5.84,2.3-2.26-.42-5.59-3-4.89-.56-3.67,1.73-7.74,3.71-10.65,5.86-8.61,15-15.33,23.21-21.45,8.94-6.63,18.31-12.66,27.55-18.86a356,356,0,0,0,30-22.94c13.24-11.11,27.24-23.86,44.54-27.86,3.77-.87,2.17-6.66-1.59-5.79a63.48,63.48,0,0,0-10.59,3.5C1266.25,869.54,1275,864.07,1282.54,857.11Zm-99.87,44.28-1.5,4.52c-1,2.92,2.95,5,5,2.91,11.36-11.3,24.26-23.48,40-28.13-.09.6-.24,1.23-.35,2.06-.27,1.94,1.3,4.69,3.69,3.69,7-2.91,14.14-5.85,21.17-9.13-17.37,9.42-31.87,25.18-47.41,36.58-12.51,9.19-25.74,17.33-38.28,26.47-4.17,3-8.91,6.4-13.43,10.16a142.74,142.74,0,0,0,10.36-20c2.4-5.57,4.54-11.26,6.49-17a3.21,3.21,0,0,0,5-.33A68,68,0,0,1,1182.67,901.39Zm-7-38.34c-2.92,13.11-6.08,26.28-10,39.19-14.28,20-33.46,38.7-39.09,63.2a3,3,0,0,0,0,1.52l-.23.1c-5.15-18.44-2.59-38.65.93-57.13,4.29-22.57,11.28-44.61,18.79-66.3,13.09-37.8,27.81-79.84,60.34-104.79-2.86,17.47-10.32,34.2-14.62,51.36C1185.79,814.35,1181.07,838.76,1175.68,863.05Zm28.85-84.19a27.53,27.53,0,0,1-2.38,9.22c-1.13,2.49-3.8,4.56-5.27,6.87.25-1.05.49-2.1.74-3.15,1.9-8.06,4.53-16,7.1-23.86C1204.69,771.58,1204.79,775.23,1204.53,778.86Zm11.83-46.72a68.74,68.74,0,0,1-4.44,9.9c.5-2.62.91-5.24,1.2-7.89Q1214.71,733.12,1216.36,732.14ZM1104.63,835.27c1.82,2.9,3.82,5.73,5.72,8.56,1.27,1.88,5.1,2,5.48-.78,1.3-9.52,1.79-19.26,4.82-28.33a19.68,19.68,0,0,1,.87,4.33c.24,3.53,4.63,3.9,5.89.8,2.84-7,6.12-13.75,9.47-20.48,11.62-10.62,18.8-25.2,24-40a12.54,12.54,0,0,1,.34,1.81,3,3,0,0,0,5.12,2.13c13.26-11.92,22.38-34.43,41.28-38.36q0,3-.2,5.88c-16.85,11.8-30.08,28.56-40.41,46.19-11.19,19.09-18,40.43-25.34,61.21-7.92,22.5-15.16,45.32-19.86,68.73-3.47,17.31-5.91,35.9-3,53.55C1102.41,920.68,1098.9,877.76,1104.63,835.27Zm28.8,127.79c4.84-16.2,15.72-29.92,26.4-43.39-.54,1.45-1.09,2.9-1.66,4.34a137,137,0,0,1-13.92,26.78,71.13,71.13,0,0,1-9.06,10.76A18.8,18.8,0,0,1,1133.43,963.06Z" transform="translate(-1019.91 -276.88)"/><path d="M1291.87,757.86c.14,6.68,3.25,13.67,5.48,19.84,3.81,10.55,8.15,20.92,12.72,31.16a301.93,301.93,0,0,0,14.3,28.7c2.41,4.16,6.24,12.2,11.84,12.6,3.87.28,3.84-5.72,0-6,1,.07.32.05-.26-.49a19.23,19.23,0,0,1-2.33-2.76,91.45,91.45,0,0,1-5.68-9.21c-4.86-8.7-9.08-17.76-13.13-26.86-4.21-9.44-8.13-19-11.68-28.73-1.63-4.49-4-9.85-4.89-14.8a154,154,0,0,0,46-.9c15.49-2.7,30.37-6.71,46.13-7.47,13.5-.66,27.12-1.07,40.38-4,8.39-1.84,17.38-5.25,23.17-11.76a2.81,2.81,0,0,0,.08,1.61c7.57,22.28,22.16,44.83,21.47,69.07-.68,23.66-24.77,47.07-48.49,35-3.44-1.75-6.48,3.43-3,5.18,24.83,12.6,50.32-6.56,56.34-31.31,3.15-13-.36-26.5-4.56-38.81-4.7-13.83-11.26-26.94-16-40.77a3.11,3.11,0,0,0-4.53-1.65,23.63,23.63,0,0,0,2.57-4.3,3.08,3.08,0,0,0-1.08-4.11c-13-7.73-26.78-13.37-41.83-15.17-13-1.56-26.2.75-38.59,4.73-27.76,8.9-52.65,24.84-80.66,33.29a3.06,3.06,0,0,0-1.31,5A2.81,2.81,0,0,0,1291.87,757.86Zm119-40.22c14.37.69,28,6.14,40.35,13.21-5.4,8.27-16.06,11.21-25.38,13-12.35,2.4-25.07,2.54-37.59,3.17-14.08.71-27.5,4.08-41.3,6.79a149.1,149.1,0,0,1-48.32,1.54c26.21-8.15,49.81-22.28,75.55-31.58C1386,719.51,1398.28,717,1410.88,717.64Z" transform="translate(-1019.91 -276.88)"/><path d="M1241.48,752.43c-4.4,4.81-5.32,11.72-8.74,17.14-1.14,1.81.09,3.7,1.79,4.41,7.5,3.13,17.15,2.53,23.22-3.28,7.1-6.78.53-15-6-18.74-3.37-1.92-6.39,3.26-3,5.18,3.72,2.12,9,6.32,3.93,10.11-3.7,2.8-8.59,3.1-13,2.06,1.87-4.33,3-9.26,6.11-12.64C1248.32,753.82,1244.09,749.56,1241.48,752.43Z" transform="translate(-1019.91 -276.88)"/><path d="M1122.43,759.3c2.76-2.66,4.09-6.77,6.33-9.85s-2.93-6.13-5.18-3a42,42,0,0,0-2.3,3.64,3.21,3.21,0,0,0-1.58.24c-1.49.65-3.44,0-5,.6-2.69,1-3.88,3.55-4.61,6.16a3.06,3.06,0,0,0,2.1,3.69C1115.82,762.12,1119.48,762.14,1122.43,759.3Z" transform="translate(-1019.91 -276.88)"/><path d="M1195.77,692.42c-1.8,1.11-4.21,2.79-4.14,5.22s1.75,3.54,3.74,4.29c3.59,1.35,7.92,1,11.92,1s4-6,0-6c-2.74,0-5.08,0-7.53-.27C1201.32,694.37,1198.66,690.64,1195.77,692.42Z" transform="translate(-1019.91 -276.88)"/><path d="M1266,695.42c-3.17.92-6.29-1-9,1.52-3,2.83-.25,8.21,1.61,11.06,4.82,7.37,11.69.19,15.27-4.25,2.41-3-1.81-7.26-4.24-4.25l-.36.46C1270.46,698,1268.87,694.58,1266,695.42Zm-1.93,9.74s-.24-.14-.55-.62a12.37,12.37,0,0,1-1.33-2.88l.45.06a12.65,12.65,0,0,0,5-.51,3,3,0,0,0,1.36-.82C1267.59,702.13,1265.92,704.43,1264,705.16Z" transform="translate(-1019.91 -276.88)"/><path d="M1356.93,1105.67c-2.89,1-2.67,6,.85,5.8,2.5-.13,3.73-1.76,4.64-3.73a17.44,17.44,0,0,0,3.58.42,3,3,0,0,0,2.11-5.12c-1.88-1.83-4.86-3.84-7.38-2.88a.94.94,0,0,0,0-.09c-.2-3.73-5.9-3.69-5.85.13,0,2.15.44,3.79,2.44,5h0C1357.29,1105.37,1357,1105.52,1356.93,1105.67Zm-.25.22h0l0,0Zm.52-.34.19,0h0Z" transform="translate(-1019.91 -276.88)"/><path d="M1397.05,1091.23c-.55-3.15-5.8-2.9-6,.7-.08,1.9-1,3.69-1.08,5.61-.16,3,1.94,5.28,4.22,6.91a3,3,0,0,0,3.63-.47,11.88,11.88,0,0,0,2.87-4.63c.44-1.39.29-2.9.91-4.25C1403.09,1092,1399.05,1089.19,1397.05,1091.23Z" transform="translate(-1019.91 -276.88)"/><path d="M1452.29,857.09c0,.6,0,1.21,0,1.82,0,.23,0,.46,0,.69s0,.21,0,.27.11.13.09.24a2.94,2.94,0,0,0,0,.59h-.17c-3.86.15-3.94,6.15-.07,6a5.81,5.81,0,0,0,5.3-3.15c1-2,1-4.29,1-6.46C1458.31,853.22,1452.29,853.22,1452.29,857.09Z" transform="translate(-1019.91 -276.88)"/><path d="M1243.18,583.35c4.23-20.9.52-43.66-5.56-63.82-4.37-14.49-11.22-30.93-22.55-42.06,0-1.36,0-2.72.1-4.07.16-3.58-4.94-3.83-5.85-.81a44.44,44.44,0,0,0-5.56-3.44c-3.43-1.77-6.46,3.4-3,5.18a41.6,41.6,0,0,1,8.34,5.77c.25,16.82,4.07,33.69,8.47,49.79a300.53,300.53,0,0,0,20.15,54.18C1238.83,586.34,1242.68,585.84,1243.18,583.35Zm-27.81-96.58c8.18,10.31,13.26,23.74,16.84,35.59,4.7,15.58,7.88,33.13,6.52,49.76a318.2,318.2,0,0,1-15-42.34C1219.81,515.87,1216.38,501.34,1215.37,486.77Z" transform="translate(-1019.91 -276.88)"/><path d="M1187.23,479.08c-9-6.78-18.84-6.78-27.84,0-1.73,1.3-2.13,4,0,5.18,8.51,4.87,17.4,6.95,27.12,5.26a3,3,0,0,0,2.2-2.89,8.75,8.75,0,0,0-.75-3.19A3.24,3.24,0,0,0,1187.23,479.08Zm-20.09,2.41a14.53,14.53,0,0,1,8.87-1.18,2.56,2.56,0,0,0,1,1.82,32.62,32.62,0,0,0,3.38,2A32.14,32.14,0,0,1,1167.14,481.49Z" transform="translate(-1019.91 -276.88)"/><path d="M1170.83,517.68h18.46a2.81,2.81,0,0,0,2.68-1.61h2c3.87,0,3.87-6,0-6-8,0-16.09-.07-24,1.73C1166.68,512.58,1167.49,517.68,1170.83,517.68Z" transform="translate(-1019.91 -276.88)"/><path d="M1174.14,545.86c5.31-.15,10.66-1.76,15.68-3.42,3.65-1.21,2.09-7-1.6-5.78-1.36.45-2.76.9-4.18,1.33a33.42,33.42,0,0,1,9.08-3.82c3.74-1,2.16-6.77-1.59-5.78A35.56,35.56,0,0,0,1172,540.74C1170.52,542.64,1171.25,545.94,1174.14,545.86Z" transform="translate(-1019.91 -276.88)"/><path d="M1192.33,567.36a15.7,15.7,0,0,0,8-2,20.82,20.82,0,0,0,4.08-3.82c2.3-2.38-.47-5.82-3-5,.43-.55.87-1.08,1.35-1.59,2.67-2.8-1.57-7-4.24-4.24-3.32,3.48-5,8.12-8.27,11.58A3,3,0,0,0,1192.33,567.36Z" transform="translate(-1019.91 -276.88)"/><path d="M1212.48,575.94c0,.34,0,.69,0,1a.66.66,0,0,0,0,.14,2.37,2.37,0,0,0-.05.26c-.11.66-.21,1.32-.29,2a4.07,4.07,0,0,0,2,3.87,4.65,4.65,0,0,0,5.53-.55,8.1,8.1,0,0,1,1.87-1,12,12,0,0,0,2.74-1.95c2.83-2.64-1.42-6.88-4.24-4.24a7.37,7.37,0,0,1-1.53,1c0-.18,0-.36,0-.54C1218.55,572.06,1212.55,572.07,1212.48,575.94Z" transform="translate(-1019.91 -276.88)"/><path d="M1255.31,444.34c-8.66,3.67-15.3,10.24-20.92,17.62-2.35,3.08,2.87,6.06,5.18,3a50.37,50.37,0,0,1,14.27-13.16c-.93,4.09-4.5,6.14-8.45,9.05-3.08,2.27-.09,7.48,3,5.18s7-4.45,9.37-7.78c2.58-3.68,2.54-7.86,1.93-12.14C1259.42,444,1256.88,443.68,1255.31,444.34Z" transform="translate(-1019.91 -276.88)"/><path d="M1269.2,482.08c-8.68-3.19-17.18-.22-21.58,8-1.67,3.12,2.52,5.91,4.64,3.75a3.19,3.19,0,0,0,4.43,3.67c6-2.94,11-4.77,14.31-11A3.06,3.06,0,0,0,1269.2,482.08Zm-15.54,10.23a3.79,3.79,0,0,0-.63.4c2.43-4.26,6-6.13,10.22-5.82C1260.65,489.39,1257.31,490.53,1253.66,492.31Z" transform="translate(-1019.91 -276.88)"/><path d="M1262.54,526.63a4.38,4.38,0,0,1,.79-.32c.82-.29,1.64-.56,2.44-.89a9.85,9.85,0,0,0,5.23-4.2,3,3,0,0,0-1.08-4.11,21.86,21.86,0,0,0-6.13-1.57c-.31,0-.63-.11-1-.15a2.85,2.85,0,0,0-3.5-1.89c-1.67.44-3.59,1.06-4.1,2.93-.61,2.21,1.15,3.74,3.08,4.23a20.47,20.47,0,0,0,2.07.41,8.81,8.81,0,0,0-2.38,1.47c-2.87,2.6,1.38,6.83,4.25,4.25C1261.78,527.22,1262.44,526.69,1262.54,526.63Z" transform="translate(-1019.91 -276.88)"/><path d="M1257,548.76c1.75.87,3.51,1.7,5.3,2.49a3.18,3.18,0,0,0,2.83,2.88c1,.1,2.67,1.41,4.14,1.46,2.54.1,3.67-2.33,3.82-4.46a3,3,0,0,0-2.2-2.89,86.78,86.78,0,0,1-10.86-4.66C1256.55,541.85,1253.51,547,1257,548.76Z" transform="translate(-1019.91 -276.88)"/><path d="M1318,479.7c2.41,0,5.21-2.6,6.94-4.08,4.3-3.67,6.39-9.28,7.53-14.66.8-3.77-5-5.38-5.79-1.59-1.29,6.13-3.74,10.88-9,14.07a5.64,5.64,0,0,1-1.17-.83,56.41,56.41,0,0,1,5.73-10.93c2.14-3.24-3.06-6.24-5.18-3a60.66,60.66,0,0,0-6.91,14,3,3,0,0,0,.77,2.92C1312.85,477.41,1315.11,479.7,1318,479.7Z" transform="translate(-1019.91 -276.88)"/><path d="M1369.15,469.37a17.63,17.63,0,0,0,5.28-5.39c1-1.75,1.53-3.78,2.41-5.61,1.67-3.47-3.51-6.51-5.18-3-.35.74-.66,1.46-1,2.17a3.18,3.18,0,0,0-4.41,2.66,15.76,15.76,0,0,1-.9,2.34,13.23,13.23,0,0,0-.75,4.27C1364.56,468.94,1367.29,470.67,1369.15,469.37Z" transform="translate(-1019.91 -276.88)"/><path d="M1376.32,489.14c-1.75,5.08-4.8,10.22-5.07,15.68a3,3,0,0,0,5.12,2.12c2.92-3.17,3.68-6.74,5.43-10.53a3.08,3.08,0,0,0-.55-3.47c.31-.74.61-1.48.86-2.21C1383.37,487.06,1377.57,485.5,1376.32,489.14Z" transform="translate(-1019.91 -276.88)"/><path d="M1335.36,506.06a13.77,13.77,0,0,0,7.28-4.19c1.81-2.14,2.91-4.78,4.43-7.11,2.12-3.25-3.07-6.26-5.18-3l-.56.91a2.8,2.8,0,0,0-4.4.74c-.74,1.36-2,2.21-3,3.33a9.52,9.52,0,0,0-2.35,6.46A3,3,0,0,0,1335.36,506.06Z" transform="translate(-1019.91 -276.88)"/><path d="M1364.19,542.14c3.76-2,6-5.76,8.87-8.74,2.71-2.76-1.53-7-4.24-4.24-.41.43-.82.89-1.21,1.35a2.61,2.61,0,0,0-3.75.3,10.88,10.88,0,0,0-2,3.55c-.38,1-.54,2.27-1.26,3.07A3,3,0,0,0,1364.19,542.14Z" transform="translate(-1019.91 -276.88)"/><path d="M1335.75,540.74l-.48.44c-1.18-1.53-3.76-2-5,.16a2.63,2.63,0,0,1-.57.79c.37-.36-.33.2-.46.28a5.08,5.08,0,0,0-1.94,1.65c-1.37,2.22.25,4.32,1.78,5.88a3.06,3.06,0,0,0,3.63.47A28.87,28.87,0,0,0,1340,545C1342.73,542.24,1338.48,538,1335.75,540.74Z" transform="translate(-1019.91 -276.88)"/><path d="M1314.71,558.56a2.88,2.88,0,0,0-1.65-.51,3,3,0,0,0-3,3,4.14,4.14,0,0,0,3.83,4.23c1.74.18,3.42-1,4.6-2.11a3,3,0,0,0-3.78-4.61Z" transform="translate(-1019.91 -276.88)"/><path d="M1436.38,529.49c25.48-48.79,68-86.2,110.34-120.12,3-2.42-1.26-6.64-4.24-4.25-42.75,34.24-85.57,72.11-111.28,121.34C1429.41,529.89,1434.59,532.92,1436.38,529.49Z" transform="translate(-1019.91 -276.88)"/><path d="M1619.82,525.08a139.55,139.55,0,0,1-22.19-7.22c.36-2.17.34-4.39-1.9-5.71-3.47-2-9.49-2.2-13.4-3-8.78-1.75-17.36-3.53-26-6.9,2.86-2.93,5-6.67,2.81-10.48-2-3.49-5.61-5.11-9.46-5.87a6.44,6.44,0,0,0,1.18-4.62c-.49-3.47-4.44-4.79-7.39-5.33-5.8-1.08-13.75-1.35-20.06.27a3.42,3.42,0,0,0-.86-.65,72.13,72.13,0,0,0,6.44-7.3c1.47-2-.57-4.37-2.59-4.52-3.17-.23-6.16-1.35-9.23-2.23,18.6-21.27,38.48-41.37,57.65-62.11a3,3,0,0,0-1.32-5c-28.32-8-59.11-2.36-85.21,10.22C1463,416.87,1440,438.14,1432.55,466c-1,3.74,4.79,5.32,5.79,1.59,7.11-26.59,29.06-45.92,53-57.74,23-11.35,50.48-16.48,75.73-10.85-19.3,20.71-39.19,40.89-57.66,62.36a3,3,0,0,0,2.12,5.13c3.26.16,6.32,1.3,9.43,2.2-5,5.41-11.28,10.08-14.3,16.83-1.91,4.27-.83,7.55,1.61,10l-.51.55c-1.71,1.75-.46,4.59,1.46,5.13-6.72,3.43-13.93,6-20.7,9.28-2.25,1.1-1.75,3.76-.13,5-10.36,4.12-21.29,7.1-31.73,10.47-4,1.27-8.09,2.56-12.24,4-.23,0-.47,0-.7,0a2.92,2.92,0,0,0-2,.92c-9.74,3.48-19.33,7.86-26.54,14.84-2.78,2.69,1.46,6.93,4.24,4.24,6.88-6.66,16.19-10.79,25.68-14.06,22-1,46.37,3.23,64,17.16,13.74,10.82,25.62,33.79,13.1,49.64-10.61,13.44-30.5,18.24-46.39,21.61-26,5.52-53,7.59-79.5,8.64-17.39.69-34.78.71-52.16.42,7.68-4.58,16.2-8,24.43-11.23a333.11,333.11,0,0,1,43.73-13.79c5.28-1.28,10.64-2.45,16-3.37,1.82.16,3.63.31,5.45.44a2.51,2.51,0,0,0,2.67-1.63,120.3,120.3,0,0,1,18.48-.89c8.73.31,20.94,2.16,23.92,11.89,1.13,3.69,6.92,2.12,5.78-1.59-3.13-10.26-13.23-14.39-23.07-15.72-11-1.48-22.35-.43-33.4,1.47-28.77-2.79-58.2-11.58-86.92-5.77-23.07,4.67-38.67,21.49-53.47,38.54,0,0,0,.07-.07.1-16.87-.52-33.74-1-50.62-1-4.66-9.56-8.55-19.92-15-28.28-5.25-6.84-12.6-10-20.57-11.48a.08.08,0,0,0,0,0c-1-2-3.11-1.85-4.42-.65-1.27-.16-2.55-.29-3.84-.4-15.6-1.34-33.33-.32-48.27,4.69s-24.21,16.84-28.33,31.81a2.9,2.9,0,0,0-.07,1.36c-20.84-3.37-44.23-10.47-54.48-29.29-11.06-20.3,9.73-42.45,26.83-50.67,9-4.33,19.27-5.34,29.08-6.36,9.25-1,18.41-2.15,27.35-4.69a146,146,0,0,0,19.55,39c2.2,3.14,7.4.15,5.18-3a141.88,141.88,0,0,1-19.57-40,3.53,3.53,0,0,0-.46-1.56c-6.1-21.38-6.29-44.13,3.49-64.7a65.48,65.48,0,0,1,12-17.37,2.64,2.64,0,0,0,3.44.37c12-7.36,25.39-12.83,36.31-21.75a104.32,104.32,0,0,1,17.47-2.4,2.9,2.9,0,0,0,1.08,1,18.81,18.81,0,0,0,18.51-.31c3.35.41,6.66,1,9.91,1.66,39.29,8.47,47.84,61.24,46,94.7-.95,17.61-5.67,35.36-11.5,51.92-.65,1.84-1.34,3.73-2,5.62-2.74-1.6-6.22,2.22-3.62,4.71.42.41.85.8,1.29,1.18-5.42,13.06-12.83,26.24-24.09,34.11a27,27,0,0,1-6.7,3.42c-2.75,1-8.48,2-10.91,0-3-2.36-7.29,1.86-4.25,4.24,6.38,5,16.25,2.44,22.72-1.17,6.75-3.76,12-9.87,16.45-16.06a116.65,116.65,0,0,0,11.76-21c15.41,9.3,35.67,5.37,52.14-.24,20.21-6.89,39.91-17.39,56.1-31.34,15.71-13.54,26.43-31.64,29.38-52.25s-.77-43.66-11.45-61.67a52,52,0,0,0-7-9.27,3.49,3.49,0,0,0,2-2.37l1.7.42a26,26,0,0,0,3.7.63c2.09.19,3.22-2,2.9-3.8a33.35,33.35,0,0,0-13.61-21.49c2.25-3.91,3.14-8.41,5-12.58,1.17-2.57-1.32-5.81-4.1-4.11-7.83,4.79-15.56,10.63-19.91,18.86a71.18,71.18,0,0,0-12.07-2.18h0c-5.86-15.71.39-33.56,9.4-47.27.54,1.12,1.13,2.21,1.66,3.28a3,3,0,0,0,4.71.68c5.57-5.48,11.62-10.59,17.31-15.78a21.12,21.12,0,0,0,1.6,2.55,3,3,0,0,0,3.64.43c26.06-17.84,33.65-56.52,64.36-68.22,7.89,26.44,3.93,55.86-3.46,81.91-7.22,25.49-19.39,52.2-39.07,70.66-1.75-10.26-.59-21,1.06-31.15,2.08-12.89,5.52-25.55,9.08-38.1a97.36,97.36,0,0,1,5.63-16.17,176.48,176.48,0,0,1,10.36-17.4c6.68-10.44,13.4-21.19,14.71-33.77.41-3.85-5.6-3.81-6,0-1.4,13.42-10.28,25-17.28,36.06-6.83,10.79-10.91,21.49-14.34,33.7-6.39,22.78-14.33,49.65-8,73.26a3,3,0,0,0,5,1.33c22.54-18.89,36-47.85,44.2-75.49,8.41-28.25,12.47-61,2.88-89.51A3,3,0,0,0,1476,277c-16,5.05-27.13,17.27-36.65,30.56-9.15,12.78-16.95,27.85-29.65,37.58a28.5,28.5,0,0,0-1.9-2.87c-1-1.29-3.17-1-4.24,0-5.42,5.33-11.29,10.16-16.85,15.34a14.76,14.76,0,0,1-1.29-4.09c-.4-2.93-4.15-2.47-5.48-.72-11.27,14.8-20,36.27-14.21,54.92a181.32,181.32,0,0,0-24.55,1.47,3,3,0,0,0-1.51,5.59c3,2.21,6.07,4.3,9.2,6.31a151.52,151.52,0,0,0-35.49,9.89c-9.38,4-19.51,10.45-22.72,20.68-8.61-16.2-23.19-27.94-41.67-30.63l-.39-.05a23.11,23.11,0,0,0,4.51-8,3,3,0,0,0-2.89-3.8c-2.88-.09-5.74-.44-8.59-.59l.79-.9a3,3,0,0,0-2.92-5c-3.7.69-7.51,1.11-11.24,1.76a31.55,31.55,0,0,0,5-11.3c.48-2.13-1.41-4.56-3.69-3.83-12.12,3.86-20.66,14.31-27.26,24.93-6-12.21-6.23-26.57-17.78-35.74-1.93-1.53-5.16-.66-5.12,2.19.16,12.43,3.32,26.16,10.91,36.38a39,39,0,0,0-19.35,5.75,3.1,3.1,0,0,0,.1,5.24c-7.61,2.3-15.13,4.74-21.6,9.65-2,1.52-2,4.68.71,5.48a46.73,46.73,0,0,0,11.45,1.67c-15,16.06-22.49,38.32-21.68,61.45A112.19,112.19,0,0,0,1143.7,531c-20.81,5.75-43.57,3.16-62.76,14.28-17.7,10.25-34.54,33.25-25,54.2,9.69,21.24,35.34,29.43,56.42,33.5,27.43,5.29,55.72,5,83.52,4.42q18.82-.39,37.59-.45c.29.57.59,1.14.9,1.7,1.61,3,5.71,1.06,5.57-1.71,13.84,0,27.69.22,41.58.68,31.87,1,63.73,2.25,95.62,1.82a622.85,622.85,0,0,0,87.56-7c17.33-2.7,35.49-6.65,50.59-16,8.35-5.15,15.36-12.69,17.57-22.46,2.77-12.24-2.94-25.69-10.08-35.37a59.29,59.29,0,0,0-16-14.72,240.8,240.8,0,0,0,44.81,8.78c23.13,2.31,60.33,2.6,70.29-23.87A3,3,0,0,0,1619.82,525.08ZM1385,416.75a3,3,0,0,0,3.39-1.38c2.5-5.71,6.67-10.12,11.49-13.83a17.36,17.36,0,0,1-3,5.24,3.05,3.05,0,0,0,.6,4.71,27.85,27.85,0,0,1,12.25,14.89c-2.74-.76-5.68-1.33-7.4.76a6.37,6.37,0,0,0-1.31,2.61,50.67,50.67,0,0,0-14.43-7.84c-9.28-3.24-19-3.18-28.58-2.1-2.89-1.78-5.76-3.59-8.58-5.46C1361.44,413.27,1373.33,413.07,1385,416.75Zm-88.93,37.6c2.14-8.27,10-13.15,17.18-16.73,9-4.49,19-7.09,28.79-9.17,4.72-1,9.6-1.92,14.51-2.53l6.23,3.76c3,1.79,5.71-2.2,3.84-4.48,10.93-.15,21.63,2,30.73,9.11,16.65,12.93,22.22,37.21,22.58,57.19.4,22.14-8.15,42.17-23.74,57.74-14.38,14.35-33.12,24.38-51.85,31.86-16.19,6.46-38.81,13.13-54.59,2.8a233.07,233.07,0,0,0,8.42-26.11c8.74-32.88,9.23-69.88-5.2-101.33A2.72,2.72,0,0,0,1296.1,454.35Zm-71-56.32A29.93,29.93,0,0,1,1214,409.61c-3.15,2.17-.29,7.26,3,5.18,4.41-3,9.57-4.14,14.82-4.93a3,3,0,0,0,2.65,5.24c3.7-1,7.48-.6,11.25-.23a17.24,17.24,0,0,1-4.92,5.21,127.44,127.44,0,0,0-30.92.74,2.91,2.91,0,0,0-1.87-1.58c-.44-.13-.89-.23-1.34-.34C1211.39,411.06,1217.27,402.79,1225.14,398Zm-29.46,16.24c-5.5-7-8.47-16.07-9.66-25C1190.89,396.64,1192.34,405.9,1195.68,414.27Zm2.35,9.09a91,91,0,0,0-10.21,3.48c-2,.84-4,1.76-6,2.75.53-2-1-4.57-3.57-3.74l-.66.21C1184.05,423.12,1191.06,422.52,1198,423.36Zm-38.72,15.41c5.39-2.63,11.19-4.25,17-6a72.85,72.85,0,0,0-8.45,6.2c-1.93-.44-4.52,0-6.24-.07C1160.84,438.87,1160.08,438.83,1159.31,438.77ZM1213,631c-28.42.67-57,1.63-85.26-1.69q-2.68-.31-5.49-.7a3.26,3.26,0,0,0,.23-.6c4-14.53,12.82-24.37,27.36-28.62,13.68-4,29.34-4.52,43.46-3.47,1.37.1,2.74.24,4.09.42,2.77,6.8,4.11,14.13,7.26,20.81,1.65,3.5,6.83.45,5.18-3-2.48-5.24-3.83-10.9-5.65-16.4,5.53,1.6,10.48,4.44,14.07,9.56,5,7.15,8.48,15.49,12.24,23.51C1224.63,630.8,1218.8,630.86,1213,631Zm129.88-32c13.91-3.06,28.2-1.54,42.17.27,8.29,1.07,16.54,2.36,24.81,3.53a334.12,334.12,0,0,0-41,12.85c-11.07,4.23-22.77,8.76-32.52,15.63a3,3,0,0,0-1.27,1.95c-13.21-.29-26.43-.72-39.65-1.14C1308.66,617.05,1322.48,603.42,1342.85,599Zm162.05-71.43c1-.49,2-1,2.94-1.54a2.62,2.62,0,0,0,.74,0l-.16.24Zm8-41.34a20.5,20.5,0,0,1,1.47-1.91A13.66,13.66,0,0,1,1513,486.18ZM1484.26,526c-.45.5-.89,1-1.32,1.54a3,3,0,0,0-.49.79c-.71-.37-1.42-.76-2.12-1.15C1481.64,526.74,1483,526.34,1484.26,526Zm11.45-2.54a3.33,3.33,0,0,0-.26,1.43c-.72.22-1.44.41-2.16.6C1494.08,524.76,1494.88,524.08,1495.71,523.43Zm22.31-.88c.19-.24.38-.49.58-.72a3.24,3.24,0,0,0,.8-1.66l2.06-.13C1520.34,520.94,1519.19,521.78,1518,522.55Zm-46,6.36a58.76,58.76,0,0,0,5.42,3.48,123.36,123.36,0,0,0-14.59-2.14c2.68-.85,5.39-1.69,8.11-2.54A3.41,3.41,0,0,0,1472,528.91Zm18.74,3.19c.94-.16,1.88-.34,2.81-.55l-2.26.77Zm31.44-25.21a3.91,3.91,0,0,0-.57.3,89.44,89.44,0,0,0-7.55,5.6c1-2.17-.48-5.24-3.31-4.25l-1.35.5a3.12,3.12,0,0,0-.45-1l1.34-.64a3.23,3.23,0,0,0,2.77,0,61.18,61.18,0,0,1,10.51-3.21A26.28,26.28,0,0,1,1522.15,506.89Zm68.56,38.42c-13.77,3.22-28.46,2.53-42.39,1a232.38,232.38,0,0,1-43.64-9.34c-1.45-.45-2.9-.91-4.36-1.39q3-1,6-2.11a3.05,3.05,0,0,0,3.46.42l2.65-1.32a2.88,2.88,0,0,0,1.59,0,5.58,5.58,0,0,0,2.39-1.33c4.69-2.88,9.23-5.36,12.63-10a2.58,2.58,0,0,0,.53-1.42c17.76-.14,39,2.54,51,16.9,2.49,3,6.71-1.3,4.25-4.24-12.65-15.08-34.39-18.32-52.94-18.65-2.39,0-4.78,0-7.19,0a30.23,30.23,0,0,0,6.32-13.19c.42-2.12-1.36-4.43-3.69-3.69-1.5.48-3,.89-4.56,1.3a2.88,2.88,0,0,0-.14-1.17c2.49-2.83,5-5.66,7.62-8.35,2.49-2.54-.77-6.18-3.51-4.75l.2-.21a2.91,2.91,0,0,0,.88-1.94,76,76,0,0,1,9-.44c2.47,0,5.41,0,7.73,1a1.77,1.77,0,0,0,.28.11,12.57,12.57,0,0,1-3.38,3.17c-2.29,1.72-1.69,5.53,1.51,5.59,3.47.08,6.91.37,10,2.12,3.56,2-1.58,5.94-3.21,7.18s-2.25,4.09,0,5.18a101.07,101.07,0,0,0,21.39,7.14c3.81.89,7.65,1.62,11.48,2.38q3.17.63,6.32,1.31c2.62.56,2.88-.07,2.43,2.32a3.1,3.1,0,0,0,2.1,3.69,174.94,174.94,0,0,0,21.37,7.45C1610,538.81,1600.18,543.09,1590.71,545.31Z" transform="translate(-1019.91 -276.88)"/></svg>