<svg id="Layer_2" data-name="Layer 2" xmlns="http://www.w3.org/2000/svg" viewBox="0 0 627.27 886.53"><defs><style>.cls-1{fill:#d8dfe1;}.cls-2{fill:#bd9a5f;}.cls-3{fill:#d48232;}.cls-4{fill:#db6;}.cls-5{fill:#989400;}.cls-6{fill:#76bc21;}.cls-7{fill:#d1efbd;}</style></defs><path class="cls-1" d="M1393.41,1185c-7.74-5.47-16.8-9.14-25.6-12.46-14.33-5.41-29.63-7.8-44.58-10.84-7.4-1.51-14.78-3.19-22-5.4-1.75-.54-3.49-1.14-5.22-1.76-.45-.15-1-.39-1.65-.63a80.69,80.69,0,0,1-7.14-3.88c-.68-.41-1.34-.85-2-1.3s-1.22-1-1.64-1.36c-1.36-1.23-2.62-2.56-3.86-3.91-.11-.12-.21-.25-.32-.38-.93-1.36-1.8-2.76-2.63-4.19-.45-.78-1.17-2.33-1.66-3.42a58.75,58.75,0,0,1-1.69-6.38,54.77,54.77,0,0,1,0-5.73c.32-1.43.69-2.85,1.12-4.26l.17-.52c.43-.82.87-1.63,1.33-2.43s1.09-1.78,1.67-2.65a59,59,0,0,1,5.68-5.61c1-.66,1.93-1.29,2.91-1.91a67.45,67.45,0,0,1,6-3.3c.75-.3,1.56-.63,2.12-.83,1.63-.57,3.3-1,5-1.5,1.93-.53,3.89-1,5.87-1.32a81.85,81.85,0,0,1,16.63.33c11.31,1.41,25.82-9.64,27.48-20.92,9.35-63.45,4.15-127.51,9.81-191.2l.18-1.13a36.74,36.74,0,0,0,12.92-3.66c14.26-6.8,24.5-21.78,31.09-35.63a227.51,227.51,0,0,0,17.28-53.66c7.58-38.12,10.72-79.64,1.64-117.81-3.83-16.07-11.38-31.45-24.14-42.25-15.55-13.17-35.79-20.89-56.07-14.18a72.37,72.37,0,0,0-27.31,16.76,46,46,0,0,0-11.35-7c11.58-9.79,9.74-30.12-.38-40a79.31,79.31,0,0,0-28.09-17.76,29.91,29.91,0,0,0,2.42-19.22,25.9,25.9,0,0,0,4.67-3.73,28.6,28.6,0,0,0,8.34-20.15c0-16.11-12.91-27.59-28.35-28.49h-.15c-34-1.82-67.75-5.46-101.8-5.73-13.9-.12-28.09.14-42.22,1.26a30.82,30.82,0,0,0-15-4.53c-35.79-1.37-70.91,9.26-100.44,29.37-27.88,19-50.65,43.77-72.73,69a33.13,33.13,0,0,0-7.73,15.29c-6.8,13.1-3.36,31.2,10.5,38.47a99.32,99.32,0,0,0,20.55,8,46.67,46.67,0,0,0-10.13,4.55c-12,7.25-18.37,19-19.26,32.79-.62,9.62,3.84,20.36,9.31,28a78.77,78.77,0,0,0,20.9,20.32,77,77,0,0,0,10.24,5.87,69.41,69.41,0,0,0,5.58,37.53,49.34,49.34,0,0,0,2.83,14.8c5.49,15.06,16.59,27.66,32.21,32.43a142.92,142.92,0,0,0,2.45,22.57c-4.84,9.86-6.78,20.74-7.84,31.65a101.09,101.09,0,0,0,.88,25.11c-7.14,11.3-9.93,25.84-9.07,38.61,1.82,27.27,13.72,53.34,31.17,74.1a73.07,73.07,0,0,0,8.28,8.32c.82,13.81,4.84,27.55,10.18,40a72.77,72.77,0,0,0,29.31,33.55c.3.71.6,1.43.91,2.15a64.68,64.68,0,0,0,14.37,20.22l-4,2.34c-21.3,12.56-41.79,27.13-58.65,45.33a32.94,32.94,0,0,0-4.5,6.13c-16.66,9-29.93,23.13-35.83,42.45-4.91,16.07,6.09,31.19,21,35.12.42.54.85,1.08,1.31,1.61a69.11,69.11,0,0,0,33.73,21.61c1.37,1.56,2.77,3.07,4.18,4.52,6.34,6.51,14.05,12.5,22.38,16.22,5,2.26,10,4.53,15.5,5.47,9.27,1.6,14.9,1.35,24.17.06,13.86-1.92,24.89-11.61,32.89-22.37,7.43-10,9.59-22.2,11.14-34.19A81.45,81.45,0,0,0,1149,1230c2.68-3.91,5.16-7.94,7.44-12,10.37-18.46,15.55-38.59,20.74-58.91,1.52-5.94,3.09-11.86,5-17.68.39-1.2.82-2.39,1.26-3.58a62.65,62.65,0,0,1,3.44-6.22l.07-.1c.28-.33.55-.64.79-.9q.65-.66,1.32-1.29l.41-.27c.74-.46,1.51-.88,2.28-1.28a51.66,51.66,0,0,1,6.92-1.78l.9-.07c0,7.88-1.07,15.74-2.06,23.57-1.58,12.49-2,24.46.88,36.87,1.63,7.06,6.94,13.43,13.1,17a26.21,26.21,0,0,0,14.84,3.68,28.8,28.8,0,0,0,6.39,9.87,27.12,27.12,0,0,0,9.59,6.3c1.41,11.64,10.65,22,21.89,25.25a26.89,26.89,0,0,0,3.07,7.69,28.38,28.38,0,0,0,8.26,8.87,27.89,27.89,0,0,0,3.74,12.13c6.78,11.58,19.53,15.67,32.18,13.1a264.19,264.19,0,0,0,49.13-15.32c19.39-8.11,37.31-17.39,53.46-31,8.83-7.45,11.66-25.11,4.46-34.53A109.59,109.59,0,0,0,1393.41,1185Zm-106.18-34.71Zm-12.06-33c.74-1.83,1.49-3.37,0,0Zm-160.1-95.54.16,0-.13,0Zm-13.58,30.69-.18,0C1102.65,1051.27,1102.35,1051.67,1101.49,1052.38Zm-130-348.12.42-.11C969.44,706.16,970.08,705.27,971.49,704.26Zm100.08,97.35-.07,0-.07-.09.07,0Zm51-175.47,5.65-1c-1.09.46-2.18.92-3.25,1.39ZM972.72,703.48l0,0-.07,0Zm98.75,158.06c4,4.8,1.4,2,0,0Zm.29.06c3.93,2.85,1.72,1.55,0,0Zm88.92,218.28a62.16,62.16,0,0,0-10.25,7.68,31.77,31.77,0,0,0-6.12.57A62.15,62.15,0,0,0,1152,1073c3.93-11.26,2.29-23.4-2.68-33.93-2.61-5.54-7.73-10.12-12.83-13.3-6.06-3.78-12.66-4.65-19.38-4.22a.54.54,0,0,0,0-.11l.73-.1-.73.1a44,44,0,0,0,3.72-23.44c-1.48-12.24-4.76-25.47-14.63-33.89q-.69-.58-1.38-1.14c1.82-13.19,1.12-27-3.85-38.9a81.7,81.7,0,0,0-10.12-18.51c1.57-1.11,3.11-2.25,4.6-3.4,11.52-8.91,20-24.79,19-39.54a47.15,47.15,0,0,0-6-20.46c.45-.34.89-.69,1.34-1,10.06-8.23,14.14-22,15.56-34.29,2.35-20.44-5.59-42-22.42-53a30.08,30.08,0,0,0,2.08-2.58,616,616,0,0,0,65.28-12.77c11.18-2.79,22.27-5.93,33.22-9.5a52.68,52.68,0,0,0,1.06,6c1.3,5.36,5.06,12.51,9.4,16.09,9.58,7.91,18.9,10.06,31.11,8.09,4.64-.76,9.22-3.14,13.17-5.7.92-.6,1.81-1.21,2.7-1.82-.37,1.62-.74,3.25-1.08,4.88-3.21,15.24-6.62,31.67-5.5,47.34.73,10.23,5,19.25,14.11,24.61,8.24,4.82,20.62,5.71,28.77,0a86.86,86.86,0,0,0,21.54-21.79c-6,23.37-11.93,46.73-15.4,70.6-4.69,32.21-4,65.35-4.35,97.82-.25,22.58-.65,45.2-2.49,67.7-18.93,2.91-36.8,11.44-51.91,23.46a62.55,62.55,0,0,0-8.58,8.31,25.51,25.51,0,0,0-8.62-4.16c-3.2-.88-7.34-1-10.84-1.3a112.16,112.16,0,0,0-18.51,0C1184.89,1070.17,1172.17,1073,1160.68,1079.88Zm27,50.47-.09.11C1185.24,1132.42,1186.24,1131.48,1187.7,1130.35Zm-2.5,3.35Zm2.51-3.31.06-.1.56-.42Z" transform="translate(-886.49 -434.71)"/><path class="cls-2" d="M1376.64,731.19c-43.38-9-89.14-4.27-132.57,1.69a552.73,552.73,0,0,0-59.55,11.37,24.88,24.88,0,0,0-9.52-2V742h-.16c-14.8,0-29.59.1-44.36-.86-2.75-.18-5.5-.35-8.25-.61-4.42-8.12-12.9-12.57-22.4-13.28-17.08-1.29-34,1.17-51,2.46a151.34,151.34,0,0,1-25.19.07l-.53-.08c-2.26-.39-4.48-1-6.69-1.53-1.34-.36-2.65-.78-4-1.23,1,.31-3.66-1.6-4.74-2.18a28.06,28.06,0,0,0-14.45-3.37c-.47-.54-.94-1.09-1.39-1.64-7.19-8.73-21.73-9.36-30.9-4-10.89,6.38-17.61,23.82-9.15,34.89,4.66,6.11,9.2,12.12,15,17.12a33.49,33.49,0,0,0-3.52,12c-3.69,35.62,7.55,68.22,20.44,100.47,2.33,11.69,4.86,23.34,7.85,34.89a301.08,301.08,0,0,0,23.94,63.25q1.23,5.83,2.53,11.65a249.38,249.38,0,0,0,14.73,45.63c4.7,10.78,13.46,20.73,21.44,29.17,8.5,9,18.55,16.72,28.81,23.59,19.83,13.28,43,22.48,66.06,28.14,22.58,5.52,46.56,8,69.74,5.69,42-4.19,83.64-21.14,111.7-53.6,25.08-29,38.46-65.56,45.51-102.84,7.39-39.1,9.24-79,11.2-118.65.77-15.63,1.56-31.26,2.78-46.86q.87-11.18,2.13-22.32c.18-1.59.38-3.18.58-4.77q.75-5.34,1.69-10.67C1396.69,749.6,1391.19,734.2,1376.64,731.19Zm-273.85,309-1.32-1.06c-.64-.53-1.27-1.08-1.9-1.62a25.47,25.47,0,0,0,2.58-4.65,186.78,186.78,0,0,0,12.36,15.12q-5.67-3.43-11.06-7.31Zm157.63-189.3a47.36,47.36,0,0,0-13.91,1.21c-.51-1.39-1-2.78-1.65-4.2a17.46,17.46,0,0,0-3-4.7c1.29-.48,2.56-1,3.83-1.53a45.67,45.67,0,0,0,14.89,2.5c-.11,1.52-.18,3.06-.2,4.6C1260.34,849.5,1260.37,850.21,1260.42,850.91Z" transform="translate(-886.49 -434.71)"/><path class="cls-2" d="M970,660.79c54.12,24.06,114.63,12.58,171.94,16.49,26.48,1.81,52.95,4.6,79.53,4a222.23,222.23,0,0,0,41.86-4.74c11.47-2.48,22.47-7,33.22-11.6,17.62-7.52,32.52-20.85,28.55-41.86-3-15.74-20.24-23.11-34-26.18-29.24-6.51-60.32-6.84-90.16-7.4-26.16-.49-52.35-.48-78.5-.43-21.83,0-43.67.57-65.4,2.7-22.28,2.2-44.82,5.6-65.9,13.39-13,4.81-21.73,17.1-17.81,31.37,3.45,12.54,18.32,22.63,31.37,17.81a206.45,206.45,0,0,1,36.63-9.48c3.16-.55,6.33-1,9.51-1.46-8.5,1.19,2.55-.24,4.56-.46,7.17-.76,14.37-1.29,21.58-1.71,27.54-1.63,55.16-1.14,82.74-1,26.85.13,53.69.14,80.51,1.71,7.35.43,14.68,1,22,1.74,1.64.17,3.27.36,4.91.55l2.37.29c3.89.5-7.54-1-3.7-.49q4.62.63,9.2,1.52c2.41.47,4.81,1,7.18,1.68,1,.28,2,.6,3.05.93,5.45,1.84-6.19-2.82-2.68-1.2a18.33,18.33,0,0,1,2,1.11c3.11,1.93-6.24-5.38-3.39-2.59,1.46,1.43,3.51,5.32-3.3-4.32,1.14,1.61,3,7.48-2.11-5.21-1-2.4-.57-8.41.1-11.43-.71,3.21,3.92-7.61,1.71-4.3,5.32-8,4.27-5.12,2.24-3.25-2.94,2.72,6.76-4.85,2.49-1.94-1.17.8-2.4,1.5-3.64,2.18s-2.62,1.34-3.94,2l-2.27,1c-3.69,1.63,6.63-2.76,2.76-1.17-4.46,1.84-9,3.43-13.58,5a114.09,114.09,0,0,1-16,4.15c-2.1.41-12.19,1.75-3.18.62-3.43.43-6.88.72-10.34,1a330.86,330.86,0,0,1-39.08,0c-17.06-.8-34.07-2.37-51.11-3.56-15.67-1.09-31.13-1-46.81-1-18.88,0-37.76.66-56.63-.32-4.63-.24-9.24-.63-13.84-1.12-1.14-.12-2.28-.26-3.41-.4,4,.54,4.53.61,1.71.2-2.22-.33-4.44-.74-6.65-1.16-4.35-.83-8.65-1.92-12.9-3.17-2.1-.61-4.17-1.32-6.23-2-1-.37-2-.76-3-1.16q5.37,2.32,1.61.66c-6.54-2.91-12.47-4.54-19.65-2.57A25.72,25.72,0,0,0,960.8,625.9c-6.43,11-3.56,29.24,9.15,34.89Z" transform="translate(-886.49 -434.71)"/><path class="cls-3" d="M1362.57,881.22c-5.46-19.86-25.07-29.05-44.28-25.14q-6.4,1.3-12.77,2.87a39.69,39.69,0,0,0,0-19.73,36,36,0,0,0-9.25-15.89c-6-6-16.57-11.65-25.46-10.54q-11.2,1.4-22.47,2.62l-.06,0c7.1-9.89,5.38-25.93-.39-35.78-8-13.69-25.22-21.14-40.66-16.54-19,5.66-34.56,16.42-49.89,28.51a163.07,163.07,0,0,0-23.27,22.55,202,202,0,0,1-29.1-8.75,169.85,169.85,0,0,1-28.78-16.7,177.82,177.82,0,0,1-24.91-25.15c-.47-.64-1-1.27-1.41-1.92-5.69-7.9-11.82-13.87-21.52-16.54-8.61-2.37-20.19-1.73-27.74,3.63C987,758.43,973.35,771,970,788.32c-3.1,15.88-.36,32.32,9.43,45.49a138.25,138.25,0,0,0,23,24.23c6.17,5.15,12.75,10.06,18,16.2l-5.63-7.28c4.69,6.14,9.67,12,14.55,17.92.71,1.06,1.38,2.14,2,3.25.12.41.24.82.35,1.23a78.34,78.34,0,0,1-.46,9.31c-1.09,7-2.35,14-3.26,21-1.72,13.35,8.54,25.86,16.7,35.14a118.88,118.88,0,0,0,50.87,33.58c11.29,3.75,25.6,4.3,37,.46,13.9-4.71,24.88-14.21,32.56-26.61,4.26-6.9,7-15.12,8.69-23,0-.19.08-.38.12-.56,17.32-1.88,31-18.77,31-35.88a35.56,35.56,0,0,0-2.1-12.16c13.59-.44,27.19-1.44,40.76-2.77l2,.28a36.87,36.87,0,0,0-4.59,20.8,36.22,36.22,0,0,0-21.21,4.77c-7,4.08-14.76,12.28-16.38,20.66-.72,1.59-1.43,3.28-2.23,5.31-3,7.47-1.8,15.39-.4,23,1.37,7.4,6.93,14.19,11.72,19.6,7.81,8.82,18.82,9.94,29.6,11.15,17.92,2,34.74-6.08,48.31-16.83,13.73-10.87,21.7-27.83,24.06-45.47q11.45-3.23,23.07-5.6C1356.66,921.59,1367.5,899.16,1362.57,881.22Zm-250,13.44a75.68,75.68,0,0,0-6.92,18.91l-.58-.41q-1.63-1.38-3.21-2.83c1.31-8.1,2.24-16.24,1.63-24.39-.14-1.8-.33-3.6-.56-5.38q8.36,2.34,16.8,4A48.62,48.62,0,0,0,1112.58,894.66Z" transform="translate(-886.49 -434.71)"/><path class="cls-4" d="M1121.4,847.5c9.79-2.69,15.7-8.67,21.52-16.54,8.31-11.25,14.76-23.53,21-36,8.78-17.55,4.82-38.86-12.91-49.25a36.83,36.83,0,0,0-21.84-4.57c-6.6-9.65-17.36-16.37-29.34-15.35a56.19,56.19,0,0,0-18.68,4.69,35.45,35.45,0,0,0-5.45.23c-2.57.33-8.11.54-11.58,1.81-9.11,3.36-9.11,3.77-16.75,9.82a35.93,35.93,0,0,0-9.25,15.88c-2.78,10.1-.53,18.55,3.63,27.74,7.15,15.84,21.89,26.66,35.52,36.9a36,36,0,0,0,44.13,24.65Z" transform="translate(-886.49 -434.71)"/><path class="cls-4" d="M1333.66,788.78a35.9,35.9,0,0,0,4.28-42.17c-4.32-7.36-12.76-15.07-21.52-16.54-6.34-1.07-13.07-2.54-19.56-1.72-3.92.5-8.78.69-12.77,2.12l-.2.07c-11.39-8.69-28-11.3-40.21-2.84a89,89,0,0,0-23.93,23.7c-6.46,9.09-8.81,19.81-10,30.63-1.83,16.37,5.61,30.84,17.21,41,6.46,17.89,20.37,32.72,40.27,36.42,23.47,4.36,49.14-2.64,65.11-21.19,6.41-7.45,10.54-15.35,10.54-25.45A36.25,36.25,0,0,0,1333.66,788.78Z" transform="translate(-886.49 -434.71)"/><path class="cls-4" d="M1053.92,667.6c24.44,5.75,51.09,6.61,75.92,4.17,9.88-1,18.2-3.29,25.45-10.54a36,36,0,0,0,1.44-49.38,50.22,50.22,0,0,0-1.18-27.65c-5.26-15.29-17.93-26.43-34.72-26.43q-9.21,0-18.45,0a35.29,35.29,0,0,0-27.61-.35c-16.67-.38-33.32-1.13-49.94-2.61-15.36-1.37-31.27,11.94-34.72,26.43-3.41,14.34-2.7,28.12,2.21,40.71-.3,2.66-.45,5.3-.49,7.86-.24,15.28,11.07,31.42,26.43,34.71A152.47,152.47,0,0,0,1053.92,667.6Z" transform="translate(-886.49 -434.71)"/><path class="cls-4" d="M1219.61,923.5a78.21,78.21,0,0,1-4.84-8.55,134.19,134.19,0,0,1-5.22-18.72c-3.13-15.27-19.56-26.81-34.71-26.43-12.32.3-24.89,3.46-36.57,7.28-18.63,6.11-30.54,24.68-25.15,44.29.12.42.25.83.38,1.24-1.06.88-2.11,1.79-3.12,2.74-6.83,6.39-10.54,16.21-10.54,25.45,0,13.19,7.05,24,17.83,31.09,14.66,9.6,30.82,14.66,48.17,16.16,20.52,1.78,41-7.84,55.46-21.79,14.28-13.77,13.47-37,0-50.91C1220.71,924.74,1220.16,924.12,1219.61,923.5Z" transform="translate(-886.49 -434.71)"/><path class="cls-5" d="M1134.41,923.32c-7.1-1.63-14.35-2.12-21.56-2.84-1.41-.28-2.81-.61-4.19-1-1.2-.69-2.32-1.49-3.45-2.28a20.87,20.87,0,0,0-7.15-3.18,28.62,28.62,0,0,0-8.08-16.37c-5.07-5.07-10.58-6.89-17.1-7.92l3.06.41c-2.41-.36-4.77-.83-7.14-1.42a49.37,49.37,0,0,0-6.87-22.8c-7.65-12.43-19.57-18.33-32.54-23.6-6.69-2.72-16-.61-22,2.87a29.07,29.07,0,0,0-12.14,14.19c-10.44,8.43-15.26,25.2-7.08,36.81a77.24,77.24,0,0,0,24.11,22.12c.9,1,1.81,2.05,2.76,3.05,12.19,12.83,27.92,19.85,44.72,23.3a27.36,27.36,0,0,0,.15,11.22,28.48,28.48,0,0,0,6.88,56.13h36a28.76,28.76,0,0,0,28.5-28.5,27.6,27.6,0,0,0-.42-4.75c10.83-1.61,20.26-8.92,23.41-20.37C1158.3,943.9,1149.55,926.79,1134.41,923.32Z" transform="translate(-886.49 -434.71)"/><path class="cls-5" d="M1264.85,982.31a80.78,80.78,0,0,0-12.22,1.39,28.83,28.83,0,0,0-16.36-.38c-6.37,1.76-14.31,6.72-17,13.1-2.65,6.2-4.14,8.6-4.27,15.46-.08,4.26,1.32,11.55,4,15.16,4.2,5.67,5,6.62,10.74,10.72,4.49,3.18,10.64,3.72,15.84,4.2,5.94.56,12.47-1.34,18.64-2.62.22,0,.44,0,.67,0,15.53-.34,28.5-12.71,28.5-28.5C1293.35,995.53,1280.38,982,1264.85,982.31Zm6.35,35.31c-.07.51-.13,1-.2,1.54l-2,4.68A53.78,53.78,0,0,0,1271.2,1017.62Z" transform="translate(-886.49 -434.71)"/><path class="cls-5" d="M1344.43,869.31c-12.66-3.48-25.31,2.26-32.18,13.1q-2.7,4.26-5.65,8.33a.78.78,0,0,0-.1.15c-.91,1.12-1.84,2.22-2.78,3.32a151.09,151.09,0,0,1-13.8,14.15c-1,.91-4.34,3.62-5.44,4.57-1.43,1-2.87,2-4.33,3-2.25,1.46-4.59,2.78-7,4l-.68.34-.23.08c-14.66,5.09-24.23,19.33-19.9,35.06,3.91,14.23,20.37,25,35.06,19.9a120,120,0,0,0,35.39-20,28,28,0,0,0,6.61-1c7.8-2.15,12.35-6.89,17-13.1,3.86-5.1,8-10,11.21-15.59a59.06,59.06,0,0,0,7.68-28.8C1365.63,884.16,1356.45,872.62,1344.43,869.31Zm-70.87,50.52c2.57-1.14,1.44-.59,0,0Z" transform="translate(-886.49 -434.71)"/><path class="cls-6" d="M1490.78,673c-.54-12.32-6.32-21.47-13.86-30.72A108.27,108.27,0,0,0,1454,622c-9.62-6.49-21.77-9.74-33-12.23-4.92-1.1-9.86-2.07-14.77-3.2-2.33-.54-4.65-1.15-7-1.81-.85-.25-2.32-.78-3.53-1.22l-.06-.12c0-.08,0-.15-.07-.22l.27-.26c.42-.3.86-.6,1.22-.82.62-.38,1.62-.88,2.52-1.32,1.59-.51,3.22-.93,4.86-1.28,1.61-.09,3.23-.11,4.84-.06,1.31.26,2.62.52,3.93.8,15.17,3.3,30.77-4.32,35.06-19.9a28,28,0,0,0,.71-11.4c23-26.45,32.77-63.87,36.31-98.19,1.89-18.39-19.63-32.5-36.08-27.48-25,7.64-50.13,13.37-74.11,24.12a114.72,114.72,0,0,0-29.82,19.29,75.33,75.33,0,0,0-24.12-19.53c-9.19-4.74-19.62-5.37-28.77,0-8.07,4.72-15,14.86-14.12,24.6,2,22.09,9,43.61,25.44,59.27-.55,8.25-1.39,16.5-1.44,24.74a26.1,26.1,0,0,0,.39,4.52,26.83,26.83,0,0,0-9.54,2,28.5,28.5,0,0,0-22.35-11c-4.47,0-8.89.14-13.24.49-10.36-1.81-20.37-1.8-30.72,1-10.77,3-19.71,8.94-28.1,16.06-14,11.87-23.34,30.73-27.43,48.33-2.33,10-.08,20.32,7.33,27.73,7.82,7.82,17.34,8.93,27.73,7.33a76.72,76.72,0,0,0,8.27-1.74,83,83,0,0,0,17.11,3.41,54.32,54.32,0,0,0,20.43-2.34,28.29,28.29,0,0,0,23.19,3.67c18-5.34,34.19-14.6,50.17-24.18l.84.74a28.71,28.71,0,0,0,1,9.54c2.15,7.84,6.9,12.29,13.09,17,11.24,8.61,25.81,13.54,39,18.14a241.79,241.79,0,0,0,43.36,10.93c16.86,2.51,34.83,4.6,50.48-4C1484,697.66,1491.32,685.23,1490.78,673Zm-93.35-67c.85,1,.58.76,0,0Zm38.94,77.32.06-.1C1437.18,684.77,1437.7,686.48,1436.37,683.32Z" transform="translate(-886.49 -434.71)"/><path class="cls-7" d="M1220,639c0,11.8-.71,25.38,6.41,35.51,2.21,3.14,7.41.15,5.18-3-6.49-9.24-5.59-21.73-5.59-32.49,0-3.87-6-3.87-6,0Z" transform="translate(-886.49 -434.71)"/><path class="cls-7" d="M1246,619c-.07,15.67-1.92,31.91,4.11,46.8,1.43,3.54,7.24,2,5.78-1.6-5.83-14.4-4-30.05-3.89-45.2,0-3.87-6-3.87-6,0Z" transform="translate(-886.49 -434.71)"/><path class="cls-7" d="M1268,607v52c0,3.87,6,3.87,6,0V607c0-3.87-6-3.87-6,0Z" transform="translate(-886.49 -434.71)"/><path class="cls-7" d="M1286.11,605.8c2.09,13.24,2.18,26.71,4,40,.52,3.82,6.3,2.18,5.78-1.6-1.81-13.28-1.9-26.74-4-40-.6-3.81-6.38-2.19-5.78,1.6Z" transform="translate(-886.49 -434.71)"/><path class="cls-7" d="M1178.2,629.89c12.79,4.14,26.24,6,39.6,4,3.81-.57,2.19-6.35-1.6-5.78-12.24,1.84-24.72-.23-36.4-4-3.69-1.2-5.26,4.6-1.6,5.78Z" transform="translate(-886.49 -434.71)"/><path class="cls-7" d="M1201.49,597.59A109.66,109.66,0,0,0,1247,614c3.83.51,3.78-5.49,0-6a102.91,102.91,0,0,1-42.49-15.59c-3.25-2.12-6.25,3.08-3,5.18Z" transform="translate(-886.49 -434.71)"/><path class="cls-7" d="M1223.49,581.59c11.92,7.77,25.29,13.65,38,20,3.45,1.73,6.49-3.45,3-5.18-12.7-6.35-26.07-12.23-38-20-3.25-2.12-6.25,3.08-3,5.18Z" transform="translate(-886.49 -434.71)"/><path class="cls-7" d="M1250.41,572.51c5,9.54,14.07,15.37,23.79,19.38,3.58,1.48,5.12-4.33,1.6-5.78-8.3-3.43-15.93-8.53-20.21-16.62-1.81-3.43-7-.39-5.18,3Z" transform="translate(-886.49 -434.71)"/><path class="cls-7" d="M1362,625c2,16.12,2.35,33,6.11,48.8.89,3.76,6.68,2.16,5.78-1.6-3.63-15.32-4-31.6-5.89-47.2-.47-3.79-6.47-3.83-6,0Z" transform="translate(-886.49 -434.71)"/><path class="cls-7" d="M1390.88,635.12c9.92,12.5,9.12,30.81,9.12,45.88,0,3.87,6,3.87,6,0,0-17,.23-36.12-10.88-50.12-2.4-3-6.62,1.24-4.24,4.24Z" transform="translate(-886.49 -434.71)"/><path class="cls-7" d="M1414.41,648.51c7.51,13.72,7.59,29.26,7.59,44.49,0,3.87,6,3.87,6,0,0-16.35-.36-32.82-8.41-47.51-1.86-3.4-7-.37-5.18,3Z" transform="translate(-886.49 -434.71)"/><path class="cls-7" d="M1442,671v26c0,3.87,6,3.87,6,0V671c0-3.87-6-3.87-6,0Z" transform="translate(-886.49 -434.71)"/><path class="cls-7" d="M1385,626a127.1,127.1,0,0,0,38.8-6.11c3.66-1.19,2.09-7-1.6-5.78A121.38,121.38,0,0,1,1385,620c-3.87,0-3.87,6,0,6Z" transform="translate(-886.49 -434.71)"/><path class="cls-7" d="M1412.2,641.89a69.32,69.32,0,0,0,35.6-4c3.57-1.37,2-7.18-1.6-5.78a63.51,63.51,0,0,1-32.4,4c-3.79-.57-5.41,5.21-1.6,5.78Z" transform="translate(-886.49 -434.71)"/><path class="cls-7" d="M1443.8,659.89l24-6c3.75-.93,2.16-6.72-1.6-5.78l-24,6c-3.75.93-2.16,6.72,1.6,5.78Z" transform="translate(-886.49 -434.71)"/><path class="cls-7" d="M1467,676h8c3.87,0,3.87-6,0-6h-8c-3.87,0-3.87,6,0,6Z" transform="translate(-886.49 -434.71)"/><path class="cls-7" d="M1349,584c12.54.14,25.48,3.15,33.88,13.12,2.49,3,6.72-1.3,4.24-4.24C1377.75,581.75,1363,578.15,1349,578c-3.87,0-3.87,6,0,6Z" transform="translate(-886.49 -434.71)"/><path class="cls-7" d="M1376.2,563.89c14.44,4.39,26.39,14.23,39.29,21.7,3.35,1.94,6.37-3.24,3-5.18-13.38-7.76-25.72-17.75-40.71-22.3-3.72-1.13-5.29,4.66-1.6,5.78Z" transform="translate(-886.49 -434.71)"/><path class="cls-7" d="M1405,558c13.24.22,24.52,6,33.88,15.12,2.77,2.71,7-1.53,4.24-4.24-10.49-10.25-23.31-16.64-38.12-16.88-3.87-.06-3.87,5.94,0,6Z" transform="translate(-886.49 -434.71)"/><path class="cls-7" d="M1404.11,523.8c1.74,9.26,2.13,19.17,0,28.4-.87,3.77,4.91,5.37,5.78,1.6,2.39-10.34,1.95-21.22,0-31.6-.71-3.8-6.49-2.18-5.78,1.6Z" transform="translate(-886.49 -434.71)"/><path class="cls-7" d="M1382.11,519.8a95.52,95.52,0,0,1,0,32.4c-.71,3.78,5.07,5.4,5.78,1.6,2.22-11.83,1.87-23.74,0-35.6-.6-3.81-6.38-2.19-5.78,1.6Z" transform="translate(-886.49 -434.71)"/><path class="cls-7" d="M1354.11,525.8c2,13.53,8.08,28.78,4,42.4-1.12,3.72,4.67,5.29,5.78,1.6,4.44-14.78-1.79-30.94-4-45.6-.57-3.81-6.35-2.19-5.78,1.6Z" transform="translate(-886.49 -434.71)"/><path class="cls-7" d="M1368.11,479.8c3.91,11.39,9.81,22.06,12,34,.69,3.8,6.48,2.18,5.78-1.6-2.19-11.93-8.08-22.61-12-34-1.25-3.63-7-2.07-5.78,1.6Z" transform="translate(-886.49 -434.71)"/><path class="cls-7" d="M1400.88,475.12c1.62,1.91,2.27,5.1,3,7.43A46.31,46.31,0,0,1,1406,495c.08,3.86,6.08,3.87,6,0-.16-7.52-1.8-18.17-6.88-24.12-2.51-2.95-6.74,1.32-4.24,4.24Z" transform="translate(-886.49 -434.71)"/><path class="cls-7" d="M1430.41,462.51A19.48,19.48,0,0,1,1432,471c0,3.87,6,3.87,6,0a26.39,26.39,0,0,0-2.41-11.51c-1.65-3.5-6.82-.45-5.18,3Z" transform="translate(-886.49 -434.71)"/><path class="cls-7" d="M1417.12,523.12c6.38-7.79,17-3.88,25.08-1.23,3.69,1.21,5.26-4.58,1.6-5.78-10.21-3.35-23-6.89-30.92,2.77-2.43,3,1.79,7.24,4.24,4.24Z" transform="translate(-886.49 -434.71)"/><path class="cls-7" d="M1435,496c3.6,0,7.35-.35,10.12-2.88s-1.39-6.84-4.24-4.24c-1.43,1.3-4.08,1.12-5.88,1.12-3.87,0-3.87,6,0,6Z" transform="translate(-886.49 -434.71)"/><path d="M1512.87,681.3a53,53,0,0,1-10.61-14c-2.42-4.33-6.44-12.05-3.4-16.91a3,3,0,0,0-1.79-4.41c-6.64-2.42-11.27-7.41-16.6-11.81-5.62-4.63-12.36-8.16-18.85-11.4-12.93-6.48-26.58-10.32-40.47-14.09a198.26,198.26,0,0,0-36.61-6.27,53.63,53.63,0,0,1,6.73-3c11.29-4,23.24-.24,34.84-1a3.18,3.18,0,0,0,3-3.2c6.42,2.89,14.13,5.28,20.15,2.57,7.13-3.2,4.55-11,1.3-16.94,5,.36,9.9,1.06,14.83,1.87,2.54.42,4.73-1.93,3.38-4.41-4.17-7.67-8.59-15.39-13.49-22.8,5-1.77,9.11-6.08,12.31-10.37,5.66-7.58,9.45-17.65,8.17-27.15a2.7,2.7,0,0,0-2.55-2c11.92-16.22,19.91-36.34,24.82-55.55a3.06,3.06,0,0,0-3.71-3.72,66.34,66.34,0,0,0,7.05-17.54,3,3,0,0,0-2.09-3.69c-13.82-2.64-26.31,1.64-39.12,5.87,0-.25.08-.5.11-.75.24-2-2.09-3.37-3.79-2.89-11.44,3.15-20.07,12.32-30.92,16.41.07-.42.14-.84.19-1.27.22-2.1-2.07-3.21-3.8-2.89-13.41,2.44-22.83,13-34.64,18.88a25.56,25.56,0,0,0,.58-3.74,3,3,0,0,0-4.52-2.59c-4.67,3.29-8.5,7.42-12.28,11.62.06-1.52.09-3.05.09-4.58,0-3.08-4-4-5.59-1.51-10.13,15.6-21,30.9-29.34,47.56-2.46-9.51-9-19.1-13.72-25.4a106,106,0,0,0-19.93-20.54c-5.45-4.2-11.94-8.49-19.06-8.67a3,3,0,0,0-2.59,4.51,57.59,57.59,0,0,1,3.89,8l-.5-.18c-2.19-.87-4.25,1.67-3.69,3.69.37,1.35.63,2.71.87,4.08a24.29,24.29,0,0,1-3.65-2.54,3,3,0,0,0-5.12,2.12c-1.94,29.11,11.5,54.81,27.13,78.36a3.11,3.11,0,0,0,4.79.45c.34,1.27.71,2.53,1.12,3.76,3.24,9.7,11,21.65,22.3,22.62,19.21,1.64,17.49-32.14,15.14-43.62-.49-2.39-3.42-2.67-5-1.32a28,28,0,0,1-5,3,27,27,0,0,1-1.24-9.28,3,3,0,0,0,2-1.28,17.5,17.5,0,0,0,1.59-2.77,3.12,3.12,0,0,0,.94-1.28c6.94-17.45,17.52-33.14,27.91-48.75-.08.5-.18,1-.29,1.49-.62,2.84,2.82,5.16,5,2.92,3.6-3.68,6.87-7.78,10.49-11.49a3,3,0,0,0,3.78,3.35c13-4.3,22.64-15.61,35.42-19.94-.05.22-.1.44-.14.66a3,3,0,0,0,3.69,3.69c11.16-2.36,19.49-10.73,29.55-15.5a3.18,3.18,0,0,0,3.86,3.25c12.73-4,25.36-9.73,38.86-8.24A63.43,63.43,0,0,1,1480.91,465c-.3.3-.6.62-.89.95l-.35.37h0c-2.42,2.93,1.51,7.06,4.25,4.23.48-.49.95-1,1.42-1.52a25.68,25.68,0,0,1,5.08-3.57c-5.26,18.12-13.33,36.81-25.22,51.16-1.61,1.93-.68,5.32,2.12,5.32h2.83c0,6-2.74,12.1-5.68,17.14-2.47,4.21-7.2,10.56-12.7,11.24-7.48-10.55-16.08-20.24-26.54-27.87a58.24,58.24,0,0,0-14.49-7.72c11.11-12,21.23-24.76,32.88-36.24,10.57-10.41,25.4-24.33,41.52-22.66,3.84.4,3.81-5.61,0-6-16.55-1.71-31.59,11.13-42.84,21.62-13.07,12.19-24,26.35-36.13,39.4a2.84,2.84,0,0,0-.82,2.25,53.72,53.72,0,0,0-9.31-1.46c-11-.73-21.54,2.9-31,8.17v-.16c0-1.81-2.19-3.61-4-2.89-8.54,3.28-14.66,10.63-20.37,17.47-2.47,3,1.63,7.22,4.12,4.25,4.06-4.87,8.64-10.71,14.29-14.16v.9a2.85,2.85,0,0,0,4.27,2.59c10-6.34,20.86-10.65,32.89-10.17,10.52.41,20.32,5.41,28.47,11.77A109.86,109.86,0,0,1,1445.74,552a2.73,2.73,0,0,0,1.85,4c.36.08.72.12,1.08.17,4.35,6.41,8.29,13.1,12,19.77a121.94,121.94,0,0,0-15.62-1.36c-2.16,0-3.89,2.61-2.59,4.51,1.79,2.64,9.51,13,2.47,13.67-6.23.57-13.08-2.74-18.42-5.52a3,3,0,0,0-4.51,2.59c0,.93,0,1.82.11,2.68-7.72,0-15.38-1.42-23.11-.82-7.13.55-13.24,3.39-19.41,6.72-1.39.75-3.57,2.07-6.19,3.57-8.51.1-17.14,1.34-24.53,5.31a2.76,2.76,0,0,0-1.43,2.29,6.94,6.94,0,0,1-3.73-4.51c-1.88-6,2.89-13.62,6-18.44a68.64,68.64,0,0,1,13.24-14.81c14.64-12.74,35.22-15,52.87-21.42,3.61-1.3,2.06-7.1-1.59-5.78-19.62,7.09-40.52,9.9-56.77,24.05-9.44,8.21-21.72,22.76-19.8,36.24a15.21,15.21,0,0,0,1.74,5.44c-1.28,1.7-2.51,3.44-3.65,5.22-.09-.31-.15-.62-.24-.92a2.9,2.9,0,0,0-3.35-2.08c3.56-11.83,2.85-25.18-12-28a34.27,34.27,0,0,0-10.07-.25c-11-7.26-19.83-17.29-32.28-22.53-18.47-7.77-37.08-2.56-56.1-1.86H1219c-4,0-4,6,0,6h0v.14c.68,0,1.35,0,2-.06a49.79,49.79,0,0,1-11.77,3c-3,.45-2.54,4-.67,5.42-5.61,2.5-11.43,4.48-17.15,6.87-1.83.76-3.28,3.42-1.32,5,.43.35.87.69,1.3,1.05-5.86,5.5-12,10.6-16.25,17.59a3,3,0,0,0,2.59,4.52,2.07,2.07,0,0,1,.35,0,30.51,30.51,0,0,1-8,10.5,1.79,1.79,0,0,0-.27.28c-3.12-15.22,3.27-31.83-3.09-46.63-3.84-9-13.74-13.39-22.62-15.55-11.92-2.9-24.67-1.16-36.62.51s-24,4-36.22,3.63c-10.29-.35-20.54-1.55-30.84-1.91-19.85-.71-43.73,1.3-53.08,21.76-5,10.92-4.8,23.18-10.65,33.9-5.38,9.86-11.85,18.85-11.29,30.63.19,3.85,6.19,3.87,6,0-.62-13,8.75-22.61,13.57-33.94,5.19-12.21,3.84-26.85,13.79-36.79,7.24-7.24,18.77-8.87,28.48-9.47,10.84-.68,21.74.3,32.54,1.11a150.52,150.52,0,0,0,31.33-.5c13-1.7,25.93-4.34,39.11-4.39,10.64,0,24.42,2.42,30.42,12.29,4.63,7.62,3,18.21,2.53,26.64-.45,8-.47,16,1.78,23.6-14.26,6.77-30.72,5.42-46,4.11-15.9-1.36-32-3.34-47.77,0-3.79.79-2.18,6.57,1.59,5.78,31-6.49,64.51,9.26,94.3-4.27.11.22.21.44.32.67a2.56,2.56,0,0,0,1.84,1.48c-.4.5-.85,1-1.37,1.56a3,3,0,0,0,.6,4.71c5.79,3.74,1.52,9.12-1.72,13.11a3.11,3.11,0,0,0,0,4.24,3,3,0,0,1,.71,2.14,114.49,114.49,0,0,0-24.92-10.62c-11.25-3.36-23.3-3.26-34.92-2.76-13.09.56-26.73,2.08-39,6.93-9.09,3.6-18.15,10.31-17.47,21.13.25,3.84,6.25,3.86,6,0-.61-9.8,9.59-14.35,17.48-16.93,11.52-3.77,23.94-4.85,36-5.25,10.22-.33,20.42-.12,30.32,2.66a99.47,99.47,0,0,1,23.42,10c-.76.75-1.52,1.4-2.07,1.88-2.18,1.87-.23,4.9,2.12,5.12a66.11,66.11,0,0,0,9.95,0,62,62,0,0,1,9.09,9.16c2.4,3,6.62-1.24,4.24-4.24a60,60,0,0,0-4.85-5.37l1.26,0c4.83,0,14.22-.37,11.94,6.72a3,3,0,0,0,2.09,3.69c7.25,1.62,13.3-1.37,19.46-4.48a12.42,12.42,0,0,1-1.2,4.53c-1.32,2.48,1.48,5.91,4.1,4.11,3.27-2.25,7-3.5,10.5-5.18.2.49.39,1,.58,1.47.2,1.73,1.8,3.69,3.8,2.89,8.11-3.23,15.11-8.57,23-12.22,2.05,4.87,6,8.51,11.51,4.58,5.83-4.12,8.93-11.18,13.52-16.46,3.51-4,9.11-6,13.93-7.91,1.49-.6,2.94-1.22,4.34-1.9-1,1.64-2,3.3-2.85,5a3,3,0,0,0,3.39,4.4,52.58,52.58,0,0,1,8.09-1.27c-.21.68-.43,1.36-.65,2a2.68,2.68,0,0,0,.5,2.56,13.52,13.52,0,0,1-1.31,3.4c-1.42,2.54,1.5,5.79,4.11,4.11,2.13-1.37,4.33-2.62,6.45-4,.88,3.6,2.41,7.13,5.41,9.16,4,2.72,8,1.24,11.29-1.45,2.66,5,6.72,8.93,12.62,9,.24.4.5.79.77,1.17-28,10.51-57.44,15-87.23,16.74-30.63,1.78-61.56,2.16-92.24,2-61.66-.38-123-11.22-182.11-28.75a370.07,370.07,0,0,1-42-15.13c-12-5.24-24.87-10.78-34.26-20.21-16.89-17-20.88-45.52-8.14-65.89,12.62-20.16,35.65-32.55,55.5-44.38,11.36-6.77,22.53-13.67,34.47-19.41a276.7,276.7,0,0,1,41.4-15.76,320.16,320.16,0,0,1,59.09-11.41c19.43-2,38.93-1.56,58.42-2.15,37.19-1.12,77.46-4.38,112.58,10.37,3.57,1.49,5.11-4.32,1.6-5.79-24.37-10.23-51.57-11.51-77.66-11.45-13.79,0-27.58.62-41.36,1s-27.61.18-41.4,1a328.29,328.29,0,0,0-84.47,16.29C996,500,973.24,513.15,950.15,527c-19.53,11.68-40.21,24.49-52.56,44.21-11.86,19-9.21,44.58,2.5,62.91,6.34,9.92,15.4,16.66,25.66,22.08A307.77,307.77,0,0,0,964.6,673c27.6,10,56.33,16.59,85,22.56,24.7,5.14,49.33,9.57,74.5,11.62,26.62,2.17,53.32,2.06,80,1.5,50.09-1,100.65-.87,148.16-19a3.09,3.09,0,0,0,1.34-1,12.9,12.9,0,0,0,5.94,2.37c3.63.47,6.26-1.91,8.06-4.85,5.58,7.68,12.59,14.4,22,16.82a3,3,0,0,0,3.79-2.9,20.31,20.31,0,0,1,.41-2.69,39,39,0,0,0,10.67,12c2,1.4,4.41-.52,4.51-2.59.14-2.83.68-5.53,1-8.24,5,3.93,10.52,7.55,16.48,9.3,3,.89,6.75.64,8.68-2.19.08-.12.14-.25.22-.37a35.77,35.77,0,0,0,2.91,3.24,2.76,2.76,0,0,0-1.89,2.71c-.2,58.4-20.62,113.65-37.22,168.86-8.17,27.2-15.3,54.72-18.92,82.92-3,23.51-2.74,47.22-7.6,70.52-4.11,19.72-11.94,38.45-25.34,53.68-16.83,19.14-41.1,31.49-64.78,39.86-27.93,9.87-57.75,12.79-87.2,11-27.61-1.66-54.27-8.37-80.79-15.82-45.79-12.86-93.27-31.57-116-76.41-13.22-26.11-19.64-55.11-25.24-83.63-2.78-14.15-5.32-28.35-8.31-42.46C962,905.12,958,890.66,954.75,876c-5-22.63-8.87-45.47-13.31-68.2-4.38-22.48-8.72-45.52-16.5-67.11-13.21-36.68-40.07-71.11-30.5-112.16.88-3.76-4.9-5.36-5.78-1.59-5.9,25.26,1,49.18,11.28,72.27,5.35,12,11.39,23.73,16.43,35.89,5.5,13.29,9,27.27,12.27,41.24,7.2,30.48,12.09,61.44,18.39,92.11,3.08,15,7,29.7,10.43,44.57,3.24,14,5.83,28.18,8.52,42.3,5.34,28,11.06,56.27,22.39,82.57,9.7,22.51,23.44,40.89,43.4,55.28,11.42,8.25,24,14.69,37.1,20.08-21.57,14.92-49.43,16.55-70.93,31.74-19.13,13.51-36.28,31.17-44.37,53.53-8,22-3.41,47.19,9.51,66.38,12,17.75,31,29,50.57,36.6,53.72,21,111.43,15,167.71,17.75,29.21,1.4,58,3.91,87.11-.5a433.61,433.61,0,0,0,55.1-11.93c36-10.36,75-26.83,97-58.67a74.62,74.62,0,0,0,11.93-56.55c-4.36-23.94-19.76-46.41-40.37-59.26-19.29-12-43.75-9.76-63.21-21.38.94-.64,1.89-1.27,2.82-1.92a110.41,110.41,0,0,0,38-45.9c8.24-18.66,11.38-39.06,13.28-59.22,1-10.77,1.36-21.58,2.38-32.34a337.85,337.85,0,0,1,6.06-38.19c5.23-24.78,12.69-49,20.2-73.19,15-48.28,30.51-97.18,30.83-148.22a29.17,29.17,0,0,0,9.57,4.4,3,3,0,0,0,3.39-1.38c.7-1.42,1.37-2.84,2-4.28a33.26,33.26,0,0,0,21.39,12.34c1.89.26,3.8-.75,3.8-2.89a125.52,125.52,0,0,1,.58-15.27c7.86.93,14.22-5,19.7-10.45a3,3,0,0,0,.47-3.64c-.25-.39-.52-.76-.79-1.12,3-1,5.93-2.49,9-3.38C1513.61,685.71,1514.6,682.84,1512.87,681.3ZM1316.46,492.1A79.16,79.16,0,0,1,1329,513.53c1.92,5.21,3.3,11.56.12,16.51a2.58,2.58,0,0,0-2.49,1.52c-1.83,3.34-4.21,6.32-6.07,9.6a29.07,29.07,0,0,1-5.45-6.26,3,3,0,0,0-1.1-1.12c-.3-1-.6-2-.89-3a2.66,2.66,0,0,0-.88-3.21c-4.75-17.78-7.56-36.57-18.29-51.68a3,3,0,0,0-2.21-1.3c-.9-2.09-1.75-4.22-2.66-6.31a45.12,45.12,0,0,1,9.73,6A98.6,98.6,0,0,1,1316.46,492.1Zm-13,61.5c-13.42-20.54-24.86-42.59-24.88-67.44a32.68,32.68,0,0,1,5.08,3.37c2.19,1.9,5.86.13,5-2.91a54,54,0,0,1-1.17-5.9c.65.21,1.3.42,1.94.68a2.81,2.81,0,0,0,1.1.19c9.1,14.4,11.72,31.87,16.15,48.38C1302.87,537.13,1302.25,545.54,1303.47,553.6Zm8.12,8.11c-2.48-6.82-3.6-14.87-2-22.16.37,1.08.75,2.16,1.16,3.23a2.83,2.83,0,0,0,.37.69c2.72,10.88,6.13,21.57,9,32.4C1316,571.89,1313.11,565.88,1311.59,561.71Zm26.44,3.72c-.66,4.73-2.3,14.11-8.45,14.56a9.51,9.51,0,0,1-2.27-.11c-2.66-11-6.07-21.7-9-32.58.18.22.36.42.53.65,1.54,2,4.64,1.94,5.49-.72a21.82,21.82,0,0,1,2.47-5c.46,2.38,1.1,4.76,1.77,7.24a3,3,0,0,0,5,1.33,24.67,24.67,0,0,1,4.56-2.84A66.41,66.41,0,0,1,1338,565.43Zm-12.55,550.46c11.35,6.93,24.2,9.43,37,12.22,14,3,26.34,7.77,37.19,17.34,15.1,13.31,26.38,33.88,28.21,54.59a2.84,2.84,0,0,0-3.3-.24,5.61,5.61,0,0,1-2.53.69c-.6-3.46-1.69-6.84-1.87-10.35a3,3,0,0,0-5.12-2.12,33.21,33.21,0,0,1-3,2.45,30,30,0,0,0,.23-11.15c-.32-2-2.86-2.67-4.41-1.8a28,28,0,0,0-4.8,3.52,53,53,0,0,0,.41-5.38c.06-2.81-3.23-3.7-5.12-2.12-3.29,2.74-6.23,6.37-9.78,8.87,1.24-3.45,2.66-6.85,3.65-10.41,1-3.73-4.75-5.31-5.78-1.59-1,3.52-2.39,6.9-3.63,10.33a2.94,2.94,0,0,0-3.77-1,38.76,38.76,0,0,0,2.15-13c0-2.86-3-3.55-4.85-2.22-.8-1.82-3.08-2.93-4.72-1-4.06,4.75-8.82,9.39-14.7,11.42a86,86,0,0,0,3-10.73c.82-3.41-3.83-5-5.4-2.51.71-2.7-3.64-4.79-5.66-2a34.58,34.58,0,0,0-4.41,8.1c-.68,1.78-1.28,4.38,0,6.06,2.2,3,7.17.25,5.33-2.78,0,0,0-.09,0-.17a12.16,12.16,0,0,1,.89-2.54,31.37,31.37,0,0,1,3.39-5.64c.05-.08.08-.16.13-.23s0,.09,0,.14c-1.25,5.18-2.21,10.4-5.27,14.88a3,3,0,0,0,2.6,4.51,28,28,0,0,0,15.41-5.72,3.12,3.12,0,0,0,4.52.39c1-.9,2-1.71,3-2.51a21.9,21.9,0,0,1-3.25,7.78,3,3,0,0,0,1.79,4.41c3.29.84,5.56.3,8.42-1.13-.18.63-.35,1.26-.49,1.89a3,3,0,0,0,3.69,3.69c4.89-1.1,8.55-4.16,12.06-7.47a51.31,51.31,0,0,1-2.39,8.24c-1.3,3.46,3.62,4.78,5.49,2.31a58.33,58.33,0,0,1,7-8.08,24.85,24.85,0,0,1-3.26,10.62c-1.41,2.53,1.5,5.79,4.11,4.11s5.06-3.15,7.48-4.85a48.5,48.5,0,0,1,1.37,7.82,3,3,0,0,0,3,3,28.85,28.85,0,0,0,4.62-.27,18.49,18.49,0,0,1,.28,7.61,3.18,3.18,0,0,0,2.71,3.71c-7.17,38-44,60.74-77.36,74.07-18.55,7.4-37.93,12.67-57.45,16.78-22.57,4.74-45,7.55-68.13,7-16.21-.36-32.37-1.77-48.56-2.45-16.39-.68-32.83-.34-49.22-.48-28.85-.25-57.44-2.12-85.54-8.92-21.55-5.2-43.32-13.27-60.24-28-18.17-15.84-28.07-40.72-24-64.69,1.87-11.12,6.65-21.24,13.1-30.33a71.16,71.16,0,0,0,8.17,52.63c10.88,18.35,29.18,31.66,48.29,40.39,22.5,10.28,46.77,12.6,71.17,14.37,30,2.17,60,2.24,90,1.67,26-.49,52.46-.32,78.25-3.52,27.34-3.41,53.84-11.42,80.07-19.56,15.39-4.77,30.68-9.21,45.41-15.87,12-5.42,29.73-14,32.42-28.54.7-3.78-5.08-5.4-5.79-1.6-1.45,7.83-8.69,13.1-15,17.15-8.62,5.55-18.22,9.59-27.79,13.2-21.22,8-43.52,14.13-65.38,20.07a326.54,326.54,0,0,1-47.76,9.6c-14.68,1.71-29.6,1.77-44.36,2.26-29.93,1-59.9,1.53-89.85.64-38.84-1.14-79.75-2.23-113.75-23.21-14.08-8.7-26.32-20.65-33.81-35.51-8.2-16.25-7.91-34.69-2-51.6a2.55,2.55,0,0,0-.34-2.5,147.49,147.49,0,0,1,20.89-18.68c21.38-15.93,49.08-18,71.35-32.11.84-.55,1.67-1.13,2.49-1.72a3,3,0,0,0,1.29-2.94c7,2.75,14.18,5.22,21.3,7.51,24.43,7.86,49.63,14.77,75,18.67,38.5,5.92,79,3.85,115.74-8.93-1.91,1.66-4.4,3.39-6.59,3.49-3.86.17-3.87,6.17,0,6,4.59-.21,9-3.36,12.14-6.45,1.71-1.65.77-3.87-.85-4.74a187.12,187.12,0,0,0,33.74-16.64A2.82,2.82,0,0,0,1325.48,1115.89ZM1315.65,640c.42-.45.83-.91,1.24-1.36-.13.38-.25.76-.38,1.14l-.87.23Zm1.4,17.79c.17-.84.35-1.68.59-2.51,0-.13.06-.26.08-.39q1.1-3.27,2.21-6.52a2.09,2.09,0,0,0,.35,0c-.62,1.37-1.21,2.75-1.75,4.16a2.76,2.76,0,0,0,2.19,3.62A13.82,13.82,0,0,1,1317.05,657.77Zm10.6-26.89a33.56,33.56,0,0,1-3.25,3.88c1.1-3.64,2.1-7.31,2.94-11l.27-.46c.38-.68.74-1.39,1.1-2.12.58-.42,1.18-.82,1.79-1.2a30,30,0,0,1,.37,4Q1329.13,627.37,1327.65,630.88Zm-37.91,17.84c-8.43,3.58-12.55,9.47-17.71,16.55a27,27,0,0,1-5.76,6.38c-2.29,1.62-2.8-3-3.2-4.62a3,3,0,0,0-3.69-2.1c-8.05,3.22-15,8.49-22.8,12.14a13.81,13.81,0,0,0-2.13-3.57,3,3,0,0,0-3.63-.47,64.23,64.23,0,0,1-7.45,3.55,34.65,34.65,0,0,1,.72-4.61c.68-2.74-2.07-4.45-4.41-3.39-5.41,2.43-11,6.64-17.13,6.67,1.12-11.26-14.29-11.3-26.45-10.73q-1.74-1.34-3.55-2.56a9.34,9.34,0,0,0-.09-7.26c4.51-6.11,7.15-13,1.76-18.46,3.12-4.23,3.81-8.38,1.67-13.35,4.22-4,7-9,9.22-14.4.55-1.33-.4-2.65-1.38-3.39a6,6,0,0,0-.91-.57c4.29-5.52,9.87-9.86,14.88-14.77a3,3,0,0,0,.47-3.63c-.18-.28-.35-.53-.53-.77,7.4-2.87,14.85-5.46,21.73-9.6a3,3,0,0,0,1.39-3.19,34.89,34.89,0,0,0,12.65-7.38,1.42,1.42,0,0,0,.12-.13c4.21-.48,8.43-1,12.65-1.4a66.71,66.71,0,0,1,28.65,3.45c10.56,3.73,18.47,11.92,27.19,18.76-2.36.58-4.68,1.26-6.91,1.94a207.7,207.7,0,0,0-27.86,11.34c-9.71,4.6-19.83,9.25-28.88,15.06-13.49,8.68-24.48,20.69-37.62,29.87-3.15,2.19-.15,7.4,3,5.18,11.39-8,21.24-17.77,32.3-26.14,8.09-6.11,17.27-10.4,26.3-14.93A282.14,282.14,0,0,1,1289.79,596a90.82,90.82,0,0,1,19-5.3l1.11.69a2.84,2.84,0,0,0,4-1.12c.95,0,1.9,0,2.86,0,13.51.62,13,11.54,8.9,22.3a2.73,2.73,0,0,0-2.68,2.15c-.42,1.4-.74,2.82-1.07,4.24a46,46,0,0,0-11.69,18q-1.14,1.14-2.31,2.25C1302.86,644,1296,646.05,1289.74,648.72Zm17.39,4c1.33-2.17,2.73-4.29,4.17-6.39l.1,0a18.76,18.76,0,0,0,2.91,0c-.64,1.88-1.29,3.77-1.93,5.66C1310.65,652.31,1308.89,652.5,1307.13,652.7Zm174.35,45.64a3,3,0,0,0-3.69,2.1,95,95,0,0,0-1.21,16.06A28.5,28.5,0,0,1,1458.77,702c-1.5-2.82-5.38-1.27-5.59,1.51a18.58,18.58,0,0,1-1.9,6.39c-8.17-3-13.8-10.15-16.71-18.32-1.28-3.61-7-2.1-5.78,1.59.6,1.81,3.08,7.47,1.42,9.26-.52.55-4.45-1.13-5.48-1.62a73.08,73.08,0,0,1-15.43-10.55,3,3,0,0,0-5,2.91,23.43,23.43,0,0,1-.42,7.86c-3.68-3.87-6.15-8.67-8.58-13.51-1.44-2.87-5.39-1.23-5.59,1.52a43.46,43.46,0,0,1-1.54,7.21c-8.09-3.24-13.85-10.36-18.48-17.64a3,3,0,0,0-5.49.72c-.82,2.66-2.06,6.47-5.5,5.54-2.68-.72-4.53-4-5.72-6.26a2.92,2.92,0,0,0-2.59-1.48c-5.82.6-8.7-4-10.47-8.94-.7-1.94-3.43-3.17-5-1.32s-4.52,5.82-7.18,3.4c-2.22-2-2.9-6.11-3.28-9,12.53-7.9,18.21-29.75,22.15-41.65a3,3,0,0,0-1.83-3.56c.07-.35.13-.69.19-1a20,20,0,0,0,9.67.46c7.58,3.73,15.48,6.87,23.26,10.11,13.08,5.45,26.18,10.87,39,16.93,12.15,5.75,24.19,12.08,35,20.16,7.62,5.71,16.42,13.89,16.93,24.07.19,3.85,6.19,3.87,6,0-.52-10.32-7.3-18.57-14.76-25.12-10.26-9-22.56-15.64-34.72-21.68-13.3-6.61-27-12.33-40.69-18-7-2.9-14.23-5.69-21.15-8.82a75.47,75.47,0,0,0,7.25-3.1c1.28-.63,2.54-1.31,3.81-2,3.73,0,7.45.25,11,.51a186.18,186.18,0,0,1,36.12,6.55c14.37,4,28.14,8.17,41.4,15.19a85.36,85.36,0,0,1,17.19,11.64,52.22,52.22,0,0,0,12.14,8.57c-1.38,5,.46,10.77,2.51,15.36a62.24,62.24,0,0,0,10.52,16.48c-2.62,1.15-5.26,2.34-8,2.58-2.14.19-3.9,2.44-2.6,4.52a28.88,28.88,0,0,0,2,2.63C1492.58,696.22,1487.69,700.54,1481.48,698.34Z" transform="translate(-886.49 -434.71)"/><path d="M958,722.76c3.37,1.92,6.39-3.26,3-5.18-8.11-4.62-16.4-9.05-26-8.21-3.82.34-3.85,6.34,0,6C943.57,714.62,950.74,718.64,958,722.76Z" transform="translate(-886.49 -434.71)"/><path d="M990.67,736.53a9.88,9.88,0,0,1,6.78,2.47c2.82,2.65,7.07-1.59,4.25-4.25a16.19,16.19,0,0,0-11-4.22C986.79,730.46,986.8,736.46,990.67,736.53Z" transform="translate(-886.49 -434.71)"/><path d="M1021,756.68a4,4,0,0,0,3.1,1,3.6,3.6,0,1,0-4.12-4.11A4.42,4.42,0,0,0,1021,756.68Z" transform="translate(-886.49 -434.71)"/><path d="M1051.92,763h-1.12a3,3,0,0,0,0,6h1.12a3,3,0,0,0,0-6Z" transform="translate(-886.49 -434.71)"/><path d="M1072.36,773.23a4.6,4.6,0,0,0,2.94,1.17,3,3,0,0,0,3-3,3,3,0,0,0-2.17-2.85l-.11-.1a4.6,4.6,0,0,0-2.94-1.17,3,3,0,0,0-3,3,3,3,0,0,0,2.17,2.85Z" transform="translate(-886.49 -434.71)"/><path d="M1360,876.83a67.41,67.41,0,0,1-12.36,6.2,33.36,33.36,0,0,1,2-7.66c1.15-2.63-1.28-5.7-4.1-4.1-6.67,3.76-14.18,7.94-21.48,3.34a3,3,0,0,0-3,0c-8.59,4.54-14.57,12-21.37,18.57.21-3.08.26-6.18.26-9.3s-4-3.94-5.59-1.52A299,299,0,0,0,1271.65,924c-5.82,12.81-13.27,28.67-11,43.14.59,3.81,6.37,2.19,5.79-1.6-.93-6,.9-12.34,2.57-18a169,169,0,0,1,9-22.92,304.79,304.79,0,0,1,15.62-29.72c-.15,1.65-.35,3.31-.64,5a3.06,3.06,0,0,0,5,3c8.74-6.79,15-16.7,24.52-22,6.63,3.53,13.4,2,19.83-1-.45,2.2-.85,4.41-1.47,6.63a3,3,0,0,0,3.69,3.68,49.63,49.63,0,0,0,14.71-5.89c2.08,18.82-5.41,36.21-17.44,50.73a156.32,156.32,0,0,1-46,37.08c-2.72,1.45-6,3.11-9.13,3.05-.57,0-.14-2,.14-3.13,1.8-7.14,6.82-13.81,11-19.69,8.18-11.43,17.52-21.82,26.86-32.22a3.41,3.41,0,0,0,1.78-2c5.83-6.49,11.63-13,17.12-19.83,2.41-3-1.81-7.25-4.24-4.24-5.09,6.31-10.45,12.38-15.85,18.41-1.86-2.57-3.42-5.69-3.53-8.49-.15-3.86-6.15-3.88-6,0,.19,4.59,2.54,9.3,5.45,13-11.13,12.4-22.22,24.82-31.3,38.92-3.37,5.24-8.49,12.9-7.63,19.53.83,6.42,7.38,6.18,12.19,4.55,10.41-3.54,19.8-11,28.45-17.58A158.38,158.38,0,0,0,1346,939.21c14.53-17.09,22.49-38.13,18.4-60.58C1364.06,876.71,1361.56,875.9,1360,876.83Z" transform="translate(-886.49 -434.71)"/><path d="M1290.29,1003.94c.16-.08.32-.16.47-.25,3.89-2.18,11.57-8.55,4.34-12.15a3.14,3.14,0,0,0-4.36,1.82c-1.63-5.71-7-7.55-12.79-7.81a4.68,4.68,0,0,0,0-.55v-4.23a3.16,3.16,0,0,0-3.17-3c-11.7,1.38-22.76,6.43-34.62,6.68a3.09,3.09,0,0,0-3,3c-.31,5.11-9.82,6.69-13.57,7.5a88.18,88.18,0,0,1-18,1.75c-3.31,0-4.15,5.22-.75,5.89a8.77,8.77,0,0,1,3.7,2.2c-11,6.49-22.59,10.5-33.38,16.82a3,3,0,0,0,0,5.18c12.17,7.18,29.27,6.73,42.85,6.21,6.17-.24,12.41-.75,18.61-1.6a3.19,3.19,0,0,0,.48,5.72,69.18,69.18,0,0,1,6.51,2.78,31.57,31.57,0,0,1-3.38,5.57,3,3,0,0,0,2.13,5.12,25.72,25.72,0,0,1,4.6.86,16.74,16.74,0,0,1-5.4,3.27,3,3,0,0,0,0,5.78c2.33.84,4.59,1.77,6.91,2.46-3,3.11-7.27,4.82-11.37,6.24a3,3,0,0,0,.8,5.89l1.38.07c-2.67,2-5,4.36-5.39,7.27-.56,3.78,5.22,5.41,5.79,1.59s8.53-7.52,11.48-9.81c1.9-1.48.8-3.91-1-4.77a18.39,18.39,0,0,0,5.91-7,3.08,3.08,0,0,0-2.66-4.52,15.94,15.94,0,0,1-4.16-.94c1.88-1.48,3.64-3.13,5.67-4.6a3,3,0,0,0-1.48-5.59,35,35,0,0,1-6.32-1.32,25.23,25.23,0,0,1,2.91-4.7c1.17-1.38,1.25-3.79-.6-4.71a100.77,100.77,0,0,0-10.74-4.76,3.37,3.37,0,0,0-.57-.14,128.31,128.31,0,0,0,32.13-8.78C1278.53,1018.84,1287.35,1012.6,1290.29,1003.94Zm.93-7.85.07.07,0,0S1291.23,996.13,1291.22,996.09Zm-6.57-1.85a7.7,7.7,0,0,1,.56,5.65c-1.48.75-3,1.44-4.48,2.12a194.92,194.92,0,0,1-22.06,8.24,154.43,154.43,0,0,1-20.93,4.71c-9.1,1.51-20,2.26-28.52-2,1.35-.53,2.68-1.09,4-1.61,6.23-2.47,12.41-5,18.65-7.49,13.25-5.21,27.4-11.07,41.71-12.32C1276.94,991.27,1282.58,990.86,1284.65,994.24Zm-69.78,8.44-.35-.24c2-.12,4.21-.31,6.39-.59l-4.93,2A3,3,0,0,0,1214.87,1002.68Zm25.43-8.46a11,11,0,0,0,2.26-3.89c10.06-.74,19.55-4.52,29.44-6.15V985a3.43,3.43,0,0,0,.08.74c-1.83.18-3.57.45-5.09.72A151.8,151.8,0,0,0,1240.3,994.22ZM1203,1027c-6.32-.3-13.62-.8-19.84-3,6.07-3.11,12.37-5.76,18.5-8.72,9.93,7.46,23,7.58,34.92,5.89a157.91,157.91,0,0,0,27.89-6.49c5.4-1.8,10.84-3.74,16.12-6-10.11,11.09-29.3,14.33-43.2,16.5A172.07,172.07,0,0,1,1203,1027Z" transform="translate(-886.49 -434.71)"/><path d="M971.42,888.78a3,3,0,0,0-2.92,5c9.1,9.61,21.14,17,32.42,23.7,14.59,8.67,30.47,16.53,47.17,20.07a58.68,58.68,0,0,0,10.2,1.29c-5.45,3.87-8.68,9.22-7.38,14.59a4.94,4.94,0,0,0-1.81-.35c-3.37,0-6,2-9.13,2.5-3.81.65-2.18,6.43,1.61,5.79l.49-.11a3.22,3.22,0,0,0-.87.53c-5.12,1.33-10.56,1.53-15.69,2.7-2.92.67-2.83,5.07,0,5.79,8.44,2.14,16.67,1.16,25-1.12,2.43-.66,2.63-3.08,1.45-4.62a3.21,3.21,0,0,0,1.2-4.57,8.52,8.52,0,0,0,.29-1.65,17.76,17.76,0,0,0,2.15,2.21c6.2,5.43,14.29,7.41,22.26,8.47,1.89.25,3.77.44,5.66.6-3.27.81-6.55,2-9.89,3.17a3.36,3.36,0,0,0-3.56-1.6c-14.81,4-27.3,13.47-40.81,20.35a3,3,0,0,0-.6,4.71c.75.63,1.55,1.2,2.35,1.76-4.4,5-10.46,8.08-16.22,11.35-2.77,1.57-1.32,5.35,1.51,5.59a282.79,282.79,0,0,0,62.09-1.86c11-1.51,22-3.65,32.25-7.79,7.7-3.09,15.63-7.63,19.62-15.22a3.07,3.07,0,0,0-1.08-4.11,42.33,42.33,0,0,0-6.12-3.55A3.15,3.15,0,0,0,1125,980a36.57,36.57,0,0,0,8.15-4.86c2.63-2-.33-5.48-2.92-5a42.65,42.65,0,0,0-16.7,6.5c-.47,0-.93.07-1.41.07a2.85,2.85,0,0,0-2.72,1.9c-22.66-2.61-47.61,10.74-68.26,17.14A2.9,2.9,0,0,0,1039,999a3.3,3.3,0,0,0-1.29.08l0-.07a3,3,0,0,0-.47-3.64c-.33-.27-.67-.53-1-.79,9.77-5.38,19.18-11.8,29.61-15.72a3.43,3.43,0,0,0,3.49,1.48c9.07-2.25,18.63-9.09,27.76-3.64,3.33,2,6.34-3.21,3-5.18a19.89,19.89,0,0,0-2.65-1.33c4.36,0,8.73-.18,13.08-.44a265.17,265.17,0,0,0,31.72-3.31c11.47-2.11,20.21-8.78,22.7-20.49.37-1.71-.83-4-2.89-3.8-5.11.61-10.09.29-10.36-5.91a3.08,3.08,0,0,0-3-3,49.59,49.59,0,0,0-18.26,1.73l.75-1.33a82.53,82.53,0,0,0,7.38-5.3c1.92-1.56.55-4.3-1.33-5-4.48-1.7-9.76-1.56-14.47-1.43a155.83,155.83,0,0,0-21.54,2.4c-6.15,1.06-12.52,2.33-18.76,4.06h0c10.53-15.57-1.75-35.87-11.56-48.37-8.38-10.67-17.84-19.34-30.32-24.77-17.09-7.44-35.28-13-50.15-24.66-2.21-1.73-5.9-.24-5,2.92.84,3,1.28,6,2,9a21.13,21.13,0,0,1-3.87-.43A3.05,3.05,0,0,0,980,844.1c-3.56,11.71.34,25.79,8.52,35.46a2.44,2.44,0,0,0-.83,2.09C989,892.08,978.55,890.5,971.42,888.78Zm76.84,70.35c.75-.16.43,0,0,0Zm-5.25,1.93-.34.05c1.38-.43,2.75-1.16,4.09-1.59h0a6,6,0,0,1-2.07,1.17l-.78.29C1043.63,961,1043.32,961.05,1043,961.06Zm-6.58,43c.11.11.22.23.32.35s0,0,0,.06l.12.16c.27.38.53.78.79,1.17a20.15,20.15,0,0,0,2.06,2.71,3,3,0,0,0,4.25-4.24l-.32-.34,0-.06-.12-.17c-.28-.38-.53-.78-.79-1.17l-.64-.92a3.25,3.25,0,0,0,.59-.12c24.25-7.51,56.06-26.47,80.83-12-4.1,5.56-11,8.75-17.28,11.1a116.24,116.24,0,0,1-19.69,5.2,11.53,11.53,0,0,0-5.28-5.34,3,3,0,1,0-3,5.18,8.31,8.31,0,0,1,1.78,1.22c-1.62.23-3.23.46-4.84.66a287.16,287.16,0,0,1-49,2.06,44.54,44.54,0,0,0,9.38-7.8A3.13,3.13,0,0,0,1036.43,1004.05ZM1122,927.92c-9.37,2.66-19.58,6-24.11,14.29l-.38.12c-6.78,1.72-13.41,3.79-19.67,5.48-3.74,1-2.16,6.73,1.59,5.78,6.55-1.65,13.31-3.48,20-5.63l.09,0a3.26,3.26,0,0,0,1.87-.46c10.82-2.59,21.91-3.93,32.11-.56,3.69,1.22,5.25-4.58,1.6-5.79-.69-.22-1.38-.42-2.07-.61a46.1,46.1,0,0,1,13.12-1.46c1.31,6,5.94,8.89,11.88,9.22-3.75,9.07-12.7,12-22.66,13.16-9.46,1.11-19,2.05-28.57,2.51-10.94.52-22.15.47-32.94-1.62-6.24-1.21-14.17-3.78-17.3-9.89-4.24-8.28,18.87-15.38,23.25-16.8A158.25,158.25,0,0,1,1122,927.92ZM993.73,886c2,.8,4,1.63,6,2.44.41.2.83.39,1.25.57a3.57,3.57,0,0,0,.7.2c2,.76,4,1.46,6,2a3,3,0,0,0,3.69-3.69c-.21-.71-.38-1.41-.52-2.1,13.39,6.84,23.8,18.1,35.6,27.29a3.36,3.36,0,0,0,.75.43c4.16,4.56,8.79,8.61,14.33,11.17,3.49,1.62,6.54-3.55,3-5.18-10.94-5.06-18.3-16.34-25.38-25.62-7.52-9.85-15.23-20-25.85-26.72-3.28-2.07-6.29,3.12-3,5.18,7.77,4.91,13.91,11.89,19.59,19.17-6.65-5.32-13.63-10.15-21.73-13.51-1.84-.77-3.81,1.12-3.8,2.89,0,1.14.08,2.25.2,3.36-1.06-.39-2.11-.8-3.15-1.22-11.54-5.67-18.62-21.91-16.26-34.49a22.92,22.92,0,0,1,5.82.72c2.77.9,4.35-2.21,3.39-4.41a25,25,0,0,1-1.5-5c8.91,5.83,18.59,10.2,28.52,14.26,10.93,4.47,22.43,8,31.55,15.76a98.29,98.29,0,0,1,20.79,25.07c4.6,7.83,8.79,17.54,5.74,26.62-4.77,14.18-21.82,12.66-33.44,9.78-16.85-4.17-32.7-12.7-47.34-21.81a174.32,174.32,0,0,1-19.25-13.37C986.46,895.73,992.84,893.33,993.73,886Z" transform="translate(-886.49 -434.71)"/><path d="M1051.17,666c6-7.75,13.43-16.27,14.68-26.37s-4.24-18-11-24.81c-13.67-13.87-33-22-43.81-38.71-2.1-3.24-7.29-.23-5.19,3,9.48,14.64,25.12,23.31,38.31,34.12,7.27,6,15.7,13.53,15.9,23.6.18,9.7-8.6,19-14.11,26.12C1043.62,666,1048.84,669,1051.17,666Z" transform="translate(-886.49 -434.71)"/><path d="M1042.24,705.69c.29,8.89-5.71,14.91-11.37,21-5.47,5.87-10.11,12-10.91,20.22-.37,3.85,5.63,3.81,6,0,.82-8.41,7.69-14.28,13-20.16s9.53-12.71,9.26-21C1048.11,701.83,1042.11,701.82,1042.24,705.69Z" transform="translate(-886.49 -434.71)"/><path d="M1015.62,779.51c-2.35,6.16-3.56,12.67-5.57,18.93-1.19,3.7,4.6,5.27,5.78,1.6,2-6.27,3.22-12.78,5.57-18.94C1022.78,777.48,1017,775.93,1015.62,779.51Z" transform="translate(-886.49 -434.71)"/><path d="M1018.11,821.88c13.51,8.72,33.74,10.74,43.47,24.53,2.21,3.14,7.41.15,5.18-3-10.68-15.14-30.89-17.19-45.63-26.69C1017.87,814.59,1014.87,819.79,1018.11,821.88Z" transform="translate(-886.49 -434.71)"/><path d="M1108.71,864.61c47.94-4.06,53.35-60.66,83.42-87.75,2.88-2.59-1.37-6.82-4.24-4.24-15,13.53-23.31,32.8-33.38,49.93-10.4,17.7-23.94,34.21-45.8,36.06C1104.89,858.93,1104.86,864.93,1108.71,864.61Z" transform="translate(-886.49 -434.71)"/><path d="M1230.42,854.48c3.78.55,5.41-5.23,1.6-5.79-5.81-.85-11.67-2.78-13.48-8.94-1.58-5.4.48-11.63,2.32-16.69,4.24-11.65,11.51-22.2,18.52-32.33,2.21-3.19-3-6.18-5.18-3C1222.92,804,1193.32,849.07,1230.42,854.48Z" transform="translate(-886.49 -434.71)"/><path d="M1335.54,836.7c-6.94,14.31-20.09,16.73-34.73,15.94-14.17-.75-28.48-3.91-42.55-.61-3.76.88-2.17,6.67,1.6,5.79,24-5.63,57.23,10.23,75.2-9.56a2.93,2.93,0,0,0,3.07.53,3,3,0,0,0,3.24-4.9,19.29,19.29,0,0,0-1.9-1.78c.43-.76.85-1.55,1.25-2.38C1342.4,836.27,1337.23,833.22,1335.54,836.7Z" transform="translate(-886.49 -434.71)"/><path d="M1300.77,718.19c-9.57-1.15-18.88-3.92-28.51-5-10.15-1.12-20.85-1.13-30.62,2.12-8.47,2.82-17.22,10.12-18.35,19.49s7,15,14.21,19.12c4.33,2.49,9.87,3.63,14.64,4.9s10.49,3,15.51,2.09c3.81-.69,2.19-6.48-1.59-5.79-3.46.63-7.85-1-11.16-1.79a118.08,118.08,0,0,1-12.6-3.85,31.19,31.19,0,0,1-10-6.36c-4.93-4.56-3.15-10.24.55-15,6-7.8,17.2-9.28,26.36-9.52,10.61-.29,21.22,1.5,31.55,3.76,8.36,1.83,16.71,2.45,25.23,3.19s18.15,2,24.59,8.26c8.16,8,6.79,22.41,5.67,32.67-1.53,13.91-5.08,27.59-4.48,41.68.17,3.85,6.17,3.87,6,0-.59-14,2.8-27.82,4.48-41.68,1.32-11,1.63-23.47-4.44-33.17C1338.3,718,1316.21,720.05,1300.77,718.19Z" transform="translate(-886.49 -434.71)"/><path d="M1235.67,1120.75a65.61,65.61,0,0,0,19.73-3.45c3.67-1.19,2.1-7-1.59-5.78-1,.32-2,.61-3,.9.07-2.13-2.1-4.3-4.42-2.83a18.47,18.47,0,0,1-9.62,2.93,2.86,2.86,0,0,0-2.88,2.8C1231.94,1116.83,1232.53,1120.79,1235.67,1120.75Z" transform="translate(-886.49 -434.71)"/><path d="M1236.34,1104.07a5.19,5.19,0,0,1,2.66-3.55,2.47,2.47,0,0,0,1.09-.52c4-1.62,10.11-1.15,13.4-1.52,3.8-.44,3.84-6.44,0-6-1.23.14-2.59.23-4,.32A29.08,29.08,0,0,0,1255,1087c2.24-3.17-3-6.16-5.18-3-4.08,5.76-10.66,8.67-17.14,10.87-2.15.73-3,3.61-1.26,5.1a11,11,0,0,0-.84,2.56C1229.8,1106.25,1235.58,1107.86,1236.34,1104.07Z" transform="translate(-886.49 -434.71)"/><path d="M1126.22,1079.22c-2.51-.49-5-.93-7.54-1.39,1.39-.15,2.79-.35,4.2-.62,3.41-.67,2.49-5.85-.8-5.89a51.59,51.59,0,0,1-12.4-1.62,42.06,42.06,0,0,0,6.51-1.4c3-.92,2.68-4.73,0-5.79-3.24-1.27-6.52-2.47-9.68-3.93,2.12-.84,4.21-1.77,6.34-2.53a3,3,0,0,0,0-5.79,16,16,0,0,1-5.25-3.25,3,3,0,0,0,1-4.88c-.59-.59-1.14-1.19-1.67-1.81a64.79,64.79,0,0,1,7-3.2,3,3,0,0,0,2.2-2.9,6.12,6.12,0,0,0-4.48-5.75c-3.48-1-6.06.76-9.34,1.75-2.78.83-2.58,4.32-.72,5.52a3,3,0,0,0-2.19,4.45,26.52,26.52,0,0,0,1.93,2.79,5.24,5.24,0,0,0-1.93,2,3,3,0,0,0,1,4.11,53.28,53.28,0,0,1,4.95,3.6,21.39,21.39,0,0,1-6.78,1.94c-3,.23-3.73,3.85-1.25,5.59a42.11,42.11,0,0,0,7.19,4,44.6,44.6,0,0,1-8.15-.52c-3.32-.5-5.35,3.48-2.41,5.48l.77.5-1.89-.41a3,3,0,0,0-1.62,0,2.62,2.62,0,0,0,.47-1.62,7.18,7.18,0,0,0-.79-2.81c-.09-.21-.2-.42-.31-.63l0-.15v0a3,3,0,0,0-6,.2,7.35,7.35,0,0,0,.79,2.82l.31.63a.4.4,0,0,1,0,.15v-.09l0,0a3,3,0,0,0,3,2.79,2.76,2.76,0,0,0,1-.2,3,3,0,0,0,1,4.25,51.74,51.74,0,0,0,12.39,5.59,74.59,74.59,0,0,0-13.91,1.18c-2.69.53-2.84,4.18-.81,5.48,6.48,4.16,13.65,6.86,20.61,10-7.19-1.11-14.42-3.66-21.4-4.48-3.28-.39-3.66,4.06-1.52,5.59,4.88,3.48,10.35,5.73,15.85,7.93l-.18,0c-3.31-1.18-5.11,3.74-2.32,5.48a50.79,50.79,0,0,0,10.74,4.76c2.16.72,3.58-1,3.66-2.75,1.52-.11,3.06-.32,4.62-.59,2.67-.47,2.79-4.25.72-5.49a72.91,72.91,0,0,0-9.05-4.44,36.58,36.58,0,0,0,11.67-.1c2.72-.5,2.73-4.19.72-5.48-7.23-4.64-15.34-7.47-23-11.14,8.91-.46,17.94.4,26.78-1.2C1129.11,1084.48,1129.07,1079.78,1126.22,1079.22Zm-40.54-11.44a.62.62,0,0,1,0-.15,1.08,1.08,0,0,0,0,.19Zm4.87-3.64v.15a1.1,1.1,0,0,0,0-.18Z" transform="translate(-886.49 -434.71)"/><path d="M1048.94,1048.3c-1.24-2.54-2.1-5.25-3.34-7.79a3,3,0,1,0-5.18,3c1.24,2.55,2.1,5.26,3.34,7.8a3,3,0,0,0,4.1,1.08A3.06,3.06,0,0,0,1048.94,1048.3Z" transform="translate(-886.49 -434.71)"/><path d="M1099.45,1028.81l.25-.26a3,3,0,0,0-4.24-4.24A7.7,7.7,0,0,0,1094,1026a5.51,5.51,0,0,0-.55,2.63,3,3,0,0,0,6,.15Z" transform="translate(-886.49 -434.71)"/><path d="M1054,1067.53a3,3,0,0,0,0-4.24l-.1-.1,0,0a.25.25,0,0,1,0-.07s0-.09,0-.14l0-.07v-.06c0-.25,0-.5,0-.74a3,3,0,0,0-6,0,7.49,7.49,0,0,0,2,5.46A3,3,0,0,0,1054,1067.53Z" transform="translate(-886.49 -434.71)"/><path d="M1085.68,1067.89c0,.32,0,.18,0,0Z" transform="translate(-886.49 -434.71)"/><path d="M1090.54,1064c0-.32,0-.18,0,0Z" transform="translate(-886.49 -434.71)"/><path d="M1165.51,1147.48c9.49.24,18.33,4.21,27.84,4.45,3.87.1,3.87-5.9,0-6-9.48-.24-18.33-4.21-27.84-4.45C1161.64,1141.38,1161.65,1147.38,1165.51,1147.48Z" transform="translate(-886.49 -434.71)"/><path d="M1192.64,1157.48c-7.29-4.62-15.64-6.82-24.1-8.1-3.79-.57-5.41,5.21-1.6,5.79,8,1.2,15.8,3.14,22.67,7.49C1192.89,1164.74,1195.9,1159.54,1192.64,1157.48Z" transform="translate(-886.49 -434.71)"/><path d="M1197.49,1179.45a89.06,89.06,0,0,0-11.34-2.09c-2.5-.33-5.82-.38-8.87-.84a3.25,3.25,0,0,0-1-2.14,66.88,66.88,0,0,1,14,1.95c3.75,1,5.33-4.81,1.59-5.79a61.61,61.61,0,0,0-6.54-1.33l2.08-.68c2.54-.84,3.17-5.32,0-5.78a90.06,90.06,0,0,0-9.57-.75c-1.52-.06-3.05-.13-4.57-.24-.7,0-1.39-.11-2.08-.21-.32,0-.56-.08-.74-.12-.79-2.19-4-3.28-5.3-.65-1.81,3.76.73,5.64,4.62,6.58-1.67.37-3.35.69-5,1-3.42.53-2.53,5.9.76,5.9,2.18,0,4.35,0,6.52,0-.5.06-1,.08-1.6.1a3,3,0,0,0-2.59,1.49l-.06.14a3.08,3.08,0,0,0,1.08,4.11c2.7,1.56,6.36,1.93,9.64,2.29a142.61,142.61,0,0,1-25.22.3c-3.38-.25-4.11,5.19-.82,5.9,7.73,1.65,15.91,2.5,23.47,5-8.33,1.29-16.84,1.35-25,1.35-4,0-4,6,0,6h2.91c6.8,0,13.94,0,20.58,1.5a141.54,141.54,0,0,1-19,1.41c-3.43,0-3.86,4.47-1.07,5.77a3,3,0,0,0,.27,5.69,51.42,51.42,0,0,0,20.61,2.61c2.42.2,4.84.41,7.24.68a126.67,126.67,0,0,1-17.9,3.3c-6-.18-12-.23-18.06-.23-3.29,0-4.22,5.42-.8,5.89.23,0,.46.22.69.25v.2h.26c4.86,0,9.76.52,14.66.21a112.2,112.2,0,0,1-17.2.22c-3.35-.22-4.07,5.36-.71,5.85,8.22,1.21,16.58,1.77,24.81,3a161.46,161.46,0,0,1-19.74-2.17c-3.73-.6-5.55,4.89-1.55,5.82v0h-.09c3.61,1,7.25,1.57,10.9,2.21-3.41.21-6.81.47-10.18.75-3.8.31-3.89,6,0,6l.34,0h.07c7.42,0,14.81-.47,22.18-1.19l1.74,0c-8.38,1.17-16.79,1.74-25.2,3.08-2.87.46-2.83,5.34,0,5.78,3.22.5,6.45.83,9.68,1.05-1,1.34-1.16,3.3.79,4.22a65.41,65.41,0,0,0,15.21,4.68c-3.12,2-6.59,3.48-8.83,2.39-3.47-1.68-6.52,3.49-3,5.18,6.86,3.32,15.6-2.65,20.84-6.68,1.78-1.37,2.19-5-.71-5.48-2.62-.44-5.25-.86-7.85-1.38,5.25-.73,10.48-1.62,15.64-2.86,3.33-.8,2.32-5.91-1-5.9l-4.29.05c2.44-.54,4.88-1.17,7.31-2,2.75-.87,3.11-5,.13-5.78-.4-.11-.8-.19-1.2-.28a3.43,3.43,0,0,0-.55-2.94c2.83-.8,2-4.77-.36-5.69a76,76,0,0,0-13.35-3.83c5.59-.83,11.15-1.78,16.69-2.64,2.86-.44,2.9-5.39,0-5.78-1.5-.21-3-.38-4.5-.56q4.53-1.21,9-2.57a3,3,0,0,0,0-5.78,70.31,70.31,0,0,0-9-1.84,3.43,3.43,0,0,0-2.9-2.72q-5.78-.69-11.45-1.86,6.71-.86,13.37-2.27c2.59-.56,2.85-4.23.69-5.49a34.38,34.38,0,0,0-4.94-2.36c1.42-.31,2.83-.67,4.23-1.06a3,3,0,0,0,.72-5.49,45,45,0,0,0-8-3.66,137.93,137.93,0,0,0,18.43-3.1C1200.4,1184.53,1200.32,1180.2,1197.49,1179.45Zm-27.13-15.64a3.09,3.09,0,0,0,.3-1.67A2.45,2.45,0,0,1,1170.36,1163.81Z" transform="translate(-886.49 -434.71)"/><path d="M1289.24,1137.9c-.57.57-1.15,1.11-1.77,1.62l-.26.19c-.27.18-.56.34-.85.5.24-.08.18,0-.16.06l-.23.09h-.18a3,3,0,0,0-3,3,3,3,0,0,0,3,3,8,8,0,0,0,2.42-.49,3.33,3.33,0,0,0,2,1.64,2.66,2.66,0,0,0,1.74,0,2.92,2.92,0,0,0,3.59,2.13,14.82,14.82,0,0,1,3.76-.19,87.43,87.43,0,0,1-9.42,5.84c-3.43,1.8-.39,7,3,5.18,5.86-3.06,11.41-7.2,16.71-11.13,2.62-2,1.17-6.37-2.32-5.49a9.81,9.81,0,0,1-3.38.16,3.11,3.11,0,0,0-2.83-4.71c.21-2.36-2.92-4.61-5.13-2.47a21.54,21.54,0,0,1-1.74,1.42h0a1,1,0,0,0-.17.13l-.18.14A2.91,2.91,0,0,0,1289.24,1137.9Z" transform="translate(-886.49 -434.71)"/><path d="M1301.89,1156.83c-2,2.83-1.19,6,2,7.25a3,3,0,0,0,3.69-2.1,2.74,2.74,0,0,0-.35-2.33c.36-.4.8-.78,1.17-1.13a50.83,50.83,0,0,1,4.49-3.66,3.06,3.06,0,0,0,1.07-4.1c-.75-1.29-2.79-2.06-4.1-1.08C1307.07,1151.8,1304,1153.93,1301.89,1156.83Z" transform="translate(-886.49 -434.71)"/><path d="M1318.49,1164.89a18.15,18.15,0,0,0,5.09-4.87,25.06,25.06,0,0,0,4.08-7c1.32-3.65-4.48-5.2-5.79-1.59-1,2.87-3.77,6.77-6.41,8.23C1312.07,1161.58,1315.1,1166.76,1318.49,1164.89Z" transform="translate(-886.49 -434.71)"/><path d="M1320.76,1166c-.57,3.79,5.21,5.41,5.79,1.6a23.49,23.49,0,0,1,2.34-3.74c1.76-2.57,3.53-5.13,5.15-7.79,2-3.32-3.17-6.33-5.18-3-1.62,2.66-3.39,5.23-5.15,7.79C1322.7,1162.25,1321,1164.12,1320.76,1166Z" transform="translate(-886.49 -434.71)"/><path d="M1329.67,1168.66c.65,1.59,1.76,3.87,3.89,3.68a5,5,0,0,0,2.19-.63c.14-.09,1.85-1.19,1-1,2.42-.65,2.59-3.3,1.41-4.82a64.19,64.19,0,0,0,6-9.92c1.73-3.45-3.45-6.49-5.18-3-2.32,4.64-4.79,9-8.44,12.75A3,3,0,0,0,1329.67,1168.66Z" transform="translate(-886.49 -434.71)"/><path d="M936.2,574.38a76.35,76.35,0,0,0-5.6,7.08l-2.78,3.71a3.13,3.13,0,0,0-1,1,7.15,7.15,0,0,0-1.34,2.37c-.3,2.16,1.26,4.37,3.69,3.69,1.29-.37,2-1.53,2.72-2.52,1-1.28,1.93-2.57,2.9-3.85a72.94,72.94,0,0,1,5.65-7.19C943.14,575.85,938.9,571.61,936.2,574.38Zm-9.69,12.49c-.24.25-.26.18,0,0Zm4.71,3.49c-.12.52-.26.44,0,0Z" transform="translate(-886.49 -434.71)"/><path d="M945.11,600.9a3,3,0,0,0,4.24,0,10.15,10.15,0,0,0,3.11-6.58,3,3,0,0,0-2.93-3,9.82,9.82,0,0,0-2.4-8c-2.61-2.86-6.84,1.39-4.25,4.25a3.7,3.7,0,0,1,0,4.66,3.13,3.13,0,0,0,1.75,5.13A3,3,0,0,0,945.11,600.9Z" transform="translate(-886.49 -434.71)"/><path d="M931.64,609.14a3,3,0,0,0-3,3,3,3,0,0,0,2.19,2.86.76.76,0,0,1,0,.14c0,.48,0,1,0,1.46a3,3,0,0,0,6,0,11.06,11.06,0,0,0-.49-4.13A5,5,0,0,0,931.64,609.14Zm-.93,5.3c-.16-.28-.08-.18,0,0Z" transform="translate(-886.49 -434.71)"/><path d="M933.87,598a5.52,5.52,0,0,0-4.07,1.15c-1.13,1-1.16,2.66-1.16,4.07a4.26,4.26,0,1,0,5.23-5.22Z" transform="translate(-886.49 -434.71)"/><path d="M1292.47,1063h2.23a3,3,0,0,0,0-6h-2.23a3,3,0,0,0,0,6Z" transform="translate(-886.49 -434.71)"/><path d="M1361.15,1024.91c-1.62,3.49,3.56,6.54,5.19,3,2.22-4.79,2.63-9.65,2.63-14.88,0-3.86-6-3.86-6,0C1363,1017.13,1362.9,1021.15,1361.15,1024.91Z" transform="translate(-886.49 -434.71)"/><path d="M1301,1016c-4.36,6.93-5.37,15.07.47,21.45,2.61,2.86,6.84-1.39,4.24-4.24-4-4.35-2.36-9.69.47-14.19C1308.26,1015.75,1303.07,1012.74,1301,1016Z" transform="translate(-886.49 -434.71)"/><path d="M1303.5,1044.35q-3.35-3.33-6.68-6.68c-2.74-2.74-7,1.51-4.24,4.24l6.68,6.69C1302,1051.33,1306.24,1047.09,1303.5,1044.35Z" transform="translate(-886.49 -434.71)"/><path d="M1373,845.24c-4,0-4,6,0,6C1373,851.24,1377,845.24,1373,845.24Z" transform="translate(-886.49 -434.71)"/><path d="M1147.8,723.62c-4.89,5.31-6.8,13-12.76,17.35-2.51,1.84-1.08,6.85,2.31,5.48,3.61-1.45,7.62-1,11.55-.45-2.81,4.55-5,9.57-9.4,12.79a3,3,0,0,0,0,5.18,5.85,5.85,0,0,0,3.12,1,3.12,3.12,0,0,0,0,1.66c.9,3.5,3.47,3.06,6,1.55,11.74-3,22.66-9.08,33.35-14.57,11.29-5.79,24-13.47,37-13.74,3.86-.07,3.87-6.07,0-6-12.32.25-24.06,6.48-34.82,11.89-9.61,4.84-19.22,10.46-29.42,14.22a3.38,3.38,0,0,0-1.07-1.19,5.84,5.84,0,0,0-4.34-1,7.66,7.66,0,0,0-1.08.22c2.78-4,5-8.58,8.49-12.37a3.06,3.06,0,0,0-2.24-5.12c-3.36-.11-6.88-.78-10.35-1,2.61-3.88,4.62-8.14,7.92-11.72C1154.67,725,1150.42,720.76,1147.8,723.62Z" transform="translate(-886.49 -434.71)"/><path d="M1161.42,749.53c5.62-8,15.51-12.88,24.35-16.44a86.65,86.65,0,0,1,31-6.58c3.87,0,3.87-6,0-6-12.13.14-24.13,3.24-35.28,7.91-9.5,4-19.2,9.47-25.22,18.08C1154,749.68,1159.22,752.67,1161.42,749.53Z" transform="translate(-886.49 -434.71)"/></svg>