<svg id="Layer_2" data-name="Layer 2" xmlns="http://www.w3.org/2000/svg" viewBox="0 0 628.01 769.23"><defs><style>.cls-1{fill:#d8dfe1;}.cls-2{fill:#ecd798;}.cls-3{fill:#fcdc3e;}.cls-4{fill:#f9ebcd;}.cls-5{fill:#a8ad00;}.cls-6{fill:#76bc21;}.cls-7{fill:#d1efbd;}</style></defs><path class="cls-1" d="M1493.36,855.29c.91-29.67-.29-60.07-5-89.78.3-7,.58-14.06.78-21.1.74-26.91.05-55.75-9.53-81.22-2.94-7.82-8.23-14.26-15-17.86-9-17-23.9-30.83-39.54-41.53a110.65,110.65,0,0,0-59.92-19.11,64.89,64.89,0,0,0-9,.57,45.38,45.38,0,0,0-11.92,3,147.14,147.14,0,0,0-46-1c-4.42-9.85-14.45-16.25-25.88-17v0h-.21c-51.69-3.14-104.24.56-154.59,13-10.19,2.52-17.88,11.26-20.19,21.28a27.39,27.39,0,0,0-6.73,18.2,28.6,28.6,0,0,0,5.19,16.38c-2.79.34-5.56.74-8.27,1.15-6.76,1-13.63,4.74-19.62,7.74-6.79,3.4-12.8,8.22-18.66,13a89.21,89.21,0,0,0-23.46,29.69c-7.44,15.34-10,30.7-7.42,47.55a56.09,56.09,0,0,0,6,17.7,30.65,30.65,0,0,0-5.76,16.84,761,761,0,0,0,5.36,123.52c2.69,21.25,6.11,42.41,10.65,63.3-.18,2.5-.37,5-.61,7.48-1.23,12.83-2.47,25.4-1.55,38.3,1.67,23.48,8.31,45.83,20.69,65.93,10.39,16.87,24,31.65,36.53,46.87q2.23,2.71,4.43,5.45l1.43,1.8q4.59,6,8.84,12.34,2.21,3.29,4.29,6.64,6.11,12.08,12.84,23.79c7.75,13.44,25.66,18,39,10.23,14.31-8.39,16.78-24.91,10.22-39a209.22,209.22,0,0,0-11.59-21.38c-2.71-5.3-5.35-10.64-7.88-16-1.44-3.06-2.83-6.14-4.2-9.22-.55-1.24-2.47-5.72-3-7-2.39-5.79-4.66-11.61-6.87-17.47-7.43-19.79-13.78-40-19.37-60.36,1-2,2-4,2.92-6.09-.05,3.66-.07,7.32-.08,11a28.77,28.77,0,0,0,20.93,27.49c14,3.83,32.28-4.61,35-19.91,7.75-42.81,13-86.33,14.15-129.84.69-26,0-52.63-4.36-78.48.61-18.94.87-37.89.53-56.85,18.82.46,38.08-5.72,55-13.58a112.06,112.06,0,0,1,11.59-.31c7.42.21,14.84,1,22.23,1.69,19.53,1.79,39.14,3.82,58.77,3.57a24.13,24.13,0,0,0,14,8.68,192.82,192.82,0,0,0,67.81,1.25c-.14,1.28-.29,2.55-.44,3.82-.23,1.55-.46,3.09-.7,4.64a27.6,27.6,0,0,0-2.57,6.23c-9.4,34.18-21.78,67.66-22,103.59a28.45,28.45,0,0,0,9.69,21.32c1.6,11.08,5,21.67,9.26,32.14,1.65,4.11,3.34,8.21,4.92,12.34-.24,1.09-.49,2.18-.73,3.27a136.58,136.58,0,0,0-1.93,42.79c-4.73,7.86-10,15.36-14.86,23.17-7.79,12.65-13.6,27.27-14,41.79-4.46,1.05-8.94,2-13.48,2.72-12.33,2-20.92,15.88-20.92,27.48,0,15.41,13,28.67,28.5,28.5a84.44,84.44,0,0,0,32.29-6.66c5.46-1.39,10.93-2.72,16.48-3.72h0c.16,1,.3,1.48.43,2.22.11,1.21.21,2.43.28,3.65.8,12.77,8.12,24,20.93,27.49,15.84,4.35,29.81-5.3,35-19.91,8.61-24,7-49.57.93-73.91-2.66-10.59-6.09-21-9.17-31.43,2.59-11.43,4.64-22.93,6.28-34.48C1487.34,934.44,1492.16,894.93,1493.36,855.29ZM1095.07,735.11h0a174,174,0,0,1-.68,37.13,407.21,407.21,0,0,1-11.69,51c-.18-1.32-.37-2.64-.56-4l-1-7.3a322.9,322.9,0,0,1-.39-38.73,26.06,26.06,0,0,0,6.84-18.48,75.12,75.12,0,0,0-4-19.58,33.53,33.53,0,0,0-2.45-5.61A28.09,28.09,0,0,0,1095.07,735.11Zm330,361.71c-1.31-1-.88-.75,0,0Zm-.58-1.2c.07.1.14.2.2.3l-.23-.28Z" transform="translate(-893.35 -458.58)"/><path class="cls-2" d="M1478.78,846.47c-1.12-17.16-4.08-35.85-13.66-50.56-7.45-11.44-22.61-16.67-34.89-9.15a101,101,0,0,0-10.86,7.73,44.39,44.39,0,0,0-6-3.92c-15.16-8.25-30.94-6.54-46.05.48a81.09,81.09,0,0,0-10.38,6.27c-.91.61-1.83,1.21-2.75,1.8-3.16-6-8.47-10.79-15.34-11.93-30.24-5-60.73-9.05-91.43-9.33a394.09,394.09,0,0,0-43.72,2.17c-8.6.88-17.18,2.05-25.73,3.3h-.17l-2-.2-1.09-.13a106,106,0,0,1-15.94-3.55c-9.28-2.88-18.37-6.42-27.54-9.65-21.57-7.6-45-15.09-68-10.33-7.21,1.49-13,5.34-18.64,9.79,8.87-7-.67.42-3.7,2.87-1.21,1-2.37,2-3.5,3.11-5,4.87-10.77,12.47-11.86,19.66-1.63,10.72-.12,21.79,8.18,29.57-6.66,3.08-11.43,9.15-14.29,16.53-2,5.19-2.8,10.89-3.55,16.38a234.8,234.8,0,0,0-2.47,30.42c-.11,18.28,1.5,41.14,12.84,56.38,4.28,5.75,8,9.89,14.2,13.74.8.49,1.6.93,2.41,1.34.51,3.62,1.09,7.22,1.81,10.78-.22,20.94,5.51,41.39,20.47,58.36a68.1,68.1,0,0,0,19.09,14.95c.55,1.24,1.15,2.47,1.81,3.67,4.11,12.91,13.19,24.88,25.17,31.52.19.44.39.87.59,1.31,6.15,13,20.68,21.48,34.34,24.14a74.25,74.25,0,0,0,19.83,1.38c1.45.68,3,1.35,4.53,2,8.4,3.41,18.23,4.08,27.21,4.1,12.46,0,25-2,37.26-4.76,12.07,2.56,24.24,2.39,37.28.43,16.76-2.51,32.89-9.49,48.06-16.72A358.21,358.21,0,0,0,1359.7,1068a29.22,29.22,0,0,0,15.27-3.2,146.23,146.23,0,0,0,50.35-42.25,125.86,125.86,0,0,0,7.44-10.88,28.5,28.5,0,0,0,11.36-10c8.72-13.24,14.36-28.76,19.17-43.78a330.29,330.29,0,0,0,12.09-53.62C1478.13,885.12,1480.05,865.82,1478.78,846.47ZM1074,809.08v0C1072.51,809.34,1073,809.23,1074,809.08Zm56.17,108.46,1.33,0c-.55.78-1.07,1.57-1.58,2.36C1130,919.1,1130.07,918.32,1130.15,917.54Zm71.51,15,0,0,.36-.46a160,160,0,0,0,23.22-6.89c3.15-1.18,6.43-2.42,9.76-3.77q-2.08,3.84-4,7.77c-1.06.39-2.13.76-3.2,1.13a176.85,176.85,0,0,1-29.15,7.12l-.23,0-.26,0Q1199.88,935,1201.66,932.54ZM1121.3,951.6c1,7.91,4.73,14.82,10,20.55,0,.81,0,1.62,0,2.42-4.83-5-10.56-8.27-18.31-8.27-.49,0-1,0-1.48.05A63.2,63.2,0,0,0,1121.3,951.6Zm283-2.17.32-.2c-.15.33-.29.67-.42,1C1404.19,950,1404.22,949.7,1404.25,949.43ZM1370.82,848c-.4,1.21-.78,2.44-1.12,3.67a41.74,41.74,0,0,0-3.94-1.86C1367.48,849.29,1369.16,848.68,1370.82,848Zm-197.93-65.24Z" transform="translate(-893.35 -458.58)"/><path class="cls-3" d="M1342.81,940.22a34.84,34.84,0,0,0-2.27-6,37,37,0,0,0-4.36-23.6c-10.37-17.69-31.73-21.75-49.26-12.91-2.83,1.42-5.63,2.9-8.44,4.37a26.65,26.65,0,0,0-12.56,4.63q-2.87,2.14-5.75,4.27c-1.21.4-2.42.77-3.65,1.1a35.67,35.67,0,0,0-21.17,16.12c-1.51,1-3,1.92-4.55,2.86-11.33-12.91-21.63-26.84-34.21-38.53-11.77-10.94-26.95-22-43.3-24.48-11.48-1.72-22.11-2.23-33.44,1.38-12.62,4-22.14,10.54-32.23,18.9-12,9.95-13.66,31-5.63,43.63a74.91,74.91,0,0,0,28,26c6,3.29,12.21,6.08,18,9.76,5,8.11,9,17.26,13.19,25.6,1.64,3.22,3.19,6.24,5,9a36.37,36.37,0,0,0,26.39,33.14c36,10,79.26,5.64,107-21.26a34.24,34.24,0,0,0,8.15-12.58q7.13-2.85,14.14-6c11.68-5.26,21.74-12.38,31.71-20.4C1343.25,967.45,1345.93,951.57,1342.81,940.22Z" transform="translate(-893.35 -458.58)"/><path class="cls-4" d="M1234.54,795.32c-7.11-6.57-15.64-10.54-25.46-10.54a39.3,39.3,0,0,0-16.07,3.61,28.39,28.39,0,0,0-7.93-.61l-1.08.1c-9-2.47-20.82.51-28.06,5.58-5.14,3.59-10,7.64-14.8,11.72-.86.7-1.7,1.41-2.52,2.15-14.6,13.12-13.31,37.59,0,50.91a35.8,35.8,0,0,0,6.44,5.09c3.86,6.87,9.88,12.26,16.17,17.2a169.54,169.54,0,0,1-4.86,17.69c-8,24.23,16.61,50.73,41.13,45.16a36.57,36.57,0,0,0,46-4.13,35.9,35.9,0,0,0,9.37-33.81A70.6,70.6,0,0,0,1264,880C1270.7,848.33,1257.94,817,1234.54,795.32Z" transform="translate(-893.35 -458.58)"/><path class="cls-4" d="M1429.58,846.87a41.34,41.34,0,0,0-7.47-25.74c-9.16-12.93-21.83-21.12-36-26.41a74.12,74.12,0,0,0-30-6.94,32.94,32.94,0,0,0-3.86.18,36.18,36.18,0,0,0-20.15-6.18c-8.62,0-19.82,3.51-25.45,10.54-14.6,18.26-31.08,37.4-36.26,60.89-2.81,12.74-.18,25.6,9.25,35a37.27,37.27,0,0,0,19,10,32.14,32.14,0,0,0,14.89,8.26,124.49,124.49,0,0,0,57.8-.58c.6-.14,1.2-.31,1.8-.47,16.05,2.59,32.93-.66,44.78-12.77S1433.27,863,1429.58,846.87Z" transform="translate(-893.35 -458.58)"/><path class="cls-4" d="M1298.52,717.48a48.84,48.84,0,0,0,16.92,1.94c16.8.8,33.28-1.58,50.23-4.94,26.64-5.29,34.61-42.4,15.88-60.17a139.18,139.18,0,0,0-13.78-10.93c-.41-.35-.83-.7-1.22-1.07-8.78-8.34-23-13.66-35-9.26-6,2.21-12.16,4.49-17.29,8.44-2.31,1.78-4.54,3.62-6.78,5.46l-.22.08a33.73,33.73,0,0,0-17.31,4.65,36.24,36.24,0,0,0-16.54,21.52C1268.11,692.35,1279.7,712,1298.52,717.48Z" transform="translate(-893.35 -458.58)"/><path class="cls-4" d="M1171.89,715.54c8.43,8.06,20,13,30.59,16.94,18.43,6.8,39.43-7.43,44.3-25.14a36.14,36.14,0,0,0,.42-17.35,35.94,35.94,0,0,0,24.88-34.23c0-17-11.2-29.15-26.43-34.71-10.24-3.74-21.65-4.95-32.44-5.6a112.11,112.11,0,0,0-35.14,3.56c-15.39,4.12-27.33,12.72-36.45,25.63-11.35,16.06-7.46,37,.37,53.3C1147.44,709.29,1159.65,715.21,1171.89,715.54Z" transform="translate(-893.35 -458.58)"/><path class="cls-5" d="M1140.08,975.3l-.92,0c-.44-.1-.89-.19-1.33-.3s-1.16-.37-1.75-.56a95.13,95.13,0,0,1-10.49-6.48c-9.32-6.35-18.3-11.81-29.08-15.6a24.19,24.19,0,0,0-15.85-.05,28.17,28.17,0,0,0-26.78,7.38c-10.77,10.77-11.22,29.6,0,40.3,2.21,2.1,4.65,3.95,7,5.92,1.24,1.06,2.43,2.18,3.58,3.33,6.2,11.11,19.92,16.42,32,13.08a27.6,27.6,0,0,0,5.08-2,74.62,74.62,0,0,0,38.48,12c15.54.32,28.51-13.2,28.51-28.5C1168.58,988,1155.61,975.62,1140.08,975.3Z" transform="translate(-893.35 -458.58)"/><path class="cls-5" d="M1349.93,987.56c-2-11.43-10.91-20.88-22-24.64-16.26-5.52-31,6.14-41.72,16.67-3.13,3.06-6.12,6.25-9.15,9.4-1.11,1.16-2.25,2.31-3.39,3.44a29.24,29.24,0,0,0-18.17-1.11c-17,4.46-33.13,13-48.81,20.88-21.39,10.69-17.1,47.54,6.81,52.09a134.18,134.18,0,0,0,15.51,2.06,27.26,27.26,0,0,0,22.86-1,73.72,73.72,0,0,0,15.38-4.43,183,183,0,0,0,33.77-18,28.53,28.53,0,0,0,11.49,6.33c8,2.19,14.7.43,22-2.88-9.54,4.35-4,1.8-1,1.1a33.49,33.49,0,0,0,10.2-4.28c11.8-7.67,16.61-19.74,16.95-33.43C1360.81,1001.34,1356.49,993,1349.93,987.56Zm-16.17,25.83c.3-.25.38-.3,0,0Z" transform="translate(-893.35 -458.58)"/><path class="cls-6" d="M1251.09,615.26c-20.6,2-39.76,7.67-58.92,15.33-10.12,4-20.11,8.4-30.09,12.79,4.51-4.07,9.2-7.94,13.93-11.71l1.88-1.49q3.16-2.4,6.34-4.77c4.31-3.2,8.65-6.35,13-9.51,7.81-5.7,16.11-11.19,23-18a28.71,28.71,0,0,0,4.46-34.54A29.09,29.09,0,0,0,1209,550.71a217.07,217.07,0,0,0,24.62-46.38c4.49-11.8-2.87-26.2-13.1-32.19-11.85-6.94-24.55-3.8-34.54,4.46-25.52,21.1-43.73,48.63-57,78.54-.35.32-.69.64-1,1-2.4,2.15-4.86,4.23-7.34,6.29-1.19,1-2.4,2-3.6,2.92a225.63,225.63,0,0,1-29.58,18.94l-2.59,1.33c-2.75,1.06-5.54,2-8.35,2.94-5.85,1.94-11.81,3.56-17.79,5.08-12.18,3.1-24.53,5.56-36.8,8.27-24.12,5.32-49.81,11.74-70.21,26.3a36.66,36.66,0,0,0-7.85,7.56c-8.08,2.32-15.84,5.58-22.15,10.44s-10.93,9.17-13.1,17a28.68,28.68,0,0,0,2.88,22c7.35,12.56,26.26,19.18,39,10.23,1.33-.94,4.66-2.59,6.07-3.36l.7-.18q2.53-.09,5.07.06c10.53,2.09,20.55,6.22,30.64,9.79,14.07,5,29.35,8.8,44.37,7.65,17.34-1.32,32.65-7.87,48.37-14.83l7.55-3.35c1-.4,2-.81,3-1.2l1.15-.43c8.51,10.67,22.9,14.25,36.55,14.63,6.66,4.09,16.21,5.71,22.72,3.09,6.18-2.49,12.31-5.09,18.42-7.73a426.09,426.09,0,0,0,42.83-11.18c11.81-3.67,23.29-8,34.68-12.79,9.44-4,17-8.87,23.12-17.4C1287.81,641.35,1271.76,613.22,1251.09,615.26Zm-19.42,7.43-.17.08C1231.7,622.56,1231.74,622.56,1231.67,622.69ZM1085,585.5l-.08,0C1091,582.49,1086.9,584.77,1085,585.5Zm10.28,104.77c1.47-.63,2.71-1.14,0,0Z" transform="translate(-893.35 -458.58)"/><path class="cls-7" d="M977.71,650.42c-6.37,11.43-14.81,21.89-18.3,34.71-1,3.74,4.77,5.33,5.78,1.6,3.34-12.28,11.6-22.33,17.7-33.29,1.88-3.38-3.3-6.4-5.18-3Z" transform="translate(-893.35 -458.58)"/><path class="cls-7" d="M1007.41,664.13c-3,8.68-7,16.92-10.7,25.29-1.57,3.5,3.6,6.55,5.18,3,4-8.83,8.16-17.55,11.3-26.71,1.26-3.67-4.53-5.24-5.78-1.6Z" transform="translate(-893.35 -458.58)"/><path class="cls-7" d="M1030.18,666.81c-6.49,7.88-10.89,17.58-13.77,27.32-1.1,3.72,4.69,5.3,5.78,1.6,2.58-8.7,6.43-17.63,12.23-24.68,2.44-3-1.78-7.23-4.24-4.24Z" transform="translate(-893.35 -458.58)"/><path class="cls-7" d="M1056.3,668.93c.89,9.22-4.63,19.49-8.59,27.49-.88,1.78.14,4.83,2.59,4.51a9.72,9.72,0,0,0,6.12-2.88c2.8-2.68-1.45-6.92-4.24-4.24a2.38,2.38,0,0,1-1.88,1.12l2.59,4.51c4.42-8.94,10.4-20.23,9.41-30.51-.37-3.82-6.37-3.85-6,0Z" transform="translate(-893.35 -458.58)"/><path class="cls-7" d="M1079.41,667.13c-1.16,7.13-3.85,13.88-5,21-.62,3.79,5.16,5.41,5.78,1.6,1.16-7.13,3.85-13.88,5-21,.62-3.79-5.16-5.41-5.78-1.6Z" transform="translate(-893.35 -458.58)"/><path class="cls-7" d="M1170.71,643.42c-3.31,6.5-7.15,12.68-9.3,19.71-1.14,3.71,4.66,5.29,5.78,1.6,2-6.52,5.62-12.25,8.7-18.29,1.75-3.44-3.42-6.47-5.18-3Z" transform="translate(-893.35 -458.58)"/><path class="cls-7" d="M1203.71,638.42c-3.12,5.26-5.88,10.73-9,16-2,3.33,3.21,6.35,5.18,3,3.12-5.26,5.88-10.73,9-16,2-3.33-3.21-6.35-5.18-3Z" transform="translate(-893.35 -458.58)"/><path class="cls-7" d="M1228.41,634.13c-2.11,5.2-4.89,10-9.23,13.68-3,2.48,1.3,6.7,4.24,4.24,5.16-4.31,8.28-10.19,10.77-16.32,1.46-3.59-4.35-5.13-5.78-1.6Z" transform="translate(-893.35 -458.58)"/><path class="cls-7" d="M1140.3,682.93c8.32,1.1,16.13,6.35,18.11,14.8.88,3.76,6.66,2.17,5.78-1.6-2.63-11.25-13-17.76-23.89-19.2-3.83-.51-3.78,5.5,0,6Z" transform="translate(-893.35 -458.58)"/><path class="cls-7" d="M1166.18,676.05c7.28,6.07,15.58,10.51,23.61,15.47,3.3,2,6.31-3.15,3-5.18-7.57-4.68-15.52-8.81-22.39-14.53-3-2.46-7.22,1.76-4.24,4.24Z" transform="translate(-893.35 -458.58)"/><path class="cls-7" d="M1197.18,668.05c5.17,5.18,10.29,10.4,15,16,2.49,3,6.71-1.3,4.24-4.24-4.71-5.61-9.82-10.83-15-16-2.74-2.74-7,1.5-4.24,4.24Z" transform="translate(-893.35 -458.58)"/><path class="cls-7" d="M1221.3,665.93c.1,0,1,.1.28,0a4.85,4.85,0,0,1,.75.19c-.63-.2.07,0,.2.12.28.19.28.18,0,0a4.4,4.4,0,0,1,.39.35,7,7,0,0,1,1.48,3.18c1,3.74,6.76,2.15,5.78-1.6-1.16-4.42-4-8.1-8.89-8.2-3.87-.08-3.86,5.92,0,6Z" transform="translate(-893.35 -458.58)"/><path class="cls-7" d="M1161.81,549.52c4.34-2.88,10.58-1.63,15.49-1.59,3.87,0,3.87-6,0-6-6.1,0-13.13-1.17-18.51,2.41-3.21,2.13-.21,7.33,3,5.18Z" transform="translate(-893.35 -458.58)"/><path class="cls-7" d="M1186.1,524.82c5.64-1.75,11.35-1.89,17.2-1.89,3.87,0,3.87-6,0-6-6.37,0-12.67.21-18.8,2.11-3.68,1.14-2.11,6.93,1.6,5.78Z" transform="translate(-893.35 -458.58)"/><path class="cls-7" d="M1212.3,499.93h9c3.87,0,3.87-6,0-6h-9c-3.87,0-3.87,6,0,6Z" transform="translate(-893.35 -458.58)"/><path class="cls-7" d="M1195.41,485.73c.92,5,1.08,10,2,15,.7,3.8,6.48,2.18,5.78-1.6-.92-5-1.08-10-2-15-.7-3.8-6.48-2.18-5.78,1.6Z" transform="translate(-893.35 -458.58)"/><path class="cls-7" d="M1170.18,503.05c5.29,4.78,5.08,14.33,5.12,20.88,0,3.87,6,3.87,6,0,0-8.2-.3-19.18-6.88-25.12-2.86-2.59-7.12,1.64-4.24,4.24Z" transform="translate(-893.35 -458.58)"/><path class="cls-7" d="M1153.41,520.73a58.17,58.17,0,0,1,4.89,21.2c.07,3.86,6.07,3.87,6,0a62.53,62.53,0,0,0-5.11-22.8c-1.46-3.52-7.27-2-5.78,1.6Z" transform="translate(-893.35 -458.58)"/><path class="cls-7" d="M1143.41,547.73a28.35,28.35,0,0,1,1.89,8.2c.09,3.86,6.09,3.87,6,0a33.36,33.36,0,0,0-2.11-9.8c-1.21-3.65-7-2.09-5.78,1.6Z" transform="translate(-893.35 -458.58)"/><path class="cls-7" d="M1145.1,619.82a32.45,32.45,0,0,1,24.69.7c3.48,1.61,6.53-3.56,3-5.18-9-4.14-20-4.93-29.31-1.3-3.56,1.39-2,7.2,1.6,5.78Z" transform="translate(-893.35 -458.58)"/><path class="cls-7" d="M1166.1,599.82a20.57,20.57,0,0,1,13.69,2.7c3.36,1.93,6.38-3.25,3-5.18a27.2,27.2,0,0,0-18.31-3.3c-3.81.56-2.19,6.34,1.6,5.78Z" transform="translate(-893.35 -458.58)"/><path class="cls-7" d="M1152.3,590.93a16.94,16.94,0,0,0,4.88,12.12c2.69,2.79,6.93-1.46,4.24-4.24a10.73,10.73,0,0,1-3.12-7.88c0-3.87-6-3.87-6,0Z" transform="translate(-893.35 -458.58)"/><path d="M1209.25,1220.18c-12.23,3-23.65,1.79-34.58-4.54-10.14-5.87-18.53-14.55-27.35-22.16-20.83-18-42.06-35.63-65.58-50-20.14-12.3-43-20.32-56.76-40.68-10.38-15.39-12.63-34.3-13.49-52.39-1.1-23.16-1-46.32-2.36-69.48-1.84-30.38-5-60.66-8.12-90.93-6.39-61.06-13.16-122.33-11-183.83a1.72,1.72,0,0,0,0-.32c3,.21,6.06.33,9.09.57-1.22,15,22.31,10.14,31.76,4.1,11.28,2,22.83,2.47,34.26,2.41,13-.07,26.31-1,39-3.86,3.77-.86,2.17-6.65-1.59-5.79-20.74,4.72-43.38,4.76-64.43,2.33-3.49-.41-7.47-2.21-10.51,0a29.13,29.13,0,0,1-8.72,3.85c-5,1.47-15.68,3.49-13.39-4.86.56-2.06-1-3.56-2.9-3.79-7.34-.92-14.78-.48-21.91-2.32a8.53,8.53,0,0,0,.82-2.28c.45-2.43-1.35-4-3.69-3.69a28.31,28.31,0,0,1-14.32-1.55,3.1,3.1,0,0,0-2.87-3.36c-7-.7-14-.26-20.94-1-2.71-.29-6.4-.69-8.57-2.52-2.46-2.06,2.81-6.86,4-8.14,1.49-1.52,1-4.54-1.32-5-6.67-1.37-14.14-.06-20.9-.12a42.49,42.49,0,0,1-11.62-1.25c-2.94-.86-1.91-3.33-.76-5.45,3.81-7,11.17-12.57,17.26-17.51,5-4,10.24-8.81,15.88-11.81,14.61-7.74,31.49-12.39,47.51-16.09a131.71,131.71,0,0,1,26.27-3.72c5.52-.14,13.15-.08,17,4.6a2.54,2.54,0,0,0,4,0c5.18.43,10.34.5,15.4,1.49-7.23,4.23-16.32,5.43-24.13,7.94a3.11,3.11,0,0,0-1.88,4.16c-3.76,1.9-7.46,3.9-11.24,5.76-17.22-1.74-34.08-.73-50,8.32-3.36,1.91-.33,7.1,3,5.18,12.07-6.88,24.79-8.68,37.79-8.2-.46,1.64.36,3.57,2,3.87-3,3-5.92,6-8.6,9.21a3,3,0,0,0,3.63,4.71,33.66,33.66,0,0,1,9.23-2.22,35.87,35.87,0,0,1-4.47,7.1c-1.66,1.88-.63,5.18,2.12,5.13,7.09-.14,14-1.61,21.1-2.18a22.47,22.47,0,0,1-2.1,4.86c-1.3,2.15.86,5.3,3.39,4.4,9.67-3.44,18.39-10.64,28.55-12.59a38.32,38.32,0,0,1-2,5.79,3,3,0,0,0,4.11,4.1,154.25,154.25,0,0,0,25.29-16.15,3,3,0,0,0,2.77.86,33,33,0,0,1,17.6,1.2c3.64,1.35,5.19-4.45,1.59-5.78a36,36,0,0,0-15.09-1.93,80.32,80.32,0,0,0,14.08-15.65c-.08.56-.17,1.12-.28,1.68-.73,3.78,5,5.39,5.79,1.6a36.73,36.73,0,0,0,.48-10.25,2.94,2.94,0,0,0,4.14,1.25,26.19,26.19,0,0,0,3.74-2.71c-.37,1.37-.7,2.74-1,4.12-.71,3.78,5.08,5.39,5.79,1.59,2.88-15.38,13.57-29.35,24.41-40.92,8.65-4.59,15.7-11.94,22.1-19.24.61-.69,1.2-1.39,1.79-2.09,1.77-1.25,3.57-2.47,5.4-3.63,5.61-3.54,11.92-6.86,18.55-8.15-2.5,7-7.93,12.28-13.7,17.15-2.69,2.26.74,6.3,3.63,4.71,11.19-6.16,22.69-14,35.53-15.93-.38.75-.79,1.5-1.25,2.23-1.33,2.09.89,5.39,3.39,4.4,10.16-4,20.6-7,31.45-7.22-7.62,8.56-17.64,15-27.42,20.7-11.54,6.78-23.65,12.53-35.45,18.83-11,5.88-20.55,14.56-30.66,21.82-8.94,6.43-19.27,13.82-30.41,16.11,5.43-14.65,19.12-26.77,30.78-36.12a141.15,141.15,0,0,1,23.7-15.37c6.61-3.39,14.08-6.52,21.62-6.65,3.86-.06,3.87-6.06,0-6-17.73.3-35.12,12.56-48.53,23-14,10.91-30.34,26-34.72,44-.43,1.77.88,4,2.89,3.8,27.11-2.16,45.81-27.22,68.36-39.38,23.68-12.77,52.21-23.53,68.56-46.06,1.45-2-.56-4.36-2.59-4.51-11.1-.83-21.9,1.29-32.32,4.79l.13-.28c.91-2-.15-4.58-2.59-4.51-9.83.24-18.81,3.83-27.43,8.28a29,29,0,0,0,3.93-10.48c.29-1.8-.77-3.93-2.89-3.8a48.18,48.18,0,0,0-16.79,4.36c4-5.23,8-10.49,12.16-15.6,16.61-20.42,43.36-33.12,55.19-57.4.76-1.56.26-4.1-1.79-4.41-7.3-1.1-13.81-4.83-11.1-13.1.83-2.52-2.22-4.73-4.4-3.39a62,62,0,0,1-6.8,3.29,67,67,0,0,1,2.51-6.38,3,3,0,0,0-4.72-3.64c-15.66,13.21-33.11,24.09-48.54,37.63-14.59,12.8-29.31,29.27-30.29,49.65-.19,3.87,5.81,3.85,6,0,1-19.64,16.62-35.1,30.58-47.19,12-10.39,25.24-19.18,37.79-28.85-.61,1.68-1.25,3.34-2,5-1.33,2.86,2.43,6.49,4.71,3.64,2.09-2.62,5.31-4,8.5-5.39.33,6.81,5.57,11.64,12.46,13.72-12.15,21.08-36.16,33.22-51.52,51.62-8,9.54-15.14,19.71-23.07,29.27l-.06.06a169.66,169.66,0,0,0-18.59,16c-.7.67-1.39,1.36-2.09,2.06,6.76-18.93,17.7-36.5,30-52.22,13.68-17.5,30.51-34.54,51-43.91,3.51-1.61.46-6.78-3-5.18-21,9.6-38,27-52.18,44.84-14.93,18.83-27.85,40.41-34.35,63.69a2.93,2.93,0,0,0,.11,1.78c-2,2.26-3.93,4.58-5.79,7,1.17-4.14,2.12-8.2,3-11.85,3.8-16.25,7-34.54,5-51.28-.23-2-2.48-4.12-4.52-2.59-6.37,4.78-11.36,13.09-18.59,16.71-.33-1-.6-2-1-2.92a3,3,0,0,0-5.78,0q-2.19,5.22-3.88,10.58a49.31,49.31,0,0,0-5-10.1,3,3,0,0,0-5.59,1.51c-.06,14.58-1.21,29.13,0,43.68a87.27,87.27,0,0,0,4.28,21.11c.66,1.94,1.28,3.88,1.82,5.82-15.7-1.88-31.72,4.23-45.82,10.46s-27.26,14.09-40.8,21.33a3,3,0,0,0-3.63-2.15c-2.35.52-4.71.86-7.06,1.22,2.83-2.89,5.69-5.75,8.3-8.84,3.18.4,6.36.89,9.55,1.41,3.79.63,5.41-5.15,1.6-5.78-1.48-.25-3-.48-4.44-.71a124.35,124.35,0,0,1,11.64-5.44,3.25,3.25,0,0,0,2-2.61c8-2.13,15.9-4.45,22.06-10.19,1.79-1.67.62-4.25-1.36-5a33.16,33.16,0,0,0-3.89-1.25c12.94-2,25.89-2.9,38.28,2.22,3.57,1.48,5.15-4.33,1.62-5.79-19.76-8.16-40.76-1.66-61,1-3.78-2.8-8.87-3.63-13.44-4-8.41-.71-17,.64-25.31,2.14a233.93,233.93,0,0,0-51.76,15.89c-5.4,2.37-9.73,5.55-14.42,9.09a163.68,163.68,0,0,0-20,17.07c-4,4.2-9.44,10.4-7.73,16.74,1.77,6.59,11.76,6.53,17.05,6.73s10.89-.72,16.28-.59c-1.59,2.24-2.75,4.76-2.48,7.47.39,4.07,3.71,6.19,7.22,7.45,7.48,2.67,16,2,23.77,2.22a3.12,3.12,0,0,0,1.09,1.08,33.62,33.62,0,0,0,17,4.33,3.06,3.06,0,0,0,1.82,4.37,38.8,38.8,0,0,0,8.76,2.2,3.2,3.2,0,0,0-.17.9c-2.24,64.76,5.36,129.23,12,193.52,3.34,32.16,6.41,64.37,8,96.67,1.06,22.23.26,44.64,2.42,66.8,1.71,17.65,6.54,34.46,17.72,48.5,15.1,19,38.93,27.15,58.87,39.64,23.52,14.74,45,33,65.7,51.32,8.24,7.3,16.45,14.9,26.29,20s20.35,6.12,31.08,4.37c1.61-.27,3.21-.66,4.8-1C1214.61,1225,1213,1219.26,1209.25,1220.18ZM1106.17,627.91l0-.07c0,.1,0,.21,0,.31A2,2,0,0,0,1106.17,627.91Zm-7.34-62.27a37.32,37.32,0,0,1,1.48,9.81c.07,3.27,5.29,4.06,5.9.63a109.65,109.65,0,0,1,4.45-16.84,2.92,2.92,0,0,0,3,1c7.82-2.62,12.56-9.24,18.26-14.75.57,13.36-1.81,27.25-4.48,40.1a138.07,138.07,0,0,1-7.67,25.72c-1.89,4.48-4.26,9.42-7.71,13.13a160.68,160.68,0,0,1,2.55-30.11c2.13-12.07,5.61-26,14.76-34.78,2.8-2.68-1.45-6.92-4.24-4.24-9.34,9-13.26,22.48-15.8,34.78a158,158,0,0,0-3.25,35.87,3.14,3.14,0,0,0-.49-.85c-1.77-8.3-5-16.39-6.13-25.06C1098,588.66,1098.46,577.14,1098.83,565.64Zm.39,63.66c-4.13,9.41-12,17-19.74,23.52A141.19,141.19,0,0,1,1058,667.66a29.36,29.36,0,0,1,1.1-3.15c.84-2-.08-4.59-2.59-4.51-10.53.34-19,6.19-28,10.6.32-1.05.63-2.12,1-3.21a3,3,0,0,0-2.89-3.79c-6.54.12-13,1.38-19.46,2l.7-1.3c15.05-7.59,29.43-16.41,44.69-23.62C1066.43,634.14,1083.37,627,1099.22,629.3Z" transform="translate(-893.35 -458.58)"/><path d="M1253.23,1212.88a62.73,62.73,0,0,0-11.59,1.31c-3.8.74-2.19,6.53,1.59,5.78a55,55,0,0,1,10-1.09C1257.09,1218.84,1257.1,1212.84,1253.23,1212.88Z" transform="translate(-893.35 -458.58)"/><path d="M1481.8,1108.74c2.8,17.79-10.73,30.67-24.67,39.11-15.62,9.45-33.51,15.06-51.09,19.55-18.83,4.81-38,8.21-56.87,12.85-22,5.4-45.32,11.73-64.15,24.75-1.78,1.23-3.47,2.58-5.13,4-3,2.48,1.29,6.7,4.24,4.24,17.61-14.67,42-20.91,63.76-26.45,19.18-4.88,38.68-8.36,57.89-13.1,17.41-4.28,34.76-9.9,50.58-18.45,13.84-7.49,28-18.77,31.22-35a37.09,37.09,0,0,0,0-13C1487,1103.33,1481.21,1105,1481.8,1108.74Z" transform="translate(-893.35 -458.58)"/><path d="M1521.17,660.2c1.33-3.64-4.47-5.2-5.79-1.6q-1.64,4.47-2.94,9a2.89,2.89,0,0,0-4.25,1.77c-4.1,15.3-22.13,23.6-35.46,29.09-17.9,7.36-36.92,12-55.8,16C1366,725.36,1314.16,735.1,1262,736.68c-29.79.91-59-2.24-88.26-7.4-29-5.12-57.85-11.3-87.22-14.11-3.85-.37-3.81,5.63,0,6,32,3.05,63.33,10.19,95,15.5a425.14,425.14,0,0,0,93.79,5.45c49.94-2.69,99.81-12.26,148.59-23,19.18-4.24,38.35-9.34,56.35-17.34,10.42-4.64,22.26-11.17,29.09-20.91-3.34,17.3-4,35.23-4.15,52.69-.18,27.11,2.18,54.17,2,81.27-.1,15.5-1.18,31-2.63,46.39-.62-2.3-4.76-2.84-5.93.09-2.54,6.34-5,12.71-7.19,19.18-1.24,3.68,4.55,5.25,5.78,1.6,2.18-6.46,4.64-12.8,7.17-19.13-1.56,16.37-3.51,32.72-5.12,49.06-3.18,32.23-2.43,64.58-5.58,96.79-3.06,31.41-7.88,62.71-7.16,94.35.09,3.87,6.09,3.88,6,0-.73-32.27,4.23-64.24,7.35-96.28,1.57-16.08,2-32.07,2.33-48.21s1.66-32.44,3.25-48.59c3.18-32.35,7.53-64.63,7.75-97.19.18-27-2.19-54-2-81C1511.33,707.85,1512.8,683,1521.17,660.2Z" transform="translate(-893.35 -458.58)"/><path d="M1110.32,1107.06c1.67,3.49,6.84.44,5.18-3-12.29-25.73-37.12-40-54-62-10.36-13.58-14-30.21-19.47-46.08-6.66-19.28-13.84-38.38-19.82-57.89-1.13-3.69-6.93-2.11-5.79,1.6,5.79,18.9,12.69,37.42,19.2,56.08,3.38,9.69,6.07,19.68,9.82,29.19a5.24,5.24,0,0,0-4.08,3.37c-.8,2.36.48,4.89,1.75,6.82a3,3,0,0,0,5.18-3c-.31-.47-.59-1-.85-1.44l.42,0a79.28,79.28,0,0,0,6.9,12.31C1071.17,1066.46,1097.66,1080.56,1110.32,1107.06Z" transform="translate(-893.35 -458.58)"/><path d="M1133.7,1115.63c6.41,2.53,13,4.73,20,4.91,3.87.09,3.86-5.91,0-6-6.39-.17-12.51-2.37-18.4-4.69C1131.69,1108.42,1130.14,1114.23,1133.7,1115.63Z" transform="translate(-893.35 -458.58)"/><path d="M1364.49,1086.08c2.36-3-1.86-7.29-4.25-4.25-9,11.43-22.9,17.05-36.48,20.94-15.1,4.32-30.78,6.35-46.3,8.44-14.21,1.91-28.27,4.75-42.49,6.53-15.37,1.92-34.11,4.12-48.59-2.8-3.47-1.65-6.52,3.52-3,5.19,14.85,7.09,32.87,5.67,48.75,3.95,15.35-1.67,30.47-4.86,45.76-6.92,16.39-2.22,32.83-4.41,48.76-9C1340.65,1104.17,1355.25,1097.84,1364.49,1086.08Z" transform="translate(-893.35 -458.58)"/><path d="M1481.8,921.25c-6.76,32.54-12.7,66.37-30.08,95.27-13.37,22.24-36.48,34-57.29,48-3.18,2.16-.18,7.36,3,5.19,21-14.25,43.6-26.09,58-47.85,19.25-29.18,25.2-65.51,32.17-99.06C1488.37,919.07,1482.59,917.46,1481.8,921.25Z" transform="translate(-893.35 -458.58)"/><path d="M1023.15,601c5.46-8.11,15.82-12.76,24.45-16.59a163.65,163.65,0,0,1,28.93-9.62c3.76-.88,2.17-6.67-1.6-5.78a178.46,178.46,0,0,0-31.63,10.78c-9.31,4.14-19.49,9.5-25.33,18.18C1015.81,601.14,1021,604.14,1023.15,601Z" transform="translate(-893.35 -458.58)"/><path d="M1201.66,543.67c-3.87-.2-3.85,5.8,0,6,14.84.75,29.64-1.14,44.4-2.46a224.37,224.37,0,0,1,44.88.3c27.34,3,54.3,9.42,81.49,13.58,37.66,5.74,80,13.9,109.63,39.63,16.41,14.24,24.8,33.45,24.82,55.08,0,3.87,6,3.87,6,0,0-20.51-6.89-39-21-54-13-13.86-30.51-22.89-48.06-29.63-18.6-7.14-38.2-11.52-57.79-14.94-9-1.57-18-2.72-27-4.18-15.16-2.46-30.2-5.65-45.33-8.27-18.15-3.14-36.47-5.35-54.92-4.51C1239.7,541.17,1220.77,544.64,1201.66,543.67Z" transform="translate(-893.35 -458.58)"/><path d="M1495.89,709.28c-27.84,9.66-54.79,22-83.56,28.81-14.77,3.51-30,5.23-45.08,7.29q-23.77,3.27-47.66,5.52a800.1,800.1,0,0,1-92.75,3.84c-30.54-.63-60-9.8-90.09-13.74-14.26-1.87-30.78-1.94-42.72-11-3.08-2.35-6.06,2.87-3,5.18,9.09,6.92,20.84,8.73,31.87,10.18,13.6,1.78,27,3.87,40.5,6.47,14.81,2.86,29.63,5.66,44.62,7.45,15.34,1.82,30.76,1.79,46.18,1.52a936.9,936.9,0,0,0,93.49-6.88c29.74-3.54,59.76-7,88.36-16.24,20.77-6.71,40.84-15.43,61.45-22.59C1501.12,713.8,1499.55,708,1495.89,709.28Z" transform="translate(-893.35 -458.58)"/><path d="M1030.16,827.91a95.63,95.63,0,0,1,40.46,9.18c3.46,1.68,6.51-3.49,3-5.18a102.58,102.58,0,0,0-43.49-10C1026.29,821.87,1026.29,827.87,1030.16,827.91Z" transform="translate(-893.35 -458.58)"/><path d="M1097.63,841.5c-3.49-1.6-6.54,3.57-3,5.18,12,5.54,24.66,6.4,37.5,5.66a3.13,3.13,0,0,0-1.7,3.35c3.3,19.89.21,40.42,6,60,1.1,3.7,6.89,2.12,5.79-1.59-5.78-19.47-2.71-40.11-6-60a2.45,2.45,0,0,0-1.35-1.93c1.83-.13,3.66-.29,5.5-.47,15.8-1.56,32-4.18,47.33,1.29,3.65,1.31,5.21-4.49,1.59-5.78C1159.4,836.55,1126.94,855,1097.63,841.5Z" transform="translate(-893.35 -458.58)"/><path d="M1185.47,1051.57c.4-28.24,25.4-42.54,47.79-53.82,28.94-14.59,56.53-34.09,88-42.81-1.86,4.76-6.39,8-11.3,9.79-3,1.08-2.79,6.23.79,5.89a24,24,0,0,0,8.71-2.81,2.47,2.47,0,0,0,1.5-2.67,19.85,19.85,0,0,0,7.19-14.31,3,3,0,0,0-3.8-2.89c-34.74,8.3-65,29.85-96.47,45.79-23.83,12.08-48,28.32-48.45,57.84C1179.41,1055.45,1185.41,1055.44,1185.47,1051.57Z" transform="translate(-893.35 -458.58)"/><path d="M1198.89,1067.51c7.28,3,16,2.75,23.72,2.67,32.31-.33,65-4.06,95.58-15.11,29.85-10.8,58.58-30.94,62.77-64.66.47-3.83-5.53-3.79-6,0-4.85,39-46,56.88-79.64,65.33a292.09,292.09,0,0,1-55.74,8c-7.28.39-14.59.5-21.88.43-6.11-.06-19.77.25-22.41-7-1.31-3.56,5.79-7.52,8-9a137.07,137.07,0,0,1,17.32-9.16c10.25-4.75,20.81-8.72,30.9-13.83,29.3-14.84,59.38-37,92.74-41.74a2.53,2.53,0,0,0,.48.19,39.06,39.06,0,0,0,10,1.29c3,.07,6.9-.63,9.63.8,3.42,1.8,6.45-3.38,3-5.18a16.21,16.21,0,0,0-5.9-1.65,2.81,2.81,0,0,0-2.81-2.35c-1.52,0-3,0-4.52,0,.58-.7,1.18-1.4,1.84-2.11a3,3,0,0,0-2.12-5.12,36.66,36.66,0,0,1-7.75-.78c-2.7-.61-4.09-2.3-6.33-3.61a4.31,4.31,0,0,0-3.47,0,1,1,0,0,0,0-.16c1-3.73-4.75-5.32-5.78-1.59a9.36,9.36,0,0,1-4.62,5.4c-3.34,1.94-.33,7.12,3,5.18,2.7-1.56,5.63-2.12,8.58-2.89a21.56,21.56,0,0,0,10.23,4.07,17.06,17.06,0,0,1-2.59,2.42c-21,2.8-41,12.54-59.47,22.38s-36.33,20.45-55.62,28.6a270.87,270.87,0,0,0-24.59,11.52c-5.55,3-12.93,7-15.75,13C1186.73,1059.72,1193.28,1065.22,1198.89,1067.51Z" transform="translate(-893.35 -458.58)"/><path d="M1132.41,965a3.06,3.06,0,0,0-4.4,1.8,16.29,16.29,0,0,0-.62,1.82c-4.74-3.81-10.23-6.15-15.4-.75-2.68,2.79,1.56,7,4.24,4.24,3.91-4.08,8.68,2.14,11.35,4.8a3,3,0,0,0,5.12-2.12c0-.89,0-1.73.13-2.55,10.31,7.17,14.46,20.65,21.86,30.45,2.3,3,7.52.06,5.18-3C1151,988,1146.5,971.91,1132.41,965Z" transform="translate(-893.35 -458.58)"/><path d="M1148.07,1013.38c3.53-5.67-1.28-12.75-4.73-17.07-7-8.8-17.39-15.57-27.14-20.93a61.13,61.13,0,0,0-21.41-7.32,3.13,3.13,0,0,0,.44-5.43,557,557,0,0,0-50.37-28.78c-2.21-1.11-4.21.31-4.51,2.59-1.21,9.07,3.4,18.14,7.78,25.77,5.21,9.08,11.76,17.37,18.28,25.52,15.22,19,38.57,29.73,62.59,31.58C1135.43,1019.8,1144.25,1019.53,1148.07,1013.38Zm-79.48-32.49a191.42,191.42,0,0,1-15.28-21.71c-3.17-5.35-6.38-11.52-7-17.87q23.54,12.12,45.83,26.46a48,48,0,0,0-12.4.56c-3.81.67-2.19,6.45,1.59,5.78,20.35-3.6,41.81,9.75,55.48,23.85,2.4,2.48,9,9.5,5.44,13.22-1.8,1.9-5.45,2.05-7.84,2.2a67.33,67.33,0,0,1-15.7-1.38C1098.46,1008.47,1081.18,996.74,1068.59,980.89Z" transform="translate(-893.35 -458.58)"/><path d="M1176.62,988.61c14,1.47,19.69-20,21.89-29.81a133.4,133.4,0,0,0,3-25.57c.16-5.81.27-12.45-1.81-18a3,3,0,0,0-4.4-1.79c-11.46,6.42-20.37,15.46-28.64,25.4-1.28-3.16-2.61-6.36-2.83-9.62-.19-2.79-4.11-4.33-5.59-1.51a58.78,58.78,0,0,0-3.64,8.46c-4.5-7.25-10.8-13-20.15-13.54a2.91,2.91,0,0,0-2.59,1.48c-9.63,18.77-1.57,45.9,19.5,52.68a11.86,11.86,0,0,0,11.38-2.18C1165.52,981.57,1169.56,987.87,1176.62,988.61Zm-17.53-25.47c.51,1.73,1.05,3.62,1.66,5.58A49.15,49.15,0,0,1,1159.09,963.14Zm8.46,6.39a38,38,0,0,0,2.29-3.69c1.33-2.44,2.48-5,3.57-7.55-1.62,4.58-3.37,9.11-5.05,13.62C1168.07,971.09,1167.81,970.29,1167.55,969.53Zm28-37.25a126.18,126.18,0,0,1-2.63,23.89c-1.19,5.83-7.73,32.53-18.57,25.5a11.59,11.59,0,0,1-3.53-4,3,3,0,0,0,2.52-2c5-13.58,10.57-27.08,12.1-41.58.19-1.85-1.8-3.19-3.51-3a83.38,83.38,0,0,1,13-10.38A61.29,61.29,0,0,1,1195.58,932.28Zm-35.36,6.09c.91,2.41,1.89,4.81,2.57,7.26.55,2,3.55,3.15,5,1.33,3.35-4.18,6.76-8.25,10.38-12.08-3.89,5.72-6.52,12.14-9.2,18.52-1.06,2.52-2.25,5.87-3.82,9-1.6-4.92-3.13-9.87-5-14.71-.46-1.2-.94-2.4-1.46-3.6A46.78,46.78,0,0,1,1160.22,938.37Zm-15.3,28.16a30.15,30.15,0,0,1-8.7-12.28,33.61,33.61,0,0,1,.07-25.39c7.89,1.34,12.82,8,16.28,15.59a50.81,50.81,0,0,0,2.81,27C1151.72,971.68,1147.45,968.58,1144.92,966.53Z" transform="translate(-893.35 -458.58)"/><path d="M1171.08,1054c.16-3.87-5.84-3.85-6,0-.27,6.18-5.29,11-10.36,13.9-4.4,2.49-11.56,2.56-9.93-4.35,1.31-5.57,6-10.48,10-14.31a44.16,44.16,0,0,1,6.17-5.09,63.9,63.9,0,0,0-5.36,10.25c-1.49,3.58,4.32,5.12,5.79,1.6a49.56,49.56,0,0,1,10-15.47,3,3,0,0,0-2.12-5.12c-7.81-.56-15.32,6.11-20.41,11.22-5.3,5.32-11.61,13.35-10.07,21.36s10.93,8.76,17.1,6C1163.78,1070.39,1170.7,1062.93,1171.08,1054Z" transform="translate(-893.35 -458.58)"/><path d="M1301.48,794c-14.52,14.28-20.59,33-24.63,52.45-4.14,19.88-7.11,40.26-19,57.29-2.22,3.19,3,6.18,5.18,3,23-32.85,13.12-79.42,42.71-108.53C1308.48,795.53,1304.24,791.29,1301.48,794Z" transform="translate(-893.35 -458.58)"/><path d="M1311.8,791c-2,3.32,3.19,6.33,5.18,3,2.15-3.56,13.65-1.31,17.27-.77,11.46,1.72,22.74,4.77,33.9,7.83,11.75,3.22,23.41,6.75,35.11,10.14,7.83,2.26,15.76,4.8,23.87,5.87,3.82.51,3.77-5.5,0-6-8.48-1.12-16.91-4.1-25.09-6.48-12.54-3.64-25-7.4-37.66-10.77-8.84-2.37-17.79-4.62-26.84-6.1,13-22.23,41.31-19.88,63.15-15.26,22.8,4.82,44.22,14.2,66.71,20a295.37,295.37,0,0,1-.91,40.13c-1.27,13.61-3.16,28.51-10.3,40.43-11.54,19.26-34.77,27.94-50.37,43.29-2.77,2.72,1.48,7,4.24,4.24,13.94-13.7,32.6-22.17,45.48-36.78a3.27,3.27,0,0,0,.18,2.59c.89,1.79,1.92,3.65,2,5.69.13,3.85,6.13,3.87,6,0-.11-3.16-1.42-5.93-2.81-8.71a3,3,0,0,0-4.06-1.1,57.76,57.76,0,0,0,5.2-7.32c6.88-11.48,8.57-25.85,10.09-38.89a278.49,278.49,0,0,0,1.17-45.93,3,3,0,0,0-2.2-2.89c-25.26-6.2-49.09-17-74.8-21.7-23.31-4.27-50.93-3.52-64.11,19.48a2.81,2.81,0,0,0-.37,1.94l-1.66-.21C1324.49,786.11,1315.29,785.22,1311.8,791Z" transform="translate(-893.35 -458.58)"/><path d="M1412.62,899.27c8.17-3.2,11.8-14.67,14.19-22.11,3.24-10.1,5.61-21.22,5.72-31.87,0-3.87-6-3.86-6,0-.08,7.9-1.71,15.82-3.59,23.46-1.94,7.86-4.4,17.2-10.12,23.25a6.62,6.62,0,0,1-3.28,2c-2.08.52-2.45,3.12-3.1,4.8a40.88,40.88,0,0,1-8,13.13c-5.91,6.45-14.32,8.71-22.79,9-19.63.58-38.15-7.05-56.45-13-15.22-4.9-38.28-12.09-51.34,1.22-2.71,2.77,1.53,7,4.24,4.25,9.54-9.73,26.53-5.1,37.94-2,13.54,3.73,26.44,9.39,40.19,12.34,12.47,2.68,26.07,4.94,38.54,1.1C1401,921.09,1408.26,910.66,1412.62,899.27Z" transform="translate(-893.35 -458.58)"/><path d="M1241.85,788.8a87.72,87.72,0,0,0-15.46-.78c-6.12.06-11.53-1.9-16.89-4.72-8.91-4.68-16.06-9.13-26.59-7.85-8.8,1.06-16.23,6-22.94,11.5-7.93,6.48-15.38,13.41-23.49,19.7-4.69,3.64-10.09,7.5-12.27,13.27-2.59,6.85-.44,14.62,1.4,21.37,1,3.73,6.8,2.15,5.78-1.59-1.49-5.5-3.87-12.58-1.39-18.16,2.32-5.23,8.46-8.89,12.8-12.25,7-5.44,13.56-11.38,20.31-17.17,7-6,14.74-10.76,24.16-11,8.78-.21,15.54,5.85,23.13,9.27a38.68,38.68,0,0,0,12.56,3.52c5.39.51,10.8-.42,16.17.48,14.19,2.36,33.92,4.65,42.69,17.63,2.15,3.18,7.35.19,5.18-3C1277.32,794.67,1257.67,791.46,1241.85,788.8Z" transform="translate(-893.35 -458.58)"/><path d="M1254.74,948.06c-16.26,2.94-33.08.4-49.48,1-3.86.13-3.88,6.14,0,6,18-.62,36.17,2,53.93-1.75,7.78-1.65,15.32-5.16,20.58-11.25,6.17-7.15,7.78-16.82,7.64-26-.06-3.86-6.06-3.87-6,0,.13,8.31-1.21,16.74-7,23C1269.33,944.53,1261.81,946.78,1254.74,948.06Z" transform="translate(-893.35 -458.58)"/><path d="M1262.54,824.63c2.88-2.6-1.38-6.83-4.24-4.24-7,6.32-10.17,16.24-17.76,21.83-8.7,6.39-23,1.44-32.89,1.27-3.87-.06-3.86,5.94,0,6,11.41.19,22.88,3.76,33.82-.88C1251.34,844.42,1255,831.48,1262.54,824.63Z" transform="translate(-893.35 -458.58)"/><path d="M1245.54,851.69a38.67,38.67,0,0,0-1.31,11.59c0,3.87,6,3.87,6,0a32.94,32.94,0,0,1,1.09-10C1252.47,849.58,1246.68,848,1245.54,851.69Z" transform="translate(-893.35 -458.58)"/><path d="M1011,770.34a46.7,46.7,0,0,0,11.59-2.51,3,3,0,0,0,1.79-4.4c-3.56-7-8-13.55-9.92-21.22-.9-3.6.36-6.94,1.06-10.45a22.9,22.9,0,0,0-.43-10.79c-1-3.73-6.81-2.14-5.79,1.59,2,7.21-2.09,13.94-.63,21.24,1.39,6.92,5.32,13.16,8.76,19.34a29.63,29.63,0,0,1-6.43,1.2C1007.12,764.54,1007.1,770.54,1011,770.34Z" transform="translate(-893.35 -458.58)"/><path d="M999.68,748.55c-1.18,3.69-1.37,7.16.3,10.71a3,3,0,0,0,4.11,1.08,3.07,3.07,0,0,0,1.07-4.11c-.93-2-.33-4.11.31-6.08C1006.65,746.45,1000.85,744.88,999.68,748.55Z" transform="translate(-893.35 -458.58)"/><path d="M1202.86,1128.93c-12.55.09-25.44,2-36.87-4.39-3.37-1.9-6.4,3.28-3,5.18a39,39,0,0,0,10.1,3.92,3.12,3.12,0,0,0,.7,4.48c2.58,1.77,7,1.64,10,2,2.27.23,4.55.43,6.83.58a3.44,3.44,0,0,0,.59,3.11c-1.25-.21-2.5-.42-3.75-.65s-2.63-.56-3.93-.9c-.93-.24-2-1.38-1.75-.29-1-3.73-6.78-2.14-5.78,1.6.78,2.93,4,4.45,7.7,5.33-.35.05-.69-.09-1,0-1.63,0-3.28.13-5,.13h0c-.27,0-.54.25-.82.3-3.39.56-2.5,6,.81,6a53.6,53.6,0,0,0,5.81-.34c.17,0,.34,0,.51,0-.37.16-.73.35-1.11.49-2.69,1-3.24,4.9-.22,5.79,3.71,1.09,7,3,10.39,4.82a25.46,25.46,0,0,1-6.79,3c-1.53.19-3.06.43-4.58.77-3.3.73-2.58,6.07.8,5.89a24.92,24.92,0,0,0,5.16-.81c1-.11,2-.19,3-.25a10.25,10.25,0,0,0-1.8,4.19,2.56,2.56,0,0,0,1.09,2.29,19.2,19.2,0,0,0-3.62,2.66c-2,1.87-.37,5,2.12,5.12a13.22,13.22,0,0,1,3.48.72,8.11,8.11,0,0,0-.56,1.1,9.47,9.47,0,0,0-.59,2.47c0,.17,0,.33,0,.49a3.16,3.16,0,0,0,3.31,4.7c1.88-.38,2.49-2.15,2.62-3.81.16-2,.91-2.8,2.89-3.68,3-1.33,1.16-5.41-1.51-5.6a6.38,6.38,0,0,1-1.33-.26c2.72-1.21,2.39-6-1.07-5.73l-.45.06c.23-.42.54-1.08.79-1.44a14.64,14.64,0,0,1,3.57-3.83,3.08,3.08,0,0,0,0-5.16l1.16-.83c1.58-1.15,2.22-4.21-.08-5.18-3.32-1.41-6.41-3.22-9.65-4.81,1.21-.66,2.4-1.34,3.65-2a3,3,0,0,0,.55-4.81c.66-.37,1.3-.76,1.93-1.19,1.9-1.31,2.09-5-.71-5.48l-2.07-.34c3.73-1.42,6.22-1.6,6.67-6.37a2.94,2.94,0,0,0-2.39-2.92c1.39,0,2.79-.06,4.19-.07C1206.72,1134.9,1206.73,1128.9,1202.86,1128.93Zm-10.65,63.75a1.21,1.21,0,0,1,.25-.08Zm2.54-13.26a3.38,3.38,0,0,0,.07-.63l.07,0a5.27,5.27,0,0,0-.05.57Z" transform="translate(-893.35 -458.58)"/><path d="M1198.06,1197.29a3,3,0,0,0-3,2.88c0,.13-.06.26-.09.39a11,11,0,0,1-.4,1.14l-.12.28-.19.39a3.06,3.06,0,0,0,1.08,4.11,3,3,0,0,0,4.1-1.08,12.74,12.74,0,0,0,1.61-5.11A3,3,0,0,0,1198.06,1197.29Z" transform="translate(-893.35 -458.58)"/><path d="M1353.57,1108.44c9.79-3.54,20-5.38,29.5-9.9,3.49-1.67.44-6.84-3-5.18-9,4.28-18.78,5.94-28.07,9.29C1348.36,1104,1349.92,1109.75,1353.57,1108.44Z" transform="translate(-893.35 -458.58)"/><path d="M1356.37,1119.34a23.52,23.52,0,0,0,12.31-4c3.23-2.09.23-7.29-3-5.18a17.67,17.67,0,0,1-9.28,3.19C1352.5,1113.42,1352.5,1119.42,1356.37,1119.34Z" transform="translate(-893.35 -458.58)"/><path d="M1358.36,1128.82a45.7,45.7,0,0,0,10.32-5.1,3.14,3.14,0,0,0,.77-.72,65.75,65.75,0,0,0,8.23-6.94c2.76-2.72-1.49-7-4.24-4.24-4.84,4.77-10.2,8.93-16.67,11.22C1353.15,1124.32,1354.69,1130.09,1358.36,1128.82Z" transform="translate(-893.35 -458.58)"/><path d="M1366.28,1141.71c2-.91,4-1.48,6-2.39a2.42,2.42,0,0,0,1.54-2.15,92.81,92.81,0,0,0,8.67-7.92,2.89,2.89,0,0,0-.44-4.48c2.74-2.36-.17-7.3-3.2-5-2.14,1.61-4.28,3.18-6.53,4.55a3.94,3.94,0,0,0-.67.25,64.19,64.19,0,0,1-7.67,3.3,3,3,0,0,0,1.59,5.78,28.31,28.31,0,0,0,5.37-1.83,32.43,32.43,0,0,1-7.68,4.74C1359.7,1138.18,1362.8,1143.19,1366.28,1141.71Z" transform="translate(-893.35 -458.58)"/><path d="M1376.76,1156.51c5.58-.11,10.51-2.8,12.48-8.19,1.34-3.65-4.46-5.2-5.78-1.6a5.65,5.65,0,0,1-4,3.38c3.93-2.7,6.2-6.12,6.27-11,.06-3.87-5.94-3.86-6,0a6.56,6.56,0,0,1-3.31,5.81,3.2,3.2,0,0,0,.67,5.56l-.35,0C1372.89,1150.6,1372.88,1156.6,1376.76,1156.51Z" transform="translate(-893.35 -458.58)"/><path d="M1028.16,1104.84c8.54,1.38,16.64,4.61,25.19,6,3.78.62,5.4-5.16,1.59-5.78-1-.16-2-.36-3-.57a3.1,3.1,0,0,0-1.8-4.23,68.45,68.45,0,0,1-10.76-5c-2.63-1.46-6-3.2-7.83-5.66-2.29-3.07-7.5-.08-5.18,3a29.5,29.5,0,0,0,8.92,7.52c-1.83-.44-3.67-.83-5.54-1.14C1026,1098.44,1024.35,1104.22,1028.16,1104.84Z" transform="translate(-893.35 -458.58)"/><path d="M1028,1069.29a35,35,0,0,1,8.53,10.53,22.88,22.88,0,0,0-4.42-1.16c-3.78-.52-5.41,5.26-1.59,5.79s7.31,2.4,10.79,3.6a3,3,0,0,0,3.69-3.69,46.52,46.52,0,0,0-7.26-13.62,11.13,11.13,0,0,1,2.37.52,3,3,0,0,0,3.69-3.69c-.66-2-1.35-4-2.16-5.91.94.07,1.89.11,2.87.11,3.87,0,3.87-6,0-6-2.46,0-5.44.12-7.48-1.52-3-2.4-6.87,1.31-4.24,4.24a20.15,20.15,0,0,1,3.7,6.27,25.47,25.47,0,0,1-5.58-.49C1028.23,1063.6,1025.61,1067.26,1028,1069.29Z" transform="translate(-893.35 -458.58)"/><path d="M1041,1040.18c-3.86.14-3.87,6.14,0,6,2.83-.11,5.56-1.14,8.4-1.2,3.86-.08,3.87-6.08,0-6a32.28,32.28,0,0,0-4.8.59l-2.47.45-.74.12Z" transform="translate(-893.35 -458.58)"/><path d="M1082.32,738.26c-1.79-.56-5.29-2.1-6.77-.21a3.13,3.13,0,0,0-.47,3.63c.61,1.23,2.3,1.7,3.45,2.17a2.35,2.35,0,0,0,1.59,0c.4.12.81.23,1.21.36,1,.32,2,.65,3,1l1.3.47.3.12.28.12c3.47,1.68,6.51-3.49,3-5.18A49.65,49.65,0,0,0,1082.32,738.26Zm-2.65-.39h0C1079.11,737.61,1079.31,737.55,1079.67,737.87Z" transform="translate(-893.35 -458.58)"/><path d="M1084.32,762.86a3,3,0,0,0-1.08-4.11c-2-1-5.09-1.87-6.12-3.72-1.87-3.38-7.06-.36-5.18,3a10,10,0,0,0,4,3.75,3.07,3.07,0,0,0,.67,4.52,44.68,44.68,0,0,0,10.32,5.1c3.67,1.25,5.23-4.55,1.59-5.78a35.47,35.47,0,0,1-4.8-2.08A3.22,3.22,0,0,0,1084.32,762.86Z" transform="translate(-893.35 -458.58)"/><path d="M1074,771.34a11.27,11.27,0,0,0,.69,7.63c1.09,2.31,3.43,4,5.48,5.35,3.22,2.18,6.22-3,3-5.18-2.36-1.6-4.1-3.18-3.42-6.21C1080.67,769.16,1074.88,767.56,1074,771.34Z" transform="translate(-893.35 -458.58)"/><path d="M1086.72,795.24a3.06,3.06,0,0,0-1.08-4.11c-1.28-.85-2.59-1.69-3.79-2.66a13.45,13.45,0,0,1-1.64-1.56c-.16-.17-.3-.67-.28-.38a3.06,3.06,0,0,0-3-3,3,3,0,0,0-3,3c.23,3.51,3,5.92,5.83,7.89a3.28,3.28,0,0,0-2.45,2.9c0,1,1,1.82,1,2.36v0a3,3,0,0,0,.43,1.07,2.93,2.93,0,0,0-1.31,2.53c0,.2,0,.4,0,.6a2.2,2.2,0,0,1,0,.35c0,.11-.07.23-.1.32s0,0,0,.07l-.12.13a3,3,0,0,0,0,4.25,3.09,3.09,0,0,0,3.09.71v2a3,3,0,0,0,6,0v-3.59a3,3,0,0,0-2.92-3,10.49,10.49,0,0,0,.15-1.8,2.94,2.94,0,0,1,1.2-3.6,7.93,7.93,0,0,0-.5-3A3.19,3.19,0,0,0,1086.72,795.24Z" transform="translate(-893.35 -458.58)"/><path d="M1313.51,650.81c-10-5.36-21.34-7.76-31.32-13.11.56-2.07.73-4.3,1.51-6.28s-1.14-3.66-2.89-3.8c-11-.91-21.91-.37-32.85.46.47-.44.93-.88,1.39-1.34,2.25-2.23-.08-5.57-2.92-5-14,2.74-27.31,7.87-40.34,13.64.19-.28.38-.55.56-.84a3,3,0,0,0-2.59-4.51c-12.4-.45-24.21,4.64-34.81,10.58-3.62,2-7.14,4.26-10.58,6.61a3,3,0,0,0-4.1-1.19c-21.67,11.46-44.11,22.67-61.77,40-2.76,2.72,1.48,7,4.24,4.25,13.67-13.46,30.34-23.08,47.21-32.07-2.4,2-4.77,4.12-7.08,6.24-2.59,2.37.71,6.28,3.64,4.71A39.92,39.92,0,0,0,1153,658.93a168.42,168.42,0,0,1,16.66-11.59c8.57-5.21,18.24-9.9,28.34-11.06a27.16,27.16,0,0,1-9.8,7.34c-3.53,1.65-.46,6.7,3,5.18,14.71-6.87,29.55-13.89,45.17-18.42-.95,1.89-.13,4.66,2.49,4.44,12.72-1.06,25.49-2.13,38.26-1.43a10.71,10.71,0,0,1-1.28,4.11,3,3,0,0,0,1,4.1c8.7,5.21,18.38,7.7,27.69,11.67-8.66,3-18.31,3.43-27.41,4-11.49.69-23.15.94-34.3,4.07-3.28.92-2.57,5.86.82,5.89,5,0,11.35.31,16.38,2.46-11.25,4.09-23.71,4.69-35.55,4.73a3,3,0,0,0-2.71,4.28c-6.68.45-13.36.52-20.07.52-2.13,0-3.94,2.6-2.59,4.51a7.24,7.24,0,0,1,.54.93c-15.34,2.64-30.14,9.68-44.95,14-13.61,4-35.45,10.13-47-1.58,23.2-16.77,50.43-26.06,78.17-32.43,14.59-3.35,29.36-5.85,44.13-8.26,7.3-1.19,14.6-2.34,21.9-3.54q5.38-.89,10.76-1.83c.73-.12,2.81-.7,4.8-1.18a2.67,2.67,0,0,0,4.09,1.35c1.87-1.26,4.39-1.35,4.6-4.1a3.84,3.84,0,0,0-3.71-3.89c-3.66,0-7.77,1.4-11.38,2-4.1.72-8.2,1.4-12.31,2.08-17.33,2.85-34.7,5.47-51.93,8.88-33.58,6.64-67.4,16.79-95,37.78-1.17.89-2.15,2.69-1.08,4.1,11.51,15.16,32.1,12.32,48.41,8.31,10.31-2.54,20.33-6.12,30.37-9.55,7.93-2.72,16.17-5.93,24.56-6.87,2-.22,4-2.45,2.59-4.51-.07-.1-.13-.2-.19-.3a209,209,0,0,0,22.78-1.18,3.36,3.36,0,0,0,2.92-3.75c12.27-.45,24.65-2.14,35.77-7.45a3,3,0,0,0,.61-4.72,22.05,22.05,0,0,0-6.32-3.88c17.43-1.4,35.48-.13,51.29-8.19A3,3,0,0,0,1313.51,650.81Z" transform="translate(-893.35 -458.58)"/><path d="M1071.15,524.91c10.22,6.53,22.65,11.46,34.82,12.67,1,1.54,2.1,3.09,3.15,4.6,2.18,3.16,7.39.17,5.18-3-1.42-2.06-2.83-4.14-4.26-6.23.33-10.88-8.47-18.39-18.08-24.28a86.65,86.65,0,0,0-18.31-16.15,3,3,0,0,0-4.41,1.8c-1,3.32-2.39,6.34-3.46,9.5a71.55,71.55,0,0,0-10.12-8.9c-1.85-1.38-4.58.5-4.52,2.59C1051.49,509.85,1061.44,518.72,1071.15,524.91Zm-6.41-12.71a3,3,0,0,0,5.6-1.51,22.3,22.3,0,0,1,1.63-6.83,2.94,2.94,0,0,0,1,1c4,2.35,9.51,4.94,14.82,8.06a195,195,0,0,1,13.58,18c-8.44-1.62-16.69-5.2-24.08-9.29-6.47-3.59-14.1-8.87-17.87-15.8A35.24,35.24,0,0,1,1064.74,512.2Z" transform="translate(-893.35 -458.58)"/><path d="M1407.75,951.72c-2.91,6.27-1.37,12.52,4.06,16.82,3,2.38,7.28-1.84,4.25-4.24s-5-5.64-3.13-9.56C1414.54,951.26,1409.37,948.21,1407.75,951.72Z" transform="translate(-893.35 -458.58)"/><path d="M1425.3,984.41v1.7a3,3,0,0,0,6,0v-1.7a3,3,0,0,0-6,0Z" transform="translate(-893.35 -458.58)"/><path d="M1454.43,927.77a25.39,25.39,0,0,0,1.84-2.3.65.65,0,0,0,.09-.11c.12-.15.25-.29.39-.44l.06-.06a2.94,2.94,0,0,0,2.1-2.81,3,3,0,0,0-3-3,5.17,5.17,0,0,0-3.66,1.92c-.49.55-.93,1.16-1.37,1.75l-.11.15-.07.08c-.16.2-.33.39-.51.58a3,3,0,1,0,4.24,4.24Zm2-2.81a1.79,1.79,0,0,1-.57.09A3.75,3.75,0,0,0,1456.48,925Z" transform="translate(-893.35 -458.58)"/><path d="M1449.54,969.84l.1-.1a3,3,0,0,0-4.25-4.24c-1.87,2-2.07,4.33-2.07,6.92a3,3,0,0,0,6,0v-1.25c0-.13.07-.71.07-.91l.1-.33Z" transform="translate(-893.35 -458.58)"/><path d="M1437.3,1016.79v1.2a3,3,0,0,0,6,0v-1.2a3,3,0,0,0-6,0Z" transform="translate(-893.35 -458.58)"/><path d="M1444.3,1067.17v-2.4a3,3,0,0,0-6,0v2.4a3,3,0,0,0,6,0Z" transform="translate(-893.35 -458.58)"/><path d="M1455,1077a3,3,0,0,0,4.24,4.24c1.62-1.62,3.15-3.32,3.28-5.72a3,3,0,0,0-6-.32l0,.06c0-.3-.08,0,0,0a3.11,3.11,0,0,0-.18.3C1455.92,1076.11,1455.45,1076.58,1455,1077Zm1.56-1.77a2.54,2.54,0,0,0,0,.29c0-.11,0-.2,0-.26Z" transform="translate(-893.35 -458.58)"/><path d="M1439.12,1102.93a3,3,0,0,0,0,6h1.2a3,3,0,0,0,0-6Z" transform="translate(-893.35 -458.58)"/><path d="M1420.3,1105.54a2.93,2.93,0,0,0-2.88-3,3,3,0,0,0-3,3,7.81,7.81,0,0,0,.63,3.27,4.06,4.06,0,0,0,3.62,2.13,2.92,2.92,0,0,0,2.89-3,2.43,2.43,0,0,0-1.31-2.36Z" transform="translate(-893.35 -458.58)"/><path d="M1472.1,1051.57a3.65,3.65,0,1,0,7.2,1.2,4.45,4.45,0,0,0-1-3.17,4.09,4.09,0,0,0-3.17-1A3,3,0,0,0,1472.1,1051.57Z" transform="translate(-893.35 -458.58)"/><path d="M1467.63,761.06c.4-.39.8-.79,1.19-1.19a3,3,0,0,0-4.24-4.25l-1.2,1.2a3,3,0,1,0,4.25,4.24Z" transform="translate(-893.35 -458.58)"/><path d="M1381.24,817.52a3,3,0,0,0-1.08,4.1c1.07,2.08,2.53,3.92,3.6,6a3,3,0,0,0,4.1,1.08,3.05,3.05,0,0,0,1.08-4.11c-1.07-2.08-2.53-3.92-3.6-6A3,3,0,0,0,1381.24,817.52Z" transform="translate(-893.35 -458.58)"/><path d="M1392.62,822.78l-.33.33a3,3,0,0,0,.06,6,6,6,0,0,0,2.64-.52,7.55,7.55,0,0,0,1.88-1.55,3,3,0,0,0-4.25-4.25Zm-.81.79Z" transform="translate(-893.35 -458.58)"/><path d="M1349.3,823.1c-4,0-4,6,0,6C1349.3,829.1,1353.3,823.1,1349.3,823.1Z" transform="translate(-893.35 -458.58)"/></svg>